<?xml version="1.0" standalone="no"?>
<!DOCTYPE svg PUBLIC "-//W3C//DTD SVG 20010904//EN"
 "http://www.w3.org/TR/2001/REC-SVG-20010904/DTD/svg10.dtd">
<svg version="1.0" xmlns="http://www.w3.org/2000/svg"
 width="700.000000pt" height="700.000000pt" viewBox="0 0 700.000000 700.000000"
 preserveAspectRatio="xMidYMid meet">
<metadata>
Created by potrace 1.11, written by Peter Selinger 2001-2013
</metadata>
<g transform="translate(0.000000,700.000000) scale(0.100000,-0.100000)"
fill="#000000" stroke="none">
<path d="M350 6240 c0 -321 3 -410 13 -411 6 -1 142 -2 302 -3 l289 -1 0
-1083 c0 -595 4 -1081 8 -1080 4 2 46 50 94 108 48 58 101 123 120 145 397
481 491 595 513 620 14 17 55 66 91 110 35 44 67 82 70 85 3 3 24 28 45 55 22
28 42 52 45 55 3 3 25 30 50 60 25 30 47 57 50 60 3 3 68 81 144 173 l139 169
-1 651 c0 359 -1 662 -1 675 l-1 22 -985 0 -985 0 0 -410z"/>
<path d="M4547 6566 c-23 -28 -159 -197 -302 -376 -143 -179 -262 -327 -265
-330 -3 -3 -131 -162 -284 -355 -154 -192 -282 -352 -286 -355 -3 -3 -57 -70
-120 -150 -63 -80 -123 -154 -132 -165 -9 -11 -238 -297 -509 -635 -271 -338
-504 -629 -518 -646 -14 -18 -37 -46 -51 -65 -14 -18 -29 -37 -35 -43 -5 -6
-37 -45 -69 -86 -33 -41 -63 -77 -66 -80 -3 -3 -27 -32 -52 -65 -25 -33 -54
-70 -64 -81 -11 -12 -29 -34 -41 -50 -28 -36 -409 -512 -431 -539 -10 -11 -69
-85 -132 -165 -63 -80 -117 -147 -120 -150 -3 -3 -31 -37 -61 -76 l-55 -71 1
-909 0 -909 673 0 c371 0 679 3 684 6 7 5 11 313 11 976 l-1 970 245 289 c135
159 250 289 255 289 6 0 114 -135 240 -300 347 -456 484 -635 586 -768 52 -67
118 -155 148 -194 29 -40 60 -81 69 -90 8 -10 110 -144 228 -298 117 -154 300
-395 407 -535 106 -140 210 -275 231 -300 l37 -45 831 0 c457 1 832 4 832 9 2
7 -149 203 -186 242 -6 6 -33 39 -60 74 -28 34 -66 81 -85 105 -19 23 -42 51
-50 61 -226 281 -477 593 -639 793 -114 140 -226 280 -251 312 -34 44 -325
404 -403 499 -12 15 -503 625 -616 765 -31 38 -64 79 -73 90 -44 53 -326 403
-332 414 -4 7 17 39 51 78 32 37 70 81 84 98 15 16 127 147 249 290 122 143
232 271 243 285 12 14 45 52 72 85 28 33 56 66 63 74 7 7 115 133 240 280 125
146 231 271 237 277 5 6 29 33 52 60 173 202 733 859 766 898 23 27 47 54 52
60 9 9 96 111 228 266 12 14 61 71 110 127 48 56 87 104 87 106 0 3 -378 5
-840 5 l-840 0 -43 -52z"/>
</g>
</svg>
