<svg width="48" height="48" viewBox="0 0 48 48" fill="none" xmlns="http://www.w3.org/2000/svg">
<g clip-path="url(#clip0)">
<path d="M36.8597 25.9913C42.6334 25.9913 47.3138 21.3108 47.3138 15.5372C47.3138 9.76358 42.6334 5.08313 36.8597 5.08313C31.0861 5.08313 26.4056 9.76358 26.4056 15.5372C26.4056 21.3108 31.0861 25.9913 36.8597 25.9913Z" fill="white"/>
<path d="M36.8597 25.9913C42.6334 25.9913 47.3138 21.3108 47.3138 15.5372C47.3138 9.76358 42.6334 5.08313 36.8597 5.08313C31.0861 5.08313 26.4056 9.76358 26.4056 15.5372C26.4056 21.3108 31.0861 25.9913 36.8597 25.9913Z" fill="#FFC34D" fill-opacity="0.32"/>
<path d="M44.251 8.14535C41.6677 5.56215 38.069 4.61424 34.7399 5.30021C36.672 5.69837 38.5133 6.64619 40.0125 8.14544C44.0949 12.2279 44.0949 18.8467 40.0125 22.9292C38.5133 24.4283 36.672 25.3763 34.7399 25.7744C38.069 26.4604 41.6678 25.5125 44.251 22.9292C48.3334 18.8467 48.3334 12.2278 44.251 8.14535Z" fill="white"/>
<path d="M44.251 8.14535C41.6677 5.56215 38.069 4.61424 34.7399 5.30021C36.672 5.69837 38.5133 6.64619 40.0125 8.14544C44.0949 12.2279 44.0949 18.8467 40.0125 22.9292C38.5133 24.4283 36.672 25.3763 34.7399 25.7744C38.069 26.4604 41.6678 25.5125 44.251 22.9292C48.3334 18.8467 48.3334 12.2278 44.251 8.14535Z" fill="#FFAB0A" fill-opacity="0.32"/>
<path d="M36.0149 17.0056V18.6423H38.5808C38.7566 18.6423 38.903 18.708 39.0202 18.8394C39.1374 18.9577 39.196 19.1155 39.196 19.3127C39.196 19.523 39.1374 19.6939 39.0202 19.8254C38.903 19.9437 38.7566 20.0028 38.5808 20.0028H36.0149V21.9746C36.0149 22.3033 35.9329 22.5596 35.7689 22.7437C35.6049 22.9146 35.3881 23 35.1186 23C34.8609 23 34.65 22.9146 34.4859 22.7437C34.3219 22.5596 34.2399 22.3033 34.2399 21.9746V20.0028H33.1327C32.9569 20.0028 32.8046 19.9371 32.6757 19.8056C32.5586 19.6742 32.5 19.5099 32.5 19.3127C32.5 19.1155 32.5586 18.9577 32.6757 18.8394C32.8046 18.708 32.9569 18.6423 33.1327 18.6423H34.2399V17.0056H33.1327C32.9569 17.0056 32.8046 16.9465 32.6757 16.8282C32.5586 16.6967 32.5 16.5324 32.5 16.3352C32.5 16.138 32.5586 15.9803 32.6757 15.862C32.8046 15.7305 32.9569 15.6648 33.1327 15.6648H34.2399V9.98592C34.2399 9.68357 34.3161 9.44695 34.4684 9.27606C34.6324 9.09202 34.855 9 35.1362 9H38.3524C39.6646 9 40.6839 9.3615 41.4104 10.0845C42.1368 10.7944 42.5 11.7606 42.5 12.9831C42.5 14.2319 42.1309 15.2178 41.3928 15.9408C40.6664 16.6507 39.6529 17.0056 38.3524 17.0056H36.0149ZM35.9974 15.6648H38.0185C39.8579 15.6648 40.7777 14.83 40.7777 13.1606C40.7777 12.2798 40.5551 11.6291 40.1098 11.2085C39.6646 10.7878 38.9968 10.5775 38.1063 10.5775H35.9974V15.6648Z" fill="#FFA800"/>
<path d="M27.7374 20.0273C26.6019 21.1628 25.3124 22.4525 24.6017 23.1636C24.254 23.5115 23.7825 23.707 23.2846 23.707H23.2589C22.4373 23.707 21.475 22.9114 21.2632 22.1176L21.2627 14.9298L23.9108 12.7507L26.9219 12.2885C25.5028 11.9388 27.1298 11.3792 30 7.44308C27.7011 7.23365 25.1877 6.83455 23.8088 6.66936C22.8627 6.55602 21.9117 6.83577 21.1777 7.44308L14.4576 13.0025C13.4889 13.8039 12.7907 14.8838 12.4561 16.0958C11.7067 18.8101 10.2723 23.7558 9.27054 25.6652L4.26587 30.6699L12.9303 39.3343L15.3399 36.9246C15.7928 36.4717 16.3529 36.1407 16.9681 35.9623L22.0008 34.2676C23.5818 33.7252 24.9735 32.7398 26.0103 31.4287L28.5576 28.2071L36.004 20.7607C36.8621 19.9026 37.2269 18.8761 36.3688 18.018C35.0164 16.3385 30.0792 17.6853 27.7374 20.0273Z" fill="#FFF2E0"/>
<path d="M36.3688 18.0181C36.1374 17.7307 35.8008 17.5319 35.3902 17.4116C34.353 17.1079 33.2327 17.4315 32.4721 18.1993C30.4555 20.2351 25.5252 25.1748 25.5252 25.1748L22.9779 28.3964C21.9412 29.7075 20.5494 30.693 18.9684 31.2354L13.9357 32.93C13.9313 32.9313 13.9268 32.9326 13.9224 32.9339C13.062 33.1869 12.1327 32.9718 11.4986 32.3377L7.04837 27.8875L4.26587 30.67L12.9303 39.3343L15.3399 36.9247C15.4022 36.8624 15.4666 36.8028 15.5329 36.7455C15.5351 36.7436 15.5375 36.7419 15.5396 36.7399C15.6046 36.684 15.6712 36.6302 15.7395 36.5787C16.1073 36.3014 16.5229 36.0914 16.968 35.9623L22.0007 34.2677C23.5817 33.7254 24.9734 32.7399 26.0102 31.4288L28.5575 28.2071L36.0039 20.7608C36.8622 19.9026 37.227 18.8762 36.3688 18.0181Z" fill="#F1CDA0"/>
<path d="M35.7097 20.5288C34.7213 19.5405 33.1191 19.5406 32.1308 20.5288L31.0066 21.6531C30.4978 22.1618 30.4978 22.9867 31.0066 23.4954L32.138 24.6268L35.9728 20.792L35.7097 20.5288Z" fill="#F7E7D5"/>
<path d="M10.9931 42.6385L0.964877 32.6102C0.593251 32.2386 0.593251 31.6361 0.964877 31.2644L3.73332 28.496C4.10495 28.1244 4.70748 28.1244 5.0791 28.496L15.1074 38.5243C15.479 38.8959 15.479 39.4984 15.1074 39.8701L12.3389 42.6385C11.9673 43.0101 11.3648 43.0101 10.9931 42.6385Z" fill="#04B70A"/>
<path d="M15.1075 38.5243L5.07925 28.4959C4.70763 28.1243 4.10509 28.1243 3.73347 28.4959L1.69946 30.5299C2.07109 30.1583 2.67362 30.1583 3.04525 30.5299L13.0735 40.5583C13.4451 40.9299 13.4451 41.5324 13.0735 41.9041L15.1075 39.87C15.4791 39.4984 15.4791 38.8959 15.1075 38.5243Z" fill="#04B70A"/>
<path d="M11.3099 40.0874C12.0565 40.0874 12.6616 39.4822 12.6616 38.7357C12.6616 37.9892 12.0565 37.384 11.3099 37.384C10.5634 37.384 9.95825 37.9892 9.95825 38.7357C9.95825 39.4822 10.5634 40.0874 11.3099 40.0874Z" fill="white"/>
<path d="M13.3489 38.7357C13.3489 37.6114 12.4343 36.6969 11.3101 36.6969C10.186 36.6969 9.27136 37.6115 9.27136 38.7357C9.27136 39.8598 10.186 40.7745 11.3101 40.7745C12.4343 40.7745 13.3489 39.8598 13.3489 38.7357ZM10.6456 38.7357C10.6456 38.3692 10.9437 38.0711 11.3101 38.0711C11.6766 38.0711 11.9747 38.3692 11.9747 38.7357C11.9747 39.1022 11.6766 39.4003 11.3101 39.4003C10.9437 39.4002 10.6456 39.1021 10.6456 38.7357Z" fill="#333333"/>
<path d="M44.737 7.65959C42.7759 5.69852 40.1716 4.54446 37.4037 4.40983C34.7533 4.2813 32.1627 5.09308 30.0741 6.70024L29.5476 6.63987C27.9631 6.45808 24.6661 6.07999 23.8905 5.98718C22.7632 5.85218 21.6147 6.18986 20.7396 6.91371L14.0196 12.4731C12.9375 13.3683 12.1679 14.5577 11.7937 15.913C11.052 18.5999 9.67551 23.3452 8.70885 25.2552L5.75957 28.2045L5.56513 28.01C5.25566 27.7006 4.8441 27.53 4.40638 27.53C3.96866 27.53 3.55709 27.7005 3.24762 28.01L0.479181 30.7785C-0.159727 31.4174 -0.159727 32.457 0.479181 33.0959L1.21353 33.8302C1.48184 34.0985 1.91693 34.0985 2.18525 33.8302C2.45356 33.5619 2.45356 33.1268 2.18525 32.8585L1.4509 32.1242C1.38349 32.0568 1.37346 31.978 1.37346 31.9371C1.37346 31.8963 1.38349 31.8175 1.4509 31.7501L4.21934 28.9817C4.28675 28.9143 4.3655 28.9042 4.40638 28.9042C4.44734 28.9042 4.526 28.9143 4.59341 28.9817L5.27328 29.6615C5.27338 29.6617 5.27357 29.6618 5.27366 29.662L9.60661 33.9949L14.6216 39.01C14.689 39.0774 14.699 39.1562 14.699 39.1971C14.699 39.238 14.689 39.3167 14.6216 39.3841L11.8531 42.1525C11.7857 42.2199 11.707 42.23 11.6661 42.23C11.6251 42.23 11.5465 42.2199 11.4791 42.1525L5.29325 35.9667C5.02494 35.6984 4.58985 35.6984 4.32153 35.9667C4.05322 36.235 4.05322 36.6701 4.32153 36.9384L10.5074 43.1242C10.8269 43.4437 11.2465 43.6035 11.6661 43.6035C12.0857 43.6035 12.5054 43.4437 12.8249 43.1242L15.5933 40.3558C15.9028 40.0463 16.0733 39.6348 16.0733 39.1971C16.0733 38.7593 15.9029 38.3478 15.5933 38.0383L15.3956 37.8406L15.8257 37.4105C16.1957 37.0405 16.6568 36.7679 17.1594 36.6222C17.1688 36.6195 17.1781 36.6166 17.1873 36.6135L22.2238 34.9175C23.9329 34.3312 25.4285 33.2721 26.5492 31.8548L29.0718 28.6646L36.4898 21.2465C37.7376 19.9988 37.8852 18.5885 36.8799 17.5577C36.3968 16.9789 35.6026 16.6443 34.5801 16.5893C32.2505 16.4626 29.0321 17.7608 27.2515 19.5415C26.116 20.677 24.8265 21.9667 24.1157 22.678C23.8953 22.8985 23.6 23.0199 23.2846 23.0199H23.259C22.7851 23.0199 22.13 22.5073 21.9503 22.0139L21.9498 15.2541L24.2016 13.4011L25.9817 13.1279C25.6322 14.7123 25.6305 16.3613 25.9834 17.955C26.0543 18.2754 26.3384 18.4936 26.6536 18.4936C26.7027 18.4936 26.7527 18.4883 26.8027 18.4772C27.1732 18.3952 27.407 18.0284 27.325 17.6579C26.948 15.9554 27.0317 14.1815 27.5667 12.5257C27.5689 12.5199 27.57 12.5137 27.572 12.5079C27.5727 12.5057 27.5738 12.5038 27.5745 12.5016C28.0533 11.0332 28.8536 9.731 29.9533 8.63131C30.1868 8.39787 30.435 8.17352 30.6912 7.96427C30.6967 7.96015 30.7017 7.95537 30.7071 7.95106C30.7083 7.95021 30.7094 7.94946 30.7105 7.94862C32.5741 6.43465 34.9273 5.66524 37.3372 5.78243C39.7633 5.90036 42.0463 6.91212 43.7655 8.63121C45.6102 10.4758 46.6261 12.9284 46.6261 15.5372C46.6261 18.146 45.6102 20.5986 43.7655 22.4432C41.3334 24.8755 37.7503 25.8531 34.415 24.9945C34.0478 24.8998 33.6729 25.121 33.5783 25.4886C33.4837 25.8561 33.705 26.2307 34.0725 26.3252C34.9847 26.5601 35.9222 26.6775 36.8598 26.6775C37.817 26.6775 38.7743 26.5551 39.7043 26.3104C41.6019 25.8112 43.3423 24.81 44.7372 23.415C46.8412 21.3107 48 18.513 48 15.5372C48 12.5615 46.8412 9.76381 44.737 7.65959ZM32.1379 23.6551L31.4923 23.0097C31.3761 22.8933 31.312 22.7387 31.312 22.5743C31.312 22.4099 31.3761 22.2553 31.4924 22.1389L32.6166 21.0146C32.9761 20.6552 33.4481 20.4754 33.9202 20.4754C34.2926 20.4754 34.665 20.5873 34.9821 20.8109L32.1379 23.6551ZM26.4079 11.6723L23.8065 12.0716C23.6843 12.0903 23.5696 12.1416 23.4741 12.2202L20.8261 14.3993C20.6674 14.5298 20.5756 14.7244 20.5756 14.9298L20.576 22.1177C20.576 22.1776 20.5838 22.2372 20.5993 22.2948C20.8978 23.4132 22.1406 24.3941 23.2589 24.3941H23.2845C23.9673 24.3941 24.6076 24.1296 25.0876 23.6493C25.7984 22.9381 27.0877 21.6485 28.2231 20.5131C29.7351 19.0012 32.5533 17.8572 34.5062 17.9614C34.952 17.9854 35.5442 18.0895 35.8337 18.4489C35.8492 18.4681 35.8656 18.4864 35.883 18.5038C36.0287 18.6495 36.4233 19.0449 35.9193 19.7975C34.6573 18.7953 32.8114 18.8766 31.645 20.043L30.5208 21.1672C30.1449 21.5431 29.9379 22.0427 29.9379 22.5743C29.9379 23.1058 30.1449 23.6055 30.5208 23.9813L31.1663 24.6268L28.0719 27.7212C28.0531 27.74 28.0354 27.76 28.0188 27.7809L25.4715 31.0025C24.5145 32.2128 23.2373 33.1171 21.7817 33.6165L16.7623 35.3066C16.0435 35.5177 15.3841 35.909 14.8543 36.4387L14.4241 36.8689L10.5785 33.0232L6.73119 29.1762L9.75632 26.1511C9.80536 26.102 9.8467 26.0459 9.87895 25.9845C10.9071 24.0248 12.3499 19.0623 13.1183 16.2787C13.4171 15.1964 14.0317 14.2466 14.8955 13.5319L21.6155 7.97252C22.2018 7.48746 22.9713 7.26105 23.727 7.35162C24.4082 7.43318 27.0168 7.73281 28.7212 7.92837C27.698 9.02 26.9217 10.2764 26.4079 11.6723Z" fill="#333333"/>
</g>
<defs>
<clipPath id="clip0">
<rect width="48" height="48" fill="white"/>
</clipPath>
</defs>
</svg>
