<svg width="152" height="38" viewBox="0 0 152 38" fill="none" xmlns="http://www.w3.org/2000/svg"><g opacity=".9" filter="url(#a)" fill="#fff"><path opacity=".8" fill-rule="evenodd" clip-rule="evenodd" d="M14.297 7.973v3.738l-5.515 6.576V9.62H6.333V6.332h7.964v1.64Z"/><path d="M60.121 31.717h-6.107l-3.426-13.288c-.127-.473-.346-1.448-.657-2.924-.3-1.488-.473-2.486-.52-2.994-.069.623-.242 1.627-.519 3.011-.277 1.373-.49 2.353-.64 2.941l-3.408 13.254h-6.09L32.3 6.42h5.277l3.235 13.807c.566 2.55.975 4.758 1.229 6.627.07-.658.225-1.673.467-3.045.254-1.384.49-2.457.71-3.218l3.685-14.17h5.07l3.684 14.17c.162.634.364 1.603.606 2.906.242 1.304.427 2.422.554 3.357.115-.9.3-2.019.553-3.357.254-1.35.485-2.44.692-3.27l3.219-13.807h5.277L60.12 31.717ZM92.7 19.034c0 4.187-1.037 7.405-3.114 9.655-2.076 2.249-5.052 3.374-8.927 3.374-3.876 0-6.852-1.125-8.928-3.374-2.076-2.25-3.114-5.48-3.114-9.69 0-4.21 1.038-7.422 3.114-9.636 2.088-2.227 5.075-3.34 8.962-3.34 3.887 0 6.858 1.12 8.91 3.357 2.065 2.238 3.098 5.456 3.098 9.654Zm-18.46 0c0 2.826.536 4.954 1.609 6.385 1.072 1.43 2.676 2.145 4.81 2.145 4.279 0 6.419-2.843 6.419-8.53 0-5.698-2.129-8.547-6.385-8.547-2.134 0-3.743.721-4.827 2.163-1.084 1.43-1.626 3.558-1.626 6.384ZM103.307 17.65h1.73c1.695 0 2.947-.282 3.754-.848.808-.565 1.212-1.453 1.212-2.664 0-1.2-.416-2.053-1.246-2.56-.819-.508-2.094-.762-3.824-.762h-1.626v6.834Zm0 4.36v9.707h-5.364V6.42h7.371c3.437 0 5.98.629 7.63 1.886 1.649 1.246 2.474 3.143 2.474 5.692 0 1.488-.409 2.815-1.228 3.98-.819 1.153-1.979 2.059-3.478 2.716 3.806 5.687 6.286 9.36 7.44 11.022H112.2l-6.038-9.707h-2.855ZM141.682 31.717h-6.09l-6.627-10.658-2.266 1.626v9.032h-5.364V6.42h5.364v11.575l2.111-2.976 6.851-8.599h5.952l-8.824 11.195 8.893 14.1Z"/><path fill-rule="evenodd" clip-rule="evenodd" d="M30.963 31.727 19.983 18.32l10.29-11.859h-6.804L8.789 24.481v7.246h5.515v-7.762l2.02-2.35 7.84 10.112h6.8Z"/></g><defs><filter id="a" x="-2" y="0" width="156" height="42" filterUnits="userSpaceOnUse" color-interpolation-filters="sRGB"><feFlood flood-opacity="0" result="BackgroundImageFix"/><feColorMatrix in="SourceAlpha" values="0 0 0 0 0 0 0 0 0 0 0 0 0 0 0 0 0 0 127 0" result="hardAlpha"/><feOffset dy="2"/><feGaussianBlur stdDeviation="1"/><feColorMatrix values="0 0 0 0 0 0 0 0 0 0 0 0 0 0 0 0 0 0 0.19 0"/><feBlend in2="BackgroundImageFix" result="effect1_dropShadow_42244_80151"/><feBlend in="SourceGraphic" in2="effect1_dropShadow_42244_80151" result="shape"/></filter></defs></svg>