<svg width="18" height="24" viewBox="0 0 18 24" fill="none" xmlns="http://www.w3.org/2000/svg">
<g clip-path="url(#clip0)">
<path opacity="0.5" fill-rule="evenodd" clip-rule="evenodd" d="M2 22.8H16C16.4418 22.8 16.8 22.4418 16.8 22V4.82843C16.8 4.61625 16.7157 4.41277 16.5657 4.26274L13.7373 1.43431C13.5872 1.28429 13.3837 1.2 13.1716 1.2H2C1.55817 1.2 1.2 1.55817 1.2 2V22C1.2 22.4418 1.55817 22.8 2 22.8ZM2 0C0.895431 0 0 0.89543 0 2V22C0 23.1046 0.89543 24 2 24H16C17.1046 24 18 23.1046 18 22V4.82843C18 4.29799 17.7893 3.78929 17.4142 3.41421L14.5858 0.585786C14.2107 0.210714 13.702 0 13.1716 0H2Z" fill="#9F80FF"/>
<rect x="2.33325" y="13.8247" width="4.66667" height="1.33333" transform="rotate(-45 2.33325 13.8247)" fill="#9F80FF"/>
<rect x="3.27588" y="12.8823" width="4.66667" height="1.33333" transform="rotate(45 3.27588 12.8823)" fill="#9F80FF"/>
<rect width="4.66667" height="1.33333" transform="matrix(-0.707107 -0.707107 -0.707107 0.707107 15.667 13.8247)" fill="#9F80FF"/>
<rect width="4.66667" height="1.33333" transform="matrix(-0.707107 0.707107 0.707107 0.707107 14.7244 12.8823)" fill="#9F80FF"/>
<rect x="11.2227" y="9.84277" width="9.33333" height="1.33333" transform="rotate(110 11.2227 9.84277)" fill="#9F80FF"/>
</g>
<defs>
<clipPath id="clip0">
<rect width="18" height="24" fill="white"/>
</clipPath>
</defs>
</svg>
