<svg width="32" height="42" viewBox="0 0 32 42" fill="none" xmlns="http://www.w3.org/2000/svg">
<g clip-path="url(#clip0)">
<path opacity="0.5" fill-rule="evenodd" clip-rule="evenodd" d="M0 4C0 1.79086 1.79086 0 4 0H20.6716C21.202 0 21.7107 0.210714 22.0858 0.585786L31.4142 9.91421C31.7893 10.2893 32 10.798 32 11.3284V38C32 40.2091 30.2091 42 28 42H4C1.79086 42 0 40.2091 0 38V4ZM28 41.2H4C2.23269 41.2 0.8 39.7673 0.8 38V4C0.8 2.23269 2.23269 0.8 4 0.8H20.6716C20.7893 0.8 20.9053 0.817307 21.0161 0.850512C21.0057 0.886309 21 0.924829 21 0.965682V6C21 8.76142 23.2386 11 26 11H31.0343C31.0752 11 31.1137 10.9943 31.1495 10.9839C31.1827 11.0947 31.2 11.2107 31.2 11.3284V38C31.2 39.7673 29.7673 41.2 28 41.2ZM21.8 1.33894L30.6406 10.2H26C23.6804 10.2 21.8 8.31959 21.8 6V1.33894Z" fill="#457EDB"/>
<path d="M6 28H26V36.8165H6V28Z" fill="#457EDB"/>
<path d="M15.8407 16.5789C15.8407 17.8151 15.4616 18.7625 14.7032 19.4211C13.9449 20.0796 12.8655 20.4089 11.4651 20.4089H10.3124V24.8381H8.5V13H11.6926C13.0779 13 14.1143 13.3023 14.8018 13.9069C15.4944 14.5115 15.8407 15.4022 15.8407 16.5789ZM10.3124 18.7814H11.2755C12.2058 18.7814 12.8883 18.6086 13.3231 18.2632C13.7578 17.9177 13.9752 17.3779 13.9752 16.6437C13.9752 15.9636 13.7806 15.4561 13.3913 15.1215C13.002 14.7868 12.3953 14.6194 11.5713 14.6194H10.3124V18.7814Z" fill="#457EDB"/>
<path d="M23.5 22.2874C23.5 23.1619 23.2017 23.834 22.6052 24.3036C22.0086 24.7679 21.1542 25 20.042 25C18.9247 25 18.0273 24.8192 17.3498 24.4575V22.8138C18.3357 23.2996 19.2533 23.5425 20.1026 23.5425C21.1997 23.5425 21.7482 23.1889 21.7482 22.4818C21.7482 22.2551 21.6876 22.0661 21.5662 21.915C21.4449 21.7638 21.2452 21.6073 20.9671 21.4453C20.6891 21.2834 20.3023 21.0999 19.8069 20.8947C18.8413 20.4953 18.1866 20.0958 17.8428 19.6964C17.504 19.2969 17.3347 18.7787 17.3347 18.1417C17.3347 17.3752 17.6229 16.7814 18.1992 16.3603C18.7806 15.9339 19.5693 15.7206 20.5652 15.7206C21.5511 15.7206 22.4838 15.9339 23.3635 16.3603L22.7872 17.7935C21.8822 17.3941 21.1213 17.1943 20.5045 17.1943C19.5642 17.1943 19.094 17.4804 19.094 18.0526C19.094 18.3333 19.2154 18.5709 19.458 18.7652C19.7058 18.9595 20.2417 19.2267 21.0657 19.5668C21.7583 19.8529 22.2614 20.1147 22.5748 20.3522C22.8883 20.5897 23.1208 20.865 23.2725 21.1781C23.4242 21.4858 23.5 21.8556 23.5 22.2874Z" fill="#457EDB"/>
<path d="M12.9455 31.2565C12.9455 31.866 12.7417 32.333 12.3341 32.6577C11.9265 32.9824 11.3464 33.1447 10.5937 33.1447H9.97415V35.3284H9V29.492H10.716C11.4605 29.492 12.0175 29.6411 12.3871 29.9391C12.7594 30.2372 12.9455 30.6763 12.9455 31.2565ZM9.97415 32.3423H10.4918C10.9918 32.3423 11.3586 32.2572 11.5923 32.0868C11.826 31.9165 11.9428 31.6504 11.9428 31.2884C11.9428 30.9531 11.8382 30.7029 11.629 30.5379C11.4197 30.3729 11.0937 30.2904 10.6507 30.2904H9.97415V32.3423Z" fill="white"/>
<path d="M17.5717 33.7435C17.5717 34.2625 17.3801 34.6697 16.997 34.9651C16.6138 35.2605 16.0853 35.4082 15.4114 35.4082C14.7375 35.4082 14.1859 35.3057 13.7566 35.1008V34.1986C14.0283 34.3237 14.3164 34.4222 14.6207 34.494C14.9278 34.5659 15.2131 34.6018 15.4766 34.6018C15.8625 34.6018 16.1465 34.53 16.3285 34.3862C16.5133 34.2425 16.6057 34.0496 16.6057 33.8074C16.6057 33.5892 16.5214 33.4042 16.353 33.2525C16.1845 33.1008 15.8367 32.9212 15.3095 32.7136C14.7661 32.498 14.3829 32.2518 14.1601 31.9751C13.9373 31.6983 13.8259 31.3656 13.8259 30.9771C13.8259 30.49 14.0025 30.1068 14.3558 29.8274C14.709 29.5479 15.1832 29.4082 15.7783 29.4082C16.3489 29.4082 16.9168 29.5306 17.482 29.7755L17.1722 30.5539C16.6424 30.3357 16.1696 30.2266 15.7538 30.2266C15.4386 30.2266 15.1995 30.2944 15.0364 30.4302C14.8734 30.5632 14.7919 30.7402 14.7919 30.9611C14.7919 31.1128 14.8245 31.2432 14.8897 31.3523C14.9549 31.4588 15.0623 31.5599 15.2117 31.6557C15.3612 31.7515 15.6302 31.8779 16.0187 32.0349C16.4562 32.2133 16.7769 32.3796 16.9807 32.534C17.1845 32.6883 17.3339 32.8626 17.429 33.0569C17.5241 33.2512 17.5717 33.4801 17.5717 33.7435Z" fill="white"/>
<path d="M23.5714 32.3543C23.5714 33.3177 23.2983 34.0549 22.7522 34.5659C22.206 35.0742 21.4193 35.3284 20.3922 35.3284H18.7252V29.492H20.5675C21.5158 29.492 22.2535 29.7422 22.7807 30.2425C23.3079 30.7429 23.5714 31.4468 23.5714 32.3543ZM22.5443 32.3862C22.5443 30.989 21.8772 30.2904 20.543 30.2904H19.6993V34.526H20.3922C21.8269 34.526 22.5443 33.8127 22.5443 32.3862Z" fill="white"/>
</g>
<defs>
<clipPath id="clip0">
<rect width="32" height="42" fill="white"/>
</clipPath>
</defs>
</svg>
