<svg width="32" height="42" viewBox="0 0 32 42" fill="none" xmlns="http://www.w3.org/2000/svg">
<g clip-path="url(#clip0)">
<path opacity="0.5" fill-rule="evenodd" clip-rule="evenodd" d="M0 4C0 1.79086 1.79086 0 4 0H20.6716C21.202 0 21.7107 0.210714 22.0858 0.585786L31.4142 9.91421C31.7893 10.2893 32 10.798 32 11.3284V38C32 40.2091 30.2091 42 28 42H4C1.79086 42 0 40.2091 0 38V4ZM28 41.2H4C2.23269 41.2 0.8 39.7673 0.8 38V4C0.8 2.23269 2.23269 0.8 4 0.8H20.6716C20.7893 0.8 20.9053 0.817307 21.0161 0.850512C21.0057 0.886309 21 0.924829 21 0.965682V6C21 8.76142 23.2386 11 26 11H31.0343C31.0752 11 31.1137 10.9943 31.1495 10.9839C31.1827 11.0947 31.2 11.2107 31.2 11.3284V38C31.2 39.7673 29.7673 41.2 28 41.2ZM21.8 1.33894L30.6406 10.2H26C23.6804 10.2 21.8 8.31959 21.8 6V1.33894Z" fill="#F14497"/>
<path d="M18.3299 20.2222H9.11111C8.49769 20.2229 8.00072 20.7199 8 21.3333V28.6452C8.00072 29.2586 8.49769 29.7556 9.11111 29.7563H18.3299C18.9431 29.7556 19.4402 29.2586 19.441 28.6452V21.3333C19.4402 20.7199 18.9431 20.2229 18.3299 20.2222Z" fill="#F14497"/>
<path d="M20.1816 26.5112L23.9999 28.5958V21.4067L20.1816 23.4914V26.5112Z" fill="#F14497"/>
</g>
<defs>
<clipPath id="clip0">
<rect width="32" height="42" fill="white"/>
</clipPath>
</defs>
</svg>
