<svg width="18" height="24" viewBox="0 0 18 24" fill="none" xmlns="http://www.w3.org/2000/svg">
<g clip-path="url(#clip0)">
<path opacity="0.5" fill-rule="evenodd" clip-rule="evenodd" d="M2 22.8H16C16.4418 22.8 16.8 22.4418 16.8 22V4.82843C16.8 4.61625 16.7157 4.41277 16.5657 4.26274L13.7373 1.43431C13.5872 1.28429 13.3837 1.2 13.1716 1.2H2C1.55817 1.2 1.2 1.55817 1.2 2V22C1.2 22.4418 1.55817 22.8 2 22.8ZM2 0C0.895431 0 0 0.89543 0 2V22C0 23.1046 0.89543 24 2 24H16C17.1046 24 18 23.1046 18 22V4.82843C18 4.29799 17.7893 3.78929 17.4142 3.41421L14.5858 0.585786C14.2107 0.210714 13.702 0 13.1716 0H2Z" fill="#457EDB"/>
<path d="M0 11H18V20H0V11Z" fill="#457EDB"/>
<path d="M5.79077 14.3935C5.79077 14.979 5.59497 15.4278 5.20336 15.7397C4.81175 16.0517 4.25436 16.2077 3.53119 16.2077H2.93594V18.3057H2V12.6982H3.64867C4.36401 12.6982 4.89921 12.8414 5.25427 13.1278C5.61193 13.4142 5.79077 13.8361 5.79077 14.3935ZM2.93594 15.4367H3.43329C3.91366 15.4367 4.26611 15.3549 4.49063 15.1913C4.71515 15.0276 4.82741 14.7719 4.82741 14.4242C4.82741 14.102 4.7269 13.8616 4.52587 13.7031C4.32485 13.5446 4.01156 13.4653 3.58601 13.4653H2.93594V15.4367Z" fill="white"/>
<path d="M10.2355 16.783C10.2355 17.2816 10.0515 17.6728 9.68336 17.9566C9.31524 18.2405 8.80746 18.3824 8.16 18.3824C7.51254 18.3824 6.98256 18.2839 6.57007 18.0871V17.2202C6.83114 17.3404 7.10788 17.435 7.40028 17.5041C7.69529 17.5731 7.96942 17.6076 8.22266 17.6076C8.59338 17.6076 8.8662 17.5386 9.04112 17.4005C9.21865 17.2624 9.30741 17.077 9.30741 16.8444C9.30741 16.6347 9.22648 16.457 9.06462 16.3112C8.90275 16.1655 8.56858 15.9929 8.0621 15.7934C7.53995 15.5863 7.17184 15.3498 6.95776 15.0839C6.74368 14.818 6.63664 14.4983 6.63664 14.125C6.63664 13.6571 6.80634 13.2889 7.14573 13.0204C7.48513 12.7519 7.9407 12.6177 8.51245 12.6177C9.0607 12.6177 9.60634 12.7353 10.1494 12.9705L9.85175 13.7185C9.34266 13.5088 8.88839 13.4039 8.48895 13.4039C8.18611 13.4039 7.95636 13.4691 7.79972 13.5996C7.64308 13.7274 7.56476 13.8974 7.56476 14.1097C7.56476 14.2554 7.59608 14.3807 7.65874 14.4855C7.7214 14.5878 7.82452 14.685 7.96811 14.777C8.1117 14.8691 8.37016 14.9906 8.7435 15.1414C9.16382 15.3127 9.47189 15.4725 9.66769 15.6208C9.8635 15.7692 10.0071 15.9366 10.0985 16.1233C10.1898 16.31 10.2355 16.5299 10.2355 16.783Z" fill="white"/>
<path d="M16 15.4483C16 16.3739 15.7376 17.0822 15.2129 17.5731C14.6881 18.0615 13.9323 18.3057 12.9455 18.3057H11.3438V12.6982H13.1138C14.025 12.6982 14.7338 12.9386 15.2403 13.4193C15.7468 13.9 16 14.5763 16 15.4483ZM15.0131 15.4789C15.0131 14.1365 14.3722 13.4653 13.0903 13.4653H12.2797V17.5347H12.9455C14.3239 17.5347 15.0131 16.8495 15.0131 15.4789Z" fill="white"/>
</g>
<defs>
<clipPath id="clip0">
<rect width="18" height="24" fill="white"/>
</clipPath>
</defs>
</svg>
