<svg width="18" height="24" viewBox="0 0 18 24" fill="none" xmlns="http://www.w3.org/2000/svg">
<g clip-path="url(#clip0)">
<path opacity="0.5" fill-rule="evenodd" clip-rule="evenodd" d="M2 22.8H16C16.4418 22.8 16.8 22.4418 16.8 22V4.82843C16.8 4.61625 16.7157 4.41277 16.5657 4.26274L13.7373 1.43431C13.5872 1.28429 13.3837 1.2 13.1716 1.2H2C1.55817 1.2 1.2 1.55817 1.2 2V22C1.2 22.4418 1.55817 22.8 2 22.8ZM2 0C0.895431 0 0 0.89543 0 2V22C0 23.1046 0.89543 24 2 24H16C17.1046 24 18 23.1046 18 22V4.82843C18 4.29799 17.7893 3.78929 17.4142 3.41421L14.5858 0.585786C14.2107 0.210714 13.702 0 13.1716 0H2Z" fill="#009900"/>
<rect x="4" y="2.30322" width="2.87879" height="1.15152" fill="#009900"/>
<rect x="4" width="2.87879" height="1.15152" fill="#009900"/>
<rect x="4" y="6.90918" width="2.87879" height="1.15152" fill="#009900"/>
<rect x="5.72729" y="3.45459" width="2.87879" height="1.15152" fill="#009900"/>
<rect x="5.72729" y="1.15137" width="2.87879" height="1.15152" fill="#009900"/>
<rect x="5.72729" y="8.06055" width="2.87879" height="1.15152" fill="#009900"/>
<rect x="4" y="4.60596" width="2.87879" height="1.15152" fill="#009900"/>
<rect x="4" y="9.21191" width="2.87879" height="1.15152" fill="#009900"/>
<rect x="5.72729" y="5.75781" width="2.87879" height="1.15152" fill="#009900"/>
<rect x="5.72729" y="10.3638" width="2.87879" height="1.15152" fill="#009900"/>
<path fill-rule="evenodd" clip-rule="evenodd" d="M5 12.0908C4.44772 12.0908 4 12.5385 4 13.0908L4 16.1211H4.57576L4.57576 14.3939C4.57576 13.44 5.34908 12.6667 6.30303 12.6667C7.25698 12.6667 8.0303 13.44 8.0303 14.3939V16.1211H8.60606V13.0908C8.60606 12.5385 8.15835 12.0908 7.60606 12.0908H5Z" fill="#009900"/>
<path fill-rule="evenodd" clip-rule="evenodd" d="M6.15149 13.2422C5.5992 13.2422 5.15149 13.6899 5.15149 14.2422L5.15149 17.9998C5.15149 18.552 5.5992 18.9998 6.15149 18.9998H6.45452C7.0068 18.9998 7.45452 18.552 7.45452 17.9998L7.45452 14.2422C7.45452 13.6899 7.0068 13.2422 6.45452 13.2422H6.15149ZM6.87879 17.2727H5.72727V18.4242H6.87879V17.2727Z" fill="#009900"/>
</g>
<defs>
<clipPath id="clip0">
<rect width="18" height="24" fill="white"/>
</clipPath>
</defs>
</svg>
