<svg width="32" height="42" viewBox="0 0 32 42" fill="none" xmlns="http://www.w3.org/2000/svg">
<g clip-path="url(#clip0)">
<path opacity="0.5" fill-rule="evenodd" clip-rule="evenodd" d="M0 4C0 1.79086 1.79086 0 4 0H20.6716C21.202 0 21.7107 0.210714 22.0858 0.585786L31.4142 9.91421C31.7893 10.2893 32 10.798 32 11.3284V38C32 40.2091 30.2091 42 28 42H4C1.79086 42 0 40.2091 0 38V4ZM28 41.2H4C2.23269 41.2 0.8 39.7673 0.8 38V4C0.8 2.23269 2.23269 0.8 4 0.8H20.6716C20.7893 0.8 20.9053 0.817307 21.0161 0.850512C21.0057 0.886309 21 0.924829 21 0.965682V6C21 8.76142 23.2386 11 26 11H31.0343C31.0752 11 31.1137 10.9943 31.1495 10.9839C31.1827 11.0947 31.2 11.2107 31.2 11.3284V38C31.2 39.7673 29.7673 41.2 28 41.2ZM21.8 1.33894L30.6406 10.2H26C23.6804 10.2 21.8 8.31959 21.8 6V1.33894Z" fill="#F15B5B"/>
<path d="M6 28.1836H25.5918V37H6V28.1836Z" fill="#F15B5B"/>
<path d="M8.9388 35.5303C8.66853 35.5303 8.44897 35.311 8.44897 35.0407V30.1427C8.44897 29.8722 8.66853 29.6528 8.9388 29.6528C9.20929 29.6528 9.42863 29.8722 9.42863 30.1427V35.0407C9.42863 35.311 9.20929 35.5303 8.9388 35.5303Z" fill="white"/>
<path d="M22.6531 30.6325H19.7143C19.444 30.6325 19.2245 30.4129 19.2245 30.1427C19.2245 29.8722 19.444 29.6528 19.7143 29.6528H22.6531C22.9235 29.6528 23.1429 29.8722 23.1429 30.1427C23.1429 30.4129 22.9235 30.6325 22.6531 30.6325Z" fill="white"/>
<path d="M22.6531 33.0817H19.7143C19.444 33.0817 19.2245 32.8624 19.2245 32.5919C19.2245 32.3216 19.444 32.1021 19.7143 32.1021H22.6531C22.9235 32.1021 23.1429 32.3216 23.1429 32.5919C23.1429 32.8624 22.9235 33.0817 22.6531 33.0817Z" fill="white"/>
<path d="M19.7143 35.5303C19.444 35.5303 19.2245 35.311 19.2245 35.0407V30.1427C19.2245 29.8722 19.444 29.6528 19.7143 29.6528C19.9848 29.6528 20.2041 29.8722 20.2041 30.1427V35.0407C20.2041 35.311 19.9848 35.5303 19.7143 35.5303Z" fill="white"/>
<path d="M15.4436 13.8704C15.3957 13.886 14.7947 14.7172 15.4907 15.4205C15.9541 14.4012 15.4649 13.8639 15.4436 13.8704ZM15.7401 17.9499C15.3908 19.1426 14.93 20.4302 14.4347 21.5958C15.4545 21.205 16.564 20.8637 17.6052 20.6222C16.9465 19.8665 16.288 18.9226 15.7401 17.9499ZM19.3861 21.1222C19.7838 21.4244 19.8807 21.5772 20.1414 21.5772C20.2554 21.5772 20.5812 21.5724 20.7316 21.3648C20.8046 21.2638 20.833 21.1992 20.8437 21.1654C20.784 21.1335 20.7041 21.0704 20.2702 21.0704C20.0233 21.0704 19.7138 21.0811 19.3861 21.1222V21.1222ZM12.7303 23.264C11.6869 23.8425 11.2619 24.3183 11.2316 24.5866C11.2266 24.6312 11.2134 24.7478 11.4416 24.9201C11.5146 24.8972 11.9392 24.706 12.7303 23.264ZM11.4307 25.7346C11.2608 25.7346 11.0978 25.6802 10.9587 25.5775C10.4507 25.2004 10.3822 24.7814 10.4145 24.496C10.5031 23.7118 11.4856 22.89 13.3356 22.0529C14.0697 20.464 14.7683 18.5062 15.1846 16.8707C14.6978 15.8237 14.2241 14.4654 14.5689 13.6684C14.6898 13.3893 14.8413 13.1749 15.1224 13.0821C15.234 13.0459 15.5152 13 15.6185 13C15.8747 13 16.1207 13.3056 16.2391 13.5043C16.4595 13.8732 16.4606 14.3028 16.4257 14.7172C16.3919 15.1197 16.3234 15.52 16.2445 15.9158C16.1868 16.2066 16.1216 16.4962 16.052 16.7847C16.7098 18.1261 17.6414 19.4932 18.5347 20.4291C19.175 20.3151 19.7255 20.2572 20.1741 20.2572C20.9377 20.2572 21.4015 20.433 21.5901 20.795C21.747 21.0947 21.6822 21.4456 21.3996 21.8364C21.1278 22.212 20.7537 22.4103 20.3163 22.4103C19.722 22.4103 19.0315 22.0401 18.2606 21.3089C16.8758 21.5949 15.259 22.1047 13.9518 22.6691C13.5437 23.5241 13.1529 24.2129 12.7886 24.7183C12.2895 25.4119 11.8579 25.7346 11.4307 25.7346" fill="#F15B5B"/>
<path d="M10.4083 33.5712H8.9388C8.66853 33.5712 8.44897 33.3519 8.44897 33.0814V30.1427C8.44897 29.8722 8.66853 29.6528 8.9388 29.6528H10.4083C11.4887 29.6528 12.3674 30.5315 12.3674 31.6121C12.3674 32.6926 11.4887 33.5712 10.4083 33.5712V33.5712ZM9.42863 32.5916H10.4083C10.9484 32.5916 11.3877 32.1522 11.3877 31.6121C11.3877 31.0718 10.9484 30.6325 10.4083 30.6325H9.42863V32.5916Z" fill="white"/>
<path d="M14.8164 35.5303H14.3266C14.0561 35.5303 13.8368 35.311 13.8368 35.0407V30.1427C13.8368 29.8722 14.0561 29.6528 14.3266 29.6528H14.8164C16.4366 29.6528 17.7552 30.9708 17.7552 32.5916C17.7552 34.2123 16.4366 35.5303 14.8164 35.5303ZM14.8164 34.5509H14.8212H14.8164ZM14.8164 30.6325V34.5509C15.8969 34.5509 16.7755 33.672 16.7755 32.5916C16.7755 31.5111 15.8969 30.6325 14.8164 30.6325Z" fill="white"/>
</g>
<defs>
<clipPath id="clip0">
<rect width="32" height="42" fill="white"/>
</clipPath>
</defs>
</svg>
