<svg xmlns="http://www.w3.org/2000/svg" width="20" height="20" fill="none">
	<path d="M3.448 18.787c.26 0 .593-.062 1-.185s.85-.288 1.326-.495.954-.443 1.432-.7a14.04 14.04 0 0 0 1.317-.831c.1-.063.172-.106.246-.13s.147-.034.22-.034l.157.004.13.004c1.22 0 2.372-.126 3.456-.38s2.07-.616 2.956-1.09a9.01 9.01 0 0 0 2.296-1.722c.644-.674 1.14-1.432 1.49-2.273S20 9.195 20 8.213a6.81 6.81 0 0 0-.775-3.199 8.42 8.42 0 0 0-2.143-2.613c-.912-.752-1.974-1.34-3.185-1.765s-2.512-.637-3.9-.637c-1.384 0-2.68.212-3.892.637S3.83 1.65 2.914 2.402 1.285 4.025.77 5.015A6.84 6.84 0 0 0 0 8.213c0 .924.174 1.812.52 2.665a7.67 7.67 0 0 0 1.516 2.346c.664.712 1.467 1.33 2.4 1.85.085.052.138.1.16.177s.01.145-.034.237c-.17.287-.36.574-.572.86l-.614.792-.466.585c-.21.258-.26.5-.157.723s.332.336.682.336h0z" fill="#333"/>
</svg>
