<svg xmlns="http://www.w3.org/2000/svg" width="20" height="20" fill="none">
	<path d="M1.686 16.096h15.236c.524 0 .938-.133 1.24-.4a1.33 1.33 0 0 0 .454-1.05c0-.34-.085-.663-.256-.966s-.4-.596-.658-.878l-.838-.813c-.234-.21-.414-.49-.54-.84a6.26 6.26 0 0 1-.289-1.176l-.185-1.33c-.063-1.1-.232-2.07-.507-2.94s-.67-1.606-1.184-2.207-1.173-1.044-1.974-1.33c-.202-.62-.56-1.135-1.07-1.547S10 0 9.3 0c-.694 0-1.296.206-1.804.618A3.31 3.31 0 0 0 6.42 2.165c-.795.285-1.452.728-1.97 1.33S3.54 4.83 3.267 5.7s-.442 1.85-.51 2.94l-.18 1.33c-.07.434-.166.826-.29 1.176s-.305.63-.544.84l-.83.813a4.41 4.41 0 0 0-.658.878c-.17.304-.256.626-.256.966a1.33 1.33 0 0 0 .455 1.05c.303.266.713.4 1.23.4h0zM9.3 20c.58 0 1.1-.12 1.558-.358s.822-.555 1.094-.948a2.68 2.68 0 0 0 .473-1.287h-6.24c.038.465.196.894.473 1.287s.644.71 1.098.948S8.725 20 9.3 20h0z" fill="#333"/>
</svg>
