<svg width="22" height="22" viewBox="0 0 22 22" fill="none" xmlns="http://www.w3.org/2000/svg">
<path fill-rule="evenodd" clip-rule="evenodd" d="M9.25618 5.65292C12.3563 2.17009 17.254 -0.0750888 21.5486 0.00192032C21.7933 0.00833775 21.9904 0.205444 21.9968 0.449307C22.0967 4.7389 19.8335 9.6354 16.3474 12.7423C16.2915 15.7054 15.077 18.5905 12.9824 20.6853C12.8907 20.776 12.7578 20.8329 12.6276 20.8329C12.5827 20.8329 12.5387 20.8265 12.4966 20.8127C12.3325 20.7577 12.1968 20.6312 12.1721 20.4588L11.6661 16.9256L11.1775 17.362C11.0904 17.4399 10.9813 17.4784 10.8722 17.4784C10.754 17.4784 10.6367 17.4335 10.5477 17.3446L4.65638 11.4524C4.48405 11.2801 4.4758 11.0041 4.63805 10.8226L5.07438 10.334L1.54158 9.82792C1.36924 9.80317 1.22625 9.68307 1.17125 9.51713C1.11716 9.35211 1.16116 9.16967 1.28491 9.04774C3.40881 6.92357 6.29353 5.70885 9.25618 5.65292ZM15.704 8.58569C16.2915 8.58569 16.8782 8.36199 17.3246 7.91553C18.2183 7.02259 18.2183 5.56766 17.3246 4.67381C16.4309 3.77995 14.977 3.77995 14.0833 4.67381C13.1905 5.56766 13.1905 7.02167 14.0833 7.91553C14.5297 8.36199 15.1164 8.58569 15.704 8.58569ZM0.0193002 21.4088C0.169614 20.9074 1.51603 16.4762 2.49674 15.4954C3.60118 14.3917 5.39762 14.3908 6.50297 15.4954C7.60742 16.6 7.60742 18.3976 6.50297 19.5021C5.52227 20.483 1.09166 21.8296 0.590311 21.9799C0.546316 21.9927 0.502322 21.9992 0.458328 21.9992C0.33826 21.9992 0.221858 21.9524 0.133869 21.8644C0.015634 21.7452 -0.029277 21.5702 0.0193002 21.4088Z" fill="#177DE6"/>
</svg>
