<svg width="24" height="24" viewBox="0 0 24 24" fill="none" xmlns="http://www.w3.org/2000/svg">
<g clip-path="url(#clip0)">
<path d="M9.00607 0V2.00206H11.0081V3.00306C11.7088 2.90298 12.3094 2.90298 13.0102 3.00306V2.00206H15.0122V0H9.00607Z" fill="#177DE6"/>
<path d="M18.8162 6.60674L19.5169 5.90604L20.3178 6.70687L21.7192 5.30543L18.7161 2.30237L17.3147 3.70381L18.1155 4.5046L17.2146 5.40552C12.4097 2.50254 6.20337 4.00407 3.40052 8.80897C0.597681 13.6139 2.09917 19.62 6.80398 22.523C11.5088 25.4259 17.7151 23.9244 20.518 19.1195C23.0205 15.0153 22.3198 9.81002 18.8162 6.60674ZM12.0093 20.9214C8.10529 20.9214 5.00214 17.8182 5.00214 13.9142C5.00214 10.0102 8.10529 6.90705 12.0093 6.90705V13.9142H19.0164C19.0164 17.8182 15.9132 20.9214 12.0093 20.9214Z" fill="#177DE6"/>
</g>
<defs>
<clipPath id="clip0">
<rect width="24" height="24" fill="white"/>
</clipPath>
</defs>
</svg>
