<svg xmlns="http://www.w3.org/2000/svg" width="20" height="20" fill="none">
<path d="M0 1.98c0 .27.094.503.282.698a.89.89 0 0 0 .659.291H3.45l1.284 9.06c.103.695.34 1.24.7 1.638s.896.596 1.575.596h9.944c.228 0 .43-.08.608-.243s.265-.378.265-.65c0-.265-.088-.478-.265-.64s-.38-.243-.608-.243H7.25c-.17 0-.3-.057-.415-.172s-.173-.27-.2-.464l-.128-.9h10.56c.685 0 1.212-.2 1.583-.596s.605-.95.702-1.656l.608-4.22.03-.194A1.62 1.62 0 0 0 20 4.083c0-.288-.093-.525-.278-.71s-.45-.278-.792-.278H5.417l-.128-.84c-.05-.412-.184-.724-.398-.936S4.316 1 3.808 1H.94a.89.89 0 0 0-.659.291C.094 1.486 0 1.716 0 1.98h0zm6.162 15.2c0 .3.07.574.214.82s.332.443.57.587.503.216.8.216a1.5 1.5 0 0 0 1.113-.472c.308-.315.462-.7.462-1.152 0-.3-.07-.574-.214-.82s-.332-.443-.57-.587a1.49 1.49 0 0 0-.792-.216c-.297 0-.563.072-.8.216s-.426.34-.57.587-.214.52-.214.82h0zm7.822 0c0 .3.07.574.214.82s.334.443.573.587.505.216.796.216c.44 0 .812-.157 1.117-.472s.458-.7.458-1.152a1.64 1.64 0 0 0-.21-.821 1.58 1.58 0 0 0-.569-.587c-.24-.144-.505-.216-.796-.216s-.556.072-.796.216-.43.34-.573.587-.214.52-.214.82h0z" fill="#333"/>
</svg>
