<svg width="17" height="17" viewBox="0 0 17 17" fill="none" xmlns="http://www.w3.org/2000/svg">
<path fill-rule="evenodd" clip-rule="evenodd" d="M12.375 12.375C15.0674 9.68261 15.0674 5.31738 12.375 2.62499C9.68263 -0.0674 5.3174 -0.0674 2.62501 2.62499C-0.0673848 5.31738 -0.0673848 9.68261 2.62501 12.375C5.3174 15.0674 9.68263 15.0674 12.375 12.375ZM11.3144 11.3143C13.421 9.20774 13.421 5.79226 11.3144 3.68565C9.20775 1.57905 5.79227 1.57905 3.68567 3.68565C1.57906 5.79226 1.57906 9.20774 3.68567 11.3143C5.79227 13.4209 9.20775 13.4209 11.3144 11.3143Z" fill="#8A8A8A"/>
<path d="M10.6253 12.7466L12.7467 10.6253L16.5156 14.3943C17.1014 14.9801 17.1014 15.9298 16.5156 16.5156C15.9298 17.1014 14.9801 17.1014 14.3943 16.5156L10.6253 12.7466Z" fill="#8A8A8A"/>
</svg>
