<svg xmlns="http://www.w3.org/2000/svg" width="50" height="50" fill="none"><g fill="#e3f1ff"><circle cx="24.5" cy="28.5" r="7.5"/><path d="M33.787 4L35 7.5 33.787 11H16V4l5-.5.5-2.5H25l4 .5.5 2 4.287.5z"/></g><path d="M14.941 15.364a.73.73 0 0 0-.732.732c0 .404.328.732.732.732h20.117c.404 0 .732-.328.732-.732s-.328-.732-.732-.732H14.941zm20.118 7.642c.404 0 .732-.328.732-.733a.73.73 0 0 0-.732-.732H29.12a8.12 8.12 0 0 0-4.259-1.2c-1.624 0-3.137.478-4.411 1.298h-5.51a.73.73 0 0 0-.732.732c0 .404.328.732.732.732h3.801a8.14 8.14 0 0 0-2.023 4.712H14.94a.73.73 0 0 0-.732.732c0 .404.328.733.732.733h1.783a8.15 8.15 0 0 0 2.12 4.761H14.94a.73.73 0 0 0-.732.732c0 .404.328.732.732.732h5.688a8.12 8.12 0 0 0 4.232 1.183c1.537 0 2.997-.422 4.25-1.183h5.947c.404 0 .732-.328.732-.732s-.328-.732-.732-.732H30.89c.505-.553.939-1.183 1.287-1.878.181-.362.034-.802-.328-.983s-.802-.034-.983.328c-1.145 2.292-3.446 3.716-6.006 3.716a6.72 6.72 0 0 1-6.709-6.709 6.72 6.72 0 0 1 6.709-6.709 6.72 6.72 0 0 1 6.709 6.709v.02c0 .417.328.745.732.745h2.755c.404 0 .732-.328.732-.732s-.328-.732-.732-.732h-2.055a8.14 8.14 0 0 0-2.109-4.809h4.164 0zm0 17.26H14.941a.73.73 0 1 0 0 1.465h20.117c.404 0 .732-.328.732-.732s-.328-.733-.732-.733zm5.819-36.042h-5.609c-.166-.713-.805-1.246-1.568-1.246h-3.575v-.161A2.82 2.82 0 0 0 27.309 0h-4.62a2.82 2.82 0 0 0-2.817 2.817v.161h-3.575c-.762 0-1.401.533-1.568 1.246H9.121A2.69 2.69 0 0 0 6.436 6.91v40.405A2.69 2.69 0 0 0 9.121 50h8.928a.73.73 0 0 0 .732-.732c0-.404-.328-.732-.732-.732H9.121A1.22 1.22 0 0 1 7.9 47.315V6.91a1.22 1.22 0 0 1 1.221-1.221h5.565v1.465h-4.1a1.22 1.22 0 0 0-1.221 1.221V45.85a1.22 1.22 0 0 0 1.221 1.221h28.827a1.22 1.22 0 0 0 1.221-1.221V8.374a1.22 1.22 0 0 0-1.221-1.221h-4.1V5.689h5.565a1.22 1.22 0 0 1 1.221 1.221v40.405a1.22 1.22 0 0 1-1.221 1.221H21.467c-.404 0-.732.328-.732.732s.328.732.732.732h19.411a2.69 2.69 0 0 0 2.686-2.685V6.91a2.69 2.69 0 0 0-2.686-2.686zm-24.727.366c0-.081.066-.146.146-.146h4.307c.404 0 .732-.328.732-.732v-.894c0-.746.607-1.352 1.352-1.352h4.62c.746 0 1.352.607 1.352 1.352v.894a.73.73 0 0 0 .732.732h4.307c.081 0 .146.066.146.146l-.004 5.819c-.005.094-.069.138-.142.138H16.298c-.081 0-.146-.066-.146-.146V4.59zm23.018 41.016H10.83V8.619h3.856v1.782c0 .889.723 1.611 1.611 1.611h17.404c.883 0 1.611-.72 1.611-1.611V8.619h3.856v36.987h0zM27.695 25.503l-4.51 4.34-1.009-2.04a.73.73 0 0 0-.981-.332c-.363.179-.511.619-.332.981l1.453 2.936c.219.442.806.547 1.164.203l5.231-5.034c.291-.28.3-.744.02-1.035s-.744-.3-1.036-.02z" fill="#333"/></svg>
