<svg xmlns="http://www.w3.org/2000/svg" xmlns:xlink="http://www.w3.org/1999/xlink" width="50" height="50" fill="none"><g clip-path="url(#A)"><g fill="#e3f1ff"><path d="M1 7h48v5H1z"/><circle cx="25" cy="25" r="8"/></g><g fill="#333"><path d="M41.065 42.919H1.905a.44.44 0 0 1-.44-.44V18.274c0-.405-.328-.733-.733-.733S0 17.87 0 18.274v24.205a1.91 1.91 0 0 0 1.905 1.905h39.16c.405 0 .733-.328.733-.733s-.328-.733-.733-.733zm7.03-37.303H1.905A1.91 1.91 0 0 0 0 7.521v7.334c0 .405.328.733.733.733s.733-.328.733-.733v-2.073h47.069v29.697a.44.44 0 0 1-.44.44h-3.611c-.405 0-.733.328-.733.733s.328.733.733.733h3.611A1.91 1.91 0 0 0 50 42.479V7.521a1.91 1.91 0 0 0-1.905-1.905zm-46.63 5.701V7.521a.44.44 0 0 1 .44-.44h46.19a.44.44 0 0 1 .44.44v3.796H1.465zm29.147-2.851H4.933c-.405 0-.733.328-.733.733s.328.733.733.733h25.679c.405 0 .733-.328.733-.733s-.328-.733-.733-.733z"/><use xlink:href="#B"/><path d="M42.294 8.466h-.331c-.405 0-.733.328-.733.733s.328.733.733.733h.331c.405 0 .733-.328.733-.733s-.328-.733-.733-.733zm-2.774 0h-.331c-.405 0-.733.328-.733.733s.328.733.733.733h.331c.405 0 .733-.328.733-.733s-.328-.733-.733-.733zM10.921 38.597a.73.73 0 0 0 1.001.268l1.163-.672v1.343c0 .405.328.733.733.733s.733-.328.733-.733v-1.343l1.163.672a.73.73 0 0 0 1.001-.268c.202-.35.082-.799-.268-1.001l-1.163-.672 1.163-.672c.35-.202.47-.65.268-1.001s-.651-.47-1.001-.268l-1.163.672v-1.343c0-.405-.328-.733-.733-.733s-.733.328-.733.733v1.343l-1.163-.672c-.35-.202-.799-.082-1.001.268s-.082.799.268 1.001l1.163.672-1.163.672c-.351.203-.47.651-.268 1.001zm13.249-3.344c-.202-.35-.65-.471-1.001-.268l-1.163.672v-1.343c0-.405-.328-.733-.733-.733s-.733.328-.733.733v1.343l-1.163-.672c-.35-.202-.799-.082-1.001.268s-.082.798.268 1.001l1.163.672-1.163.672c-.35.202-.471.65-.268 1.001a.73.73 0 0 0 1.001.268l1.163-.672v1.343c0 .405.328.733.733.733s.733-.328.733-.733v-1.343l1.163.672a.73.73 0 0 0 .366.098c.253 0 .499-.132.635-.366.202-.35.082-.798-.268-1.001l-1.163-.672 1.163-.672c.35-.202.47-.65.268-1.001zm7.455-.001c-.202-.35-.65-.47-1.001-.268l-1.163.672v-1.343c0-.405-.328-.733-.733-.733s-.733.328-.733.733v1.343l-1.163-.672c-.35-.202-.799-.082-1.001.268s-.082.798.268 1.001l1.163.672-1.163.672c-.35.202-.47.65-.268 1.001a.73.73 0 0 0 1.001.268l1.163-.672v1.343c0 .405.328.733.733.733s.733-.328.733-.733v-1.343l1.163.672a.73.73 0 0 0 1.001-.269c.202-.35.082-.799-.268-1.001l-1.163-.672 1.163-.672c.35-.202.471-.65.268-1.001zm4.558-1.672c-.405 0-.733.328-.733.733v1.343l-1.163-.672c-.351-.202-.799-.082-1.001.268s-.082.798.268 1.001l1.163.672-1.163.672c-.35.202-.47.65-.268 1.001a.73.73 0 0 0 1.001.268l1.163-.672v1.343c0 .405.328.733.733.733s.733-.328.733-.733v-1.343l1.163.672a.73.73 0 0 0 .366.098c.253 0 .499-.132.635-.367.202-.35.082-.798-.268-1.001l-1.163-.672 1.163-.672c.35-.202.471-.65.268-1.001s-.65-.47-1.001-.268l-1.163.672v-1.343c0-.405-.328-.733-.733-.733zm-11.32-18.148a8.9 8.9 0 0 0-6.248 2.665c-1.657 1.683-2.57 3.916-2.57 6.288a8.97 8.97 0 0 0 2.018 5.663c.213.26.529.409.868.409h12.135c.339 0 .655-.149.868-.409 1.302-1.591 2.018-3.602 2.018-5.663a8.89 8.89 0 0 0-2.67-6.379c-1.722-1.696-4.002-2.614-6.42-2.574zm.599 8.05c-.149.047-.303.071-.462.071-.85 0-1.542-.692-1.542-1.541s.692-1.541 1.542-1.541 1.541.691 1.541 1.541c0 .689-.454 1.274-1.079 1.47zm-1.145 1.457c.22.051.448.079.683.079a2.98 2.98 0 0 0 .685-.08 2.64 2.64 0 0 1 1.189.687 2.63 2.63 0 0 1 .776 1.873v1.493h-5.3v-1.493a2.66 2.66 0 0 1 1.967-2.559zm6.587 4.053h-1.789v-1.493c0-1.099-.428-2.132-1.205-2.909-.211-.211-.442-.396-.688-.554.487-.535.784-1.245.784-2.023A3.01 3.01 0 0 0 25 19.005a3.01 3.01 0 0 0-3.007 3.007c0 .779.298 1.489.786 2.024a4.13 4.13 0 0 0-1.894 3.463v1.493h-1.788a7.5 7.5 0 0 1-1.585-4.607c0-4.137 3.239-7.426 7.374-7.488 2.024-.03 3.93.734 5.37 2.153s2.233 3.313 2.233 5.335a7.5 7.5 0 0 1-1.585 4.607z"/></g></g><defs><clipPath id="A"><path fill="#fff" d="M0 0h50v50H0z"/></clipPath><path id="B" d="M45.067 8.466h-.331c-.405 0-.733.328-.733.733s.328.733.733.733h.331c.405 0 .733-.328.733-.733s-.328-.733-.733-.733z"/></defs></svg>
