<svg xmlns="http://www.w3.org/2000/svg" width="110" height="82" fill="none"><path fill-rule="evenodd" d="M87.603 40.409c0 18.225-14.775 33-33 33s-33-14.775-33-33 14.775-33 33-33 33 14.775 33 33zm3 0c0 19.882-16.118 36-36 36s-36-16.118-36-36 16.118-36 36-36 36 16.118 36 36zm-40.738 7.739c.662.662 1.683.744 2.435.248l.039-.027a1.95 1.95 0 0 0 .264-.221l.014-.014 13.418-13.418c.756-.756.756-1.982 0-2.738s-1.982-.756-2.738 0L51.234 44.04l-5.326-5.326c-.756-.756-1.982-.756-2.738 0s-.756 1.982 0 2.738l6.662 6.662.033.034z" fill="#090"/></svg>