<svg xmlns="http://www.w3.org/2000/svg" width="468" height="468" fill="none"><g clip-path="url(#a)"><path fill="#E7F3FF" fill-rule="evenodd" d="M48.779 331.657A250.158 250.158 0 0 1-2.572 154.881 250.122 250.122 0 0 1 80.931-9.163 249.93 249.93 0 0 1 254.043-71.59 249.94 249.94 0 0 1 422.965 1.425a250.103 250.103 0 0 1 73.216 169.035A250.12 250.12 0 0 1 433.8 343.789a249.926 249.926 0 0 1-164.12 83.549 249.887 249.887 0 0 1-176.784-51.577l-1.343 1.406-132.54 132.624a31.253 31.253 0 0 1-44.211 0 31.267 31.267 0 0 1-9.157-22.114 31.282 31.282 0 0 1 9.157-22.114L47.372 332.97c.457-.451.926-.888 1.407-1.313Zm64.864-286.003a187.545 187.545 0 0 0-41.28 60.862 187.607 187.607 0 0 0-.588 144.243 187.536 187.536 0 0 0 40.784 61.196 187.45 187.45 0 0 0 61.172 40.8 187.386 187.386 0 0 0 144.185-.587 187.462 187.462 0 0 0 60.838-41.297 187.585 187.585 0 0 0 53.832-132.292 187.583 187.583 0 0 0-54.907-131.85A187.43 187.43 0 0 0 245.882-8.198a187.429 187.429 0 0 0-132.239 53.853Z" clip-rule="evenodd"/><g clip-path="url(#b)"><path fill="#E3E3E3" d="M149.749 264.133c-6.022-4.212-7.489-12.509-3.277-18.53l38.191-54.587 21.807 15.254-38.191 54.586c-4.212 6.022-12.508 7.489-18.53 3.277Z"/><path fill="#B9B9B9" d="m200.199 210.847-16.455-11.521c-6.003-4.204-7.463-12.478-3.259-18.482l15.313-21.868 38.195 26.744-15.313 21.869c-4.203 6.003-12.478 7.462-18.481 3.258Z"/><path fill="#E3E3E3" d="M310.064 167.281c-15.416 22.015-40.315 33.445-65.312 32.627-14.353-.46-28.743-4.963-41.385-13.815-34.657-24.271-43.083-72.039-18.812-106.696 13.071-18.671 32.963-29.725 53.947-32.162 17.977-2.088 36.758 2.15 52.749 13.35 34.657 24.266 43.079 72.034 18.813 106.696Z"/><path fill="#F1F4F9" d="M293.693 155.815c-14.332 20.472-39.758 28.562-62.472 21.83a56.5 56.5 0 0 1-16.393-7.923c-25.615-17.936-31.843-53.244-13.902-78.864 6.325-9.037 14.814-15.659 24.28-19.657 17.361-7.343 38.001-5.857 54.58 5.754 25.62 17.937 31.844 53.245 13.907 78.86Z"/><path fill="#FFB5BE" d="M212.117 136.301c7.172 0 12.985-4.63 12.985-10.341 0-5.711-5.813-10.34-12.985-10.34-7.171 0-12.984 4.629-12.984 10.34s5.813 10.341 12.984 10.341ZM282.499 136.301c7.171 0 12.985-4.63 12.985-10.341 0-5.711-5.814-10.34-12.985-10.34-7.171 0-12.985 4.629-12.985 10.34s5.814 10.341 12.985 10.341Z"/><path stroke="#82858E" stroke-linecap="round" stroke-linejoin="round" stroke-miterlimit="10" stroke-width="1.5" d="m180.087 243.982-11.806 16.875c-4.211 6.02-12.509 7.489-18.529 3.278-6.021-4.216-7.489-12.509-3.278-18.534l34.055-48.675M202.04 212.603l-13.075 18.688M201.65 213.242l-22.646 32.35M225.991 197.152l-7.306 10.434c-4.206 6.007-12.478 7.467-18.485 3.26l-16.455-11.523c-6.002-4.202-7.462-12.474-3.255-18.481l6.728-9.609"/><path stroke="#82858E" stroke-linecap="round" stroke-linejoin="round" stroke-miterlimit="10" stroke-width="1.5" d="M320.989 102.341c6.091 21.414 2.84 45.282-10.921 64.94-24.271 34.657-72.039 43.079-106.696 18.812-34.662-24.271-43.084-72.039-18.817-106.696 24.271-34.662 72.039-43.084 106.696-18.813 10.435 7.303 18.49 16.739 23.988 27.306"/><path stroke="#82858E" stroke-linecap="round" stroke-linejoin="round" stroke-miterlimit="10" stroke-width="1.5" d="M323.913 122.126c.341 22.26-8.977 44.474-27.357 59.9-32.414 27.194-80.734 22.966-107.929-9.443-27.199-32.416-22.971-80.736 9.439-107.931 32.415-27.199 80.735-22.97 107.929 9.443 8.189 9.755 13.528 20.953 16.104 32.584"/><path stroke="#82858E" stroke-linecap="round" stroke-linejoin="round" stroke-miterlimit="10" stroke-width="1.5" d="M196.808 148.972c4.069 8.038 10.125 15.221 18.025 20.75 25.616 17.937 60.927 11.714 78.864-13.907 17.937-25.615 11.709-60.923-13.907-78.86-25.616-17.936-60.928-11.713-78.864 13.903-9.179 13.111-12.032 28.761-9.196 43.318"/><path stroke="#82858E" stroke-linecap="round" stroke-linejoin="round" stroke-miterlimit="10" stroke-width="1.5" d="M191.894 135.028c1.85 8.817 5.84 17.323 12.04 24.708 20.101 23.956 55.82 27.083 79.777 6.979 23.955-20.101 27.078-55.817 6.977-79.773-20.1-23.955-55.82-27.083-79.775-6.982-12.259 10.288-19.066 24.666-20.095 39.462"/><path stroke="#82858E" stroke-linecap="round" stroke-linejoin="round" stroke-miterlimit="10" stroke-width="1.5" d="M259.029 128.752c-2.849-4.095-7.04-6.687-11.718-6.687-4.677 0-8.868 2.592-11.717 6.687M211.187 113.352a9.971 9.971 0 0 0 7.537 3.434 9.971 9.971 0 0 0 7.537-3.434M283.435 113.352a9.968 9.968 0 0 1-7.537 3.434 9.971 9.971 0 0 1-7.537-3.434"/></g></g><defs><clipPath id="a"><path fill="#fff" d="M0 0h468v468H0z"/></clipPath><clipPath id="b"><path fill="#fff" d="M120.774 43.403h226.452v226.452H120.774z"/></clipPath></defs></svg>