<svg width="24" height="11" viewBox="0 0 24 11" fill="none" xmlns="http://www.w3.org/2000/svg">
<path fill-rule="evenodd" clip-rule="evenodd" d="M6.5 11C8.28673 11 9.90508 10.39 11.0801 9.40269C11.592 8.97253 12.408 8.97253 12.9199 9.4027C14.0949 10.39 15.7133 11 17.5 11C21.0899 11 24 8.53757 24 5.5C24 5.33619 23.9915 5.17405 23.975 5.01388C23.9742 5.00646 23.98 5 23.9875 5C23.9944 5 24 4.99438 24 4.98745V2C24 0.895431 23.1046 0 22 0H17.5H6.5H2C0.895431 0 0 0.89543 0 2V4.98745C0 4.99438 0.00561684 5 0.0125456 5C0.02 5 0.0258086 5.00646 0.0250412 5.01388C0.00846367 5.17405 0 5.33619 0 5.5C0 8.53757 2.91015 11 6.5 11ZM11 5C11 6.10457 9.433 7 7.5 7C5.567 7 4 6.10457 4 5C4 3.89543 5.567 3 7.5 3C9.433 3 11 3.89543 11 5ZM16.5 7C18.433 7 20 6.10457 20 5C20 3.89543 18.433 3 16.5 3C14.567 3 13 3.89543 13 5C13 6.10457 14.567 7 16.5 7Z" fill="#177DE6"/>
</svg>
