<svg width="88" height="88" viewBox="0 0 88 88" fill="none" xmlns="http://www.w3.org/2000/svg">
	<path d="M34.0845 46.2546L39.4901 51.6732L53.8024 37.3267" stroke="#457EDB" stroke-width="4" stroke-linecap="round" stroke-linejoin="round"/>
	<path fill-rule="evenodd" clip-rule="evenodd" d="M43.761 7L43.7827 7.00004L43.8045 7C46.7313 7 49.1124 9.36652 49.1124 12.2753C49.1124 13.3179 48.8052 14.29 48.2779 15.1094C59.596 17.2032 68.1921 27.0907 68.1921 38.9374V55.4135C68.1921 57.4906 69.0827 59.4911 70.6357 60.9021C72.0002 62.1416 72.7827 63.9059 72.7827 65.7424C72.7827 69.3587 69.8225 72.3008 66.184 72.3008H52.8729C52.182 76.6574 48.379 80 43.8045 80H43.761C39.1864 80 35.3834 76.6574 34.6925 72.3008H21.3814C17.7429 72.3008 14.7827 69.3587 14.7827 65.7424C14.7827 63.9059 15.5653 62.1416 16.9297 60.9021C18.4828 59.4911 19.3733 57.4906 19.3733 55.4135V38.9374C19.3733 27.0907 27.9694 17.2032 39.2876 15.1094C38.7602 14.29 38.4531 13.3179 38.4531 12.2753C38.4531 9.36652 40.8342 7 43.761 7ZM43.7827 77.1484L43.8045 77.1484C46.7914 77.1484 49.2986 75.0751 49.9501 72.3008H37.6153C38.2669 75.0751 40.7741 77.1484 43.761 77.1484L43.7827 77.1484ZM66.184 69.4493C68.2404 69.4493 69.9136 67.7865 69.9136 65.7426C69.9136 64.7048 69.4713 63.7077 68.6999 63.0068C66.5538 61.0569 65.323 58.2893 65.323 55.4135V38.9374C65.323 27.1448 55.6698 17.5507 43.8045 17.5507L43.7827 17.5507L43.761 17.5507C31.8957 17.5507 22.2425 27.1448 22.2425 38.9374V55.4135C22.2425 58.2893 21.0116 61.0569 18.8655 63.0068C18.0941 63.7077 17.6518 64.7048 17.6518 65.7426C17.6518 67.7865 19.325 69.4493 21.3814 69.4493H66.184ZM43.7827 14.6989L43.8045 14.6989C45.1492 14.6989 46.2432 13.6116 46.2432 12.2751C46.2432 10.9387 45.1492 9.85143 43.8045 9.85143L43.7827 9.85152L43.761 9.85143C42.4162 9.85143 41.3222 10.9387 41.3222 12.2751C41.3222 13.6116 42.4162 14.6989 43.761 14.6989L43.7827 14.6989Z" fill="#333333"/>
</svg>
