<svg width="88" height="88" viewBox="0 0 88 88" fill="none" xmlns="http://www.w3.org/2000/svg">
	<path d="M22.0623 41.1377C21.5832 42.4154 21.9573 43.8567 22.9981 44.7396C24.97 46.7129 29.0254 53.8363 31.0328 58.856C32.4027 62.2796 35.4107 65.6399 37.6928 67.8567C38.675 68.8233 39.2263 70.1445 39.2235 71.5229V71.9008C39.2235 73.6126 40.6109 75 42.3227 75H58.8508C60.5626 75 61.95 73.6126 61.95 71.9008V68.7273C61.9406 68.4648 62.0403 68.21 62.2257 68.0241C66.0385 64.5376 66.082 58.7174 66.082 58.4715V42.118C66.1203 39.9058 64.4525 38.0356 62.2508 37.8219C61.4232 37.7675 60.5985 37.9637 59.884 38.3846V36.7782C59.8925 35.2896 59.0953 33.913 57.7996 33.1796C56.5044 32.4462 54.9136 32.4708 53.6416 33.2444C53.5091 31.8508 52.6722 30.6223 51.4242 29.9891C50.1758 29.3559 48.6905 29.4056 47.4875 30.1215V28.4106C50.0515 26.9556 51.6309 24.2309 51.62 21.2829C51.62 16.7187 47.9197 13.0189 43.3555 13.0189C38.7913 13.0189 35.0915 16.7187 35.0915 21.2829C35.0806 24.2309 36.66 26.9556 39.2235 28.4106V45.0422C39.2528 46.2618 39.0868 47.4776 38.7317 48.6446C38.621 48.9893 38.3387 49.2523 37.9869 49.3388C37.6559 49.4225 37.305 49.3303 37.0572 49.0948C36.2505 48.3254 35.5336 47.4667 34.9212 46.5351C33.1286 43.8534 28.6178 38.8442 25.7942 38.8442C24.2082 38.8111 22.7494 39.7077 22.0623 41.1377ZM37.1575 21.2829C37.1575 17.8598 39.9323 15.0849 43.3555 15.0849C46.7787 15.0849 49.5535 17.8598 49.5535 21.2829C49.5634 23.0506 48.8106 24.7364 47.4875 25.9091V21.2829C47.4875 19.0008 45.6376 17.1509 43.3555 17.1509C41.0734 17.1509 39.2235 19.0008 39.2235 21.2829V25.9091C37.9009 24.7364 37.1476 23.0506 37.1575 21.2829ZM33.199 47.6818C33.8994 48.7439 34.7184 49.7228 35.64 50.6C36.3999 51.3187 37.4748 51.5992 38.4891 51.3429C39.5228 51.0851 40.3527 50.3162 40.6894 49.3057C41.1169 47.9258 41.3198 46.4864 41.2895 45.0422V21.2829C41.2895 20.1419 42.2144 19.2169 43.3555 19.2169C44.4966 19.2169 45.4215 20.1419 45.4215 21.2829V42.9762C45.4215 43.547 45.884 44.0095 46.4547 44.0095C47.025 44.0095 47.4875 43.547 47.4875 42.9762V33.6794C47.4875 32.5384 48.4129 31.6134 49.5535 31.6134C50.6946 31.6134 51.62 32.5384 51.62 33.6794V42.9762C51.62 43.547 52.0825 44.0095 52.6528 44.0095C53.2235 44.0095 53.686 43.547 53.686 42.9762V36.7782C53.686 35.6372 54.611 34.7122 55.752 34.7122C56.8931 34.7122 57.818 35.6372 57.818 36.7782V44.0095C57.818 44.5798 58.2805 45.0422 58.8508 45.0422C59.4215 45.0422 59.884 44.5798 59.884 44.0095V41.9435C59.8826 41.3954 60.1011 40.8696 60.4903 40.4837C60.9163 40.0614 61.5032 39.8425 62.1018 39.8827C63.2178 40.0283 64.0435 40.993 64.016 42.118V58.4715C64.016 58.5221 63.9635 63.6368 60.8302 66.5005C60.2179 67.0779 59.8746 67.8856 59.884 68.7273V71.9008C59.884 72.4715 59.4215 72.934 58.8508 72.934H42.3227C41.752 72.934 41.2895 72.4715 41.2895 71.9008V71.5229C41.2909 69.5865 40.513 67.7309 39.1318 66.3742C37.3816 64.6752 34.2517 61.3371 32.9522 58.0875C30.8261 52.7757 26.6199 45.4399 24.4588 43.2789C23.967 42.7876 23.8025 42.3326 23.9699 41.9279C24.3444 41.2791 25.0452 40.888 25.7942 40.9102C27.1982 40.9102 31.0049 44.3906 33.199 47.6818Z" fill="#333333"/>
	<path d="M60.9168 57.4387C61.4876 57.4387 61.95 56.9762 61.95 56.4055V50.2074C61.95 49.6372 61.4876 49.1747 60.9168 49.1747C60.3465 49.1747 59.884 49.6372 59.884 50.2074V56.4055C59.884 56.9762 60.3465 57.4387 60.9168 57.4387Z" fill="#457EDB"/>
	<path d="M59.884 63.6368C60.1578 63.6368 60.4207 63.5281 60.6141 63.3342C61.4 62.6069 61.8781 61.6063 61.95 60.5376C61.949 59.9796 61.4998 59.5261 60.9418 59.5195C60.3776 59.5086 59.9081 59.9503 59.884 60.5139C59.8064 61.0384 59.5482 61.5193 59.1534 61.8735C58.8583 62.169 58.7699 62.613 58.9297 62.9989C59.0895 63.3853 59.4659 63.6368 59.884 63.6368Z" fill="#457EDB"/>
	<path d="M44.3887 70.868H45.4215C45.9922 70.868 46.4547 70.4055 46.4547 69.8348C46.4547 69.2645 45.9922 68.802 45.4215 68.802H44.3887C43.8179 68.802 43.3555 69.2645 43.3555 69.8348C43.3555 70.4055 43.8179 70.868 44.3887 70.868Z" fill="#457EDB"/>
	<path d="M49.5535 70.868H56.7848C57.3555 70.868 57.818 70.4055 57.818 69.8348C57.818 69.2645 57.3555 68.802 56.7848 68.802H49.5535C48.9832 68.802 48.5208 69.2645 48.5208 69.8348C48.5208 70.4055 48.9832 70.868 49.5535 70.868Z" fill="#457EDB"/>
	<path d="M35.0914 30.104C35.5037 30.104 35.8764 29.8596 36.04 29.4813C36.2036 29.103 36.127 28.6637 35.8447 28.3634C32.2655 24.5804 32.0711 18.7219 35.3921 14.71C35.6376 14.4267 35.7104 14.0328 35.5827 13.6805C35.4546 13.3282 35.1458 13.0729 34.7755 13.0133C34.4052 12.9537 34.0321 13.0993 33.8 13.3939C29.8164 18.2078 30.0472 25.2367 34.3386 29.7787C34.5339 29.9863 34.8062 30.104 35.0914 30.104Z" fill="#457EDB"/>
	<path d="M52.997 27.3675C53.2405 27.4923 53.5242 27.5155 53.7848 27.4313C54.0458 27.3472 54.2624 27.1632 54.3872 26.9192C56.6457 22.5214 56.065 17.2006 52.9109 13.3939C52.6792 13.0993 52.3056 12.9537 51.9354 13.0133C51.5656 13.0729 51.2568 13.3282 51.1286 13.6805C51.0005 14.0328 51.0733 14.4267 51.3192 14.71C53.9475 17.8811 54.4312 22.3138 52.5496 25.9772C52.2891 26.4846 52.4896 27.1069 52.997 27.3675Z" fill="#457EDB"/>
</svg>
