<svg width="88" height="88" viewBox="0 0 88 88" fill="none" xmlns="http://www.w3.org/2000/svg">
	<g clip-path="url(#clip0)">
		<path d="M71.9964 49.3153H71.0536V40.958C71.0536 39.6349 70.3845 38.4634 69.3626 37.7517V36.6137C69.3626 34.9631 67.9981 33.6203 66.3209 33.6203H65.6169L68.3103 29.7308C69.2131 28.4271 68.8698 26.6435 67.5451 25.7549L49.2688 13.4978C48.6271 13.0673 47.8536 12.9084 47.0903 13.0509C46.3272 13.1932 45.6661 13.6194 45.2288 14.251L29.4541 37.0315H25.0644L26.1234 26.4806C26.1354 26.3617 26.2139 26.2586 26.3234 26.2181C27.6879 25.7118 28.8703 24.7663 29.6529 23.5558C29.7146 23.4605 29.8308 23.406 29.9512 23.418L36.8363 24.0874C37.3299 24.1345 37.7691 23.7807 37.8178 23.2951C37.8665 22.8095 37.5061 22.3771 37.0127 22.3292L30.1276 21.6597C29.3284 21.5827 28.5663 21.9452 28.1381 22.6073C27.5627 23.4973 26.6933 24.1924 25.6901 24.5647C24.9349 24.8449 24.4164 25.5123 24.3367 26.3068L23.2603 37.0314H22.1156L23.7905 20.3442C23.8508 19.7436 24.3955 19.3023 25.0065 19.3625L38.9199 20.7151C39.4134 20.762 39.8528 20.4084 39.9015 19.9228C39.9502 19.4372 39.5898 19.0048 39.0964 18.9568L25.183 17.6042C23.5878 17.4493 22.1613 18.6003 22.0037 20.1704L20.6536 33.6203H18.3545C16.6774 33.6203 15.3128 34.9631 15.3128 36.6137V37.3899C13.9407 38.0116 12.9854 39.3766 12.9854 40.958V71.0734C12.9854 73.2385 14.7752 75 16.9754 75H67.0637C69.2638 75 71.0536 73.2385 71.0536 71.0734V62.7162H71.9964C73.1093 62.7162 74.0145 61.8253 74.0145 60.7303V51.3013C74.0146 50.2062 73.1093 49.3153 71.9964 49.3153ZM66.3209 35.3873C67.0082 35.3872 67.5672 35.9374 67.5672 36.6139V37.064C67.4021 37.0434 67.2344 37.0316 67.0637 37.0316H63.2548L64.3933 35.3873H66.3209ZM46.7124 15.2459C46.8797 15.0043 47.1326 14.8413 47.4244 14.7868C47.4942 14.7739 47.5642 14.7673 47.6338 14.7673C47.8549 14.7673 48.0709 14.8325 48.2577 14.9577L66.534 27.2148C67.0407 27.5547 67.1721 28.237 66.8269 28.7356L61.0823 37.0313H59.7037L62.5201 32.9641C62.9768 32.3045 63.0145 31.4651 62.618 30.7733C62.0911 29.8542 61.8775 28.7719 62.0166 27.7258C62.1199 26.9475 61.772 26.1878 61.1085 25.7429L51.6341 19.3889C50.9705 18.9439 50.1247 18.903 49.4265 19.2824C48.4883 19.7922 47.3867 19.9924 46.3248 19.8461C45.5373 19.7374 44.7386 20.0873 44.2886 20.737L33.0053 37.0314H31.6267L46.7124 15.2459ZM47.1077 30.2483C43.1984 30.2483 39.9893 33.2482 39.7279 37.0314H35.1777L45.7719 21.732C45.7721 21.732 45.7721 21.732 45.7721 21.732C45.8322 21.645 45.932 21.5931 46.0345 21.5931C46.0482 21.5931 46.0618 21.5941 46.0755 21.5959C47.5198 21.7948 49.0179 21.5228 50.2942 20.8293C50.3946 20.7746 50.5235 20.7824 50.6229 20.849L60.0974 27.2032C60.1966 27.2698 60.2511 27.3851 60.2363 27.497C60.0472 28.9197 60.3378 30.3915 61.0544 31.6414C61.1118 31.7418 61.1048 31.8704 61.0366 31.9691L57.5313 37.0313H54.488C54.2262 33.2482 51.0173 30.2483 47.1077 30.2483ZM52.6877 37.0315H41.5279C41.7851 34.2235 44.1887 32.0153 47.1077 32.0153C50.0269 32.0152 52.4306 34.2235 52.6877 37.0315ZM17.1082 36.6137C17.1082 35.9373 17.6672 35.3871 18.3545 35.3871H20.4763L20.3113 37.0314H17.1082V36.6137ZM14.7807 40.958C14.7807 39.7671 15.7652 38.7983 16.9754 38.7983H67.0637C68.2739 38.7983 69.2583 39.7671 69.2583 40.958V43.4094H14.7807V40.958ZM69.2583 71.0734C69.2583 72.2642 68.2739 73.2331 67.0637 73.2331H16.9754C15.7652 73.2331 14.7807 72.2642 14.7807 71.0734V68.622H19.6216C20.1175 68.622 20.5193 68.2265 20.5193 67.7386C20.5193 67.2507 20.1174 66.8552 19.6216 66.8552H14.7807V45.1763H69.2583V49.3153H60.723H60.7229C58.0336 49.3153 55.704 50.858 54.5984 53.0911C54.5948 53.0986 54.5906 53.1059 54.5868 53.1134C54.5774 53.1324 54.5693 53.1521 54.5602 53.1712C54.4285 53.4465 54.3141 53.7314 54.2209 54.0254C54.2207 54.0263 54.2205 54.027 54.2202 54.0279C54.0215 54.6562 53.9143 55.3238 53.9143 56.0157C53.9143 59.7104 56.9686 62.7162 60.7227 62.7162H60.7229H69.2581V66.8552H25.3696C24.8738 66.8552 24.472 67.2507 24.472 67.7386C24.472 68.2265 24.8739 68.622 25.3696 68.622H69.2583V71.0734ZM72.2193 60.7302C72.2193 60.851 72.1193 60.9493 71.9964 60.9493H60.7231C58.8227 60.9493 57.1657 59.9032 56.3158 58.3654C56.2772 58.2956 56.2403 58.2246 56.205 58.1528C56.1344 58.0091 56.0708 57.8615 56.0146 57.7103C55.8175 57.1816 55.7099 56.6108 55.7099 56.0157C55.7099 55.4207 55.8176 54.8499 56.0146 54.3212C56.071 54.1702 56.1346 54.0225 56.205 53.8787C56.2403 53.8069 56.2772 53.7359 56.3158 53.666C57.1657 52.1283 58.8227 51.0821 60.7231 51.0821H71.9964C72.1192 51.0821 72.2193 51.1805 72.2193 51.3013V60.7302Z" fill="#333333"/>
		<path d="M60.9332 52.4314C58.9248 52.4314 57.291 54.0394 57.291 56.0158C57.291 57.9921 58.9248 59.6 60.9332 59.6C62.9416 59.6 64.5754 57.9921 64.5754 56.0158C64.5754 54.0394 62.9416 52.4314 60.9332 52.4314ZM60.9332 57.8331C59.9149 57.8331 59.0864 57.0178 59.0864 56.0158C59.0864 55.0137 59.9149 54.1983 60.9332 54.1983C61.9515 54.1983 62.78 55.0136 62.78 56.0158C62.78 57.0179 61.9515 57.8331 60.9332 57.8331Z" fill="#457EDB"/>
		<path d="M31.8572 62V50C37.0952 50 39 50 39 53C39 56 36.619 56 31.8572 56C28.8096 56 29.4484 56 29 56M29 59H34.7143" stroke="#457EDB" stroke-width="2" stroke-linecap="round" stroke-linejoin="round"/>
	</g>
	<defs>
		<clipPath id="clip0">
			<rect width="63" height="62" fill="white" transform="translate(12 13)"/>
		</clipPath>
	</defs>
</svg>
