<svg width="88" height="88" viewBox="0 0 88 88" fill="none" xmlns="http://www.w3.org/2000/svg">
	<g clip-path="url(#clip0)">
		<path d="M54.8284 12.756C54.5788 12.5833 54.2672 12.5221 53.9702 12.5878C53.6727 12.6535 53.4175 12.8395 53.2662 13.1002C53.2589 13.113 53.2498 13.1247 53.2419 13.1364C52.8941 13.6265 52.2071 13.7457 51.7102 13.4032C51.2196 13.0645 50.5438 13.1815 50.2006 13.6655L48.6209 15.8916C48.2776 16.3756 48.3967 17.0422 48.8868 17.3809C49.0765 17.5118 49.2933 17.5747 49.5078 17.5747C49.8494 17.5747 50.1859 17.4154 50.3965 17.1185L51.4607 15.6187C52.46 15.8933 53.5457 15.6816 54.3643 15.0456L55.9632 16.15C56.4538 16.4886 57.129 16.3711 57.4728 15.8877C57.8161 15.4037 57.697 14.7371 57.2064 14.3984L54.8284 12.756Z" fill="#333333"/>
		<path d="M66.8164 26.2257L65.7521 27.725C65.4089 28.209 65.528 28.8757 66.0181 29.2143C66.2078 29.3452 66.4245 29.4076 66.6391 29.4076C66.9807 29.4076 67.3171 29.2488 67.5277 28.9514L69.108 26.7259C69.4512 26.2419 69.3321 25.5752 68.8421 25.2366C68.3452 24.8935 68.2239 24.2157 68.5722 23.7251C68.5807 23.7134 68.5886 23.7017 68.5982 23.6911C68.7946 23.4611 68.8844 23.1609 68.8449 22.8629C68.8059 22.5649 68.6416 22.2965 68.3921 22.1244L66.0141 20.482C65.5235 20.1433 64.8477 20.2609 64.5044 20.7448C64.1606 21.2283 64.2803 21.8955 64.7703 22.2341L66.3692 23.338C66.0429 24.3149 66.2128 25.3931 66.8164 26.2257Z" fill="#333333"/>
		<path d="M61.0636 50.2495C61.5785 50.2495 62.0567 50.4528 62.4102 50.8226C62.8212 51.2515 63.5071 51.271 63.9424 50.8655C64.3783 50.46 64.3975 49.7833 63.9865 49.3539C63.2305 48.5642 62.1651 48.1108 61.0636 48.1108C58.8471 48.1108 57.0444 49.8897 57.0444 52.0763C57.0444 54.2623 58.8471 56.0412 61.0636 56.0412C62.1375 56.0412 63.1469 55.6291 63.9057 54.88C64.3292 54.4622 64.3292 53.785 63.9057 53.3679C63.4829 52.9501 62.7963 52.9501 62.3729 53.3679C62.0234 53.7126 61.5582 53.9025 61.0636 53.9025C60.0429 53.9025 59.2124 53.0833 59.2124 52.0763C59.2124 51.0688 60.0429 50.2495 61.0636 50.2495Z" fill="#457EDB"/>
		<path d="M70.7151 44.5438V35.9791C70.7151 33.0712 68.3168 30.7053 65.3692 30.7053H59.6167C59.9532 27.8382 59.0041 25.3163 57.0022 23.9334C55.3062 22.7622 53.1089 22.5522 50.8144 23.342C48.6459 24.0888 46.6287 25.6583 45.1359 27.7613C44.4748 28.692 43.9486 29.6789 43.567 30.7053H36.5098L51.6788 9.33477L72.7278 23.8738L69.521 28.3923C69.1778 28.8763 69.2969 29.543 69.787 29.8816C70.2776 30.2202 70.9534 30.1027 71.2966 29.6187L74.7925 24.6937C75.3192 23.9535 75.1369 22.9281 74.3854 22.408L52.5098 7.29802C52.1463 7.04628 51.7048 6.94937 51.2672 7.02511C50.8297 7.10142 50.4486 7.34035 50.1928 7.69958L45.1754 14.7689V10.506C45.1754 9.60099 44.4291 8.86471 43.5116 8.86471H17.5118C16.5944 8.86471 15.848 9.60099 15.848 10.506V16.3601C15.848 16.951 16.3336 17.4294 16.932 17.4294C17.531 17.4294 18.016 16.951 18.016 16.3601V11.0039H21.1567V30.7048H18.2717C18.1865 30.7048 18.1012 30.707 18.016 30.7109V20.6374C18.016 20.0471 17.531 19.5681 16.932 19.5681C16.3336 19.5681 15.848 20.0471 15.848 20.6374V31.279C14.1153 32.1523 12.9258 33.9312 12.9258 35.9791V68.1733C12.9258 71.0811 15.3241 73.447 18.2717 73.447H26.3655C26.9645 73.447 27.4495 72.9686 27.4495 72.3777C27.4495 71.7873 26.9645 71.3084 26.3655 71.3084H18.2717C16.5193 71.3084 15.0937 69.9021 15.0937 68.1733V35.9791C15.0937 34.609 15.9892 33.4416 17.2324 33.0161C17.26 33.0083 17.2877 32.9994 17.3142 32.9894C17.6168 32.8947 17.9386 32.8435 18.2723 32.8435H65.3692C67.1216 32.8435 68.5477 34.2503 68.5477 35.9791V44.3956H60.7871C56.494 44.3956 53.001 47.8409 53.001 52.0765C53.001 56.3115 56.494 59.7567 60.7871 59.7567H68.5477V68.1733C68.5477 69.9021 67.1216 71.3084 65.3692 71.3084H57.0863C56.4873 71.3084 56.0023 71.7873 56.0023 72.3777C56.0023 72.9686 56.4873 73.447 57.0863 73.447H65.3692C68.3168 73.447 70.7157 71.0811 70.7157 68.1733V59.6086C73.1682 59.0344 74.998 56.8556 74.998 54.2636V49.8893C74.9974 47.2968 73.1676 45.118 70.7151 44.5438ZM46.9115 28.9888C49.3838 25.5057 53.3527 24.0242 55.759 25.6856C57.145 26.643 57.7553 28.5216 57.4307 30.7048H45.91C46.1849 30.1144 46.5191 29.5402 46.9115 28.9888ZM43.0075 17.8232L33.8636 30.7053H28.5222V11.0034H43.0075V17.8232ZM23.3247 11.0034H26.3542V30.7048H23.3247V11.0034ZM72.8295 54.263C72.8295 56.1132 71.304 57.6181 69.4285 57.6181H60.7871C57.6893 57.6181 55.169 55.1319 55.169 52.0759C55.169 49.0205 57.6893 46.5343 60.7871 46.5343H69.4285C71.304 46.5343 72.8295 48.0392 72.8295 49.8893V54.263Z" fill="#333333"/>
		<path d="M41.82 54.1615C34.5991 54.1615 28.7241 59.9571 28.7241 67.081C28.7241 74.2043 34.5991 79.9999 41.82 79.9999C49.0415 79.9999 54.9165 74.2043 54.9165 67.081C54.9165 59.9571 49.0415 54.1615 41.82 54.1615ZM41.82 77.8612C35.7943 77.8612 30.8921 73.0253 30.8921 67.081C30.8921 61.1361 35.7943 56.3002 41.82 56.3002C47.8463 56.3002 52.7485 61.1361 52.7485 67.081C52.7485 73.0253 47.8463 77.8612 41.82 77.8612Z" fill="#333333"/>
		<path d="M39.8572 73V61C45.0952 61 47 61 47 64C47 67 44.619 67 39.8572 67C36.8096 67 37.4484 67 37 67M37 70H42.7143" stroke="#457EDB" stroke-width="2" stroke-linecap="round" stroke-linejoin="round"/>
	</g>
	<defs>
		<clipPath id="clip0">
			<rect width="74" height="73" fill="white" transform="translate(7 7)"/>
		</clipPath>
	</defs>
</svg>
