<svg xmlns="http://www.w3.org/2000/svg" width="50" height="50" fill="none"><g clip-path="url(#A)"><g fill="#e3f1ff"><path d="M13 2L16.5.5 20 2v22h-7V2zm14 10.043L30.5 10l3.5 2.043V42h-7V12.043z"/></g><path d="M44.613 16.366L41.069 8.62a2.2 2.2 0 0 0-2.073-1.472h-4.984L31.87 1.013a1.85 1.85 0 0 0-1.693-1.078 1.85 1.85 0 0 0-1.693 1.078c-.01.023-2.143 6.135-2.143 6.135h-4.998V4.783a4.89 4.89 0 0 0-4.881-4.881 4.89 4.89 0 0 0-4.881 4.881v18.874l.887 8.484c-1.271 1.143-2.072 2.799-2.072 4.639 0 2.23.86 4.231 2.556 5.947a.73.73 0 1 0 1.041-1.029c-1.416-1.432-2.133-3.087-2.133-4.918 0-2.634 2.143-4.778 4.777-4.778s4.778 2.143 4.778 4.778c0 .902-.52 1.875-1.071 2.905-.809 1.514-1.77 3.311-1.03 5.232-.792-.294-1.749-.706-2.71-1.257a.73.73 0 0 0-.728 1.27 20.02 20.02 0 0 0 5.043 2.014c.053.012.106.018.159.018a.73.73 0 0 0 .517-1.249c-1.745-1.745-1.122-3.165.039-5.336.612-1.144 1.244-2.327 1.244-3.595a6.23 6.23 0 0 0-2.296-4.832l.76-8.292V8.612h4.487l-.435 1.248c-.029.084-.041.174-.041.262v34.207c0 1.451 1.181 2.633 2.633 2.633h4.379c1.451 0 2.633-1.181 2.633-2.633V10.1c0-.08-.014-.166-.041-.241l-.435-1.248h4.473c.419 0 .732.357.732.732v38.363c0 .404-.328.732-.732.732H7.566c-.404 0-.732-.328-.732-.732V9.344c0-.404.328-.732.732-.732h1.422a.73.73 0 1 0 0-1.464H7.566a2.2 2.2 0 0 0-2.196 2.196v38.363a2.2 2.2 0 0 0 2.196 2.196h31.43a2.2 2.2 0 0 0 2.196-2.196V19.475h1.423c.751 0 1.442-.378 1.848-1.009s.462-1.417.149-2.1zm-28.15-15a3.42 3.42 0 0 1 3.416 3.417v18.242h-6.833V4.783a3.42 3.42 0 0 1 3.417-3.417zm.175 29.173c-1.005 0-1.954.24-2.796.664l-.705-6.713h6.662l-.607 6.598c-.78-.352-1.644-.549-2.554-.549zM28.521 5.339h3.311l1.614 4.631a.89.89 0 0 1-.582.216c-.296 0-.573-.146-.743-.39a.73.73 0 0 0-1.202 0c-.17.244-.448.39-.743.39s-.573-.146-.743-.39c-.137-.197-.362-.314-.601-.314a.73.73 0 0 0-.601.314c-.17.244-.448.39-.743.39-.218 0-.422-.077-.583-.214l1.615-4.633zm-1.703 35.059h2.946a.73.73 0 1 0 0-1.464h-2.946V11.551a2.34 2.34 0 0 0 .671.1 2.37 2.37 0 0 0 1.344-.419c.39.269.858.419 1.344.419s.954-.15 1.344-.419c.39.269.858.419 1.344.419a2.34 2.34 0 0 0 .67-.1v27.384h-.35a.73.73 0 1 0 0 1.464h.35v1.224h-6.717v-1.224zm3.358-39c.074 0 .252.021.354.208l.791 2.27h-2.29l.791-2.27c.101-.187.28-.208.354-.208zm2.19 44.099h-4.38a1.17 1.17 0 0 1-1.168-1.169v-1.242h6.717v1.242a1.17 1.17 0 0 1-1.168 1.169zm10.865-27.822a.72.72 0 0 1-.616.336h-1.423v-5.603l2.089 4.567a.72.72 0 0 1-.05.7z" fill="#333"/></g><defs><clipPath id="A"><path fill="#fff" d="M0 0h50v50H0z"/></clipPath></defs></svg>
