<svg width="178" height="52" viewBox="0 0 178 52" fill="none" xmlns="http://www.w3.org/2000/svg">
	<path d="M178 46.7875C178 49.6673 175.709 52 172.874 52H5.13243C2.2995 52 0 49.6673 0 46.7875V5.21933C0 2.34087 2.2995 0 5.13243 0H172.873C175.709 0 177.999 2.34087 177.999 5.21933L178 46.7875Z" fill="black"/>
	<path d="M39.1705 25.7077C39.1318 21.3534 42.6891 19.2351 42.8518 19.1365C40.8371 16.1603 37.7145 15.7536 36.6171 15.7212C33.9945 15.4416 31.4505 17.3113 30.1145 17.3113C28.7518 17.3113 26.6945 15.7482 24.4771 15.7942C21.6238 15.8387 18.9545 17.5126 17.4905 20.1119C14.4691 25.4118 16.7225 33.2002 19.6171 37.4841C21.0651 39.5822 22.7571 41.9248 24.9718 41.8424C27.1385 41.7519 27.9478 40.4428 30.5625 40.4428C33.1531 40.4428 33.9131 41.8424 36.1718 41.7897C38.4971 41.7519 39.9611 39.6822 41.3585 37.5652C43.0318 35.1605 43.7038 32.7922 43.7305 32.6706C43.6758 32.6517 39.2145 30.9265 39.1705 25.7077Z" fill="white"/>
	<path d="M34.9038 12.9031C36.0691 11.4264 36.8665 9.41754 36.6451 7.37891C34.9585 7.45456 32.8491 8.56101 31.6345 10.0052C30.5598 11.2778 29.5998 13.3637 29.8478 15.3254C31.7425 15.4686 33.6878 14.3567 34.9038 12.9031Z" fill="white"/>
	<path d="M70.5266 41.5417H67.4986L65.84 36.2607H60.0746L58.4946 41.5417H55.5466L61.2586 23.5629H64.7866L70.5266 41.5417ZM65.34 34.0451L63.84 29.3505C63.6813 28.8709 63.384 27.7414 62.9453 25.9636H62.892C62.7173 26.7282 62.436 27.8576 62.0493 29.3505L60.576 34.0451H65.34Z" fill="white"/>
	<path d="M85.216 34.9004C85.216 37.1052 84.628 38.8479 83.452 40.1273C82.3987 41.2662 81.0907 41.835 79.5293 41.835C77.844 41.835 76.6333 41.2216 75.896 39.9949H75.8427V46.8241H73V32.8455C73 31.4594 72.964 30.0368 72.8947 28.5778H75.3947L75.5533 30.6326H75.6067C76.5547 29.0844 77.9933 28.3116 79.924 28.3116C81.4333 28.3116 82.6933 28.9155 83.7013 30.1247C84.712 31.3351 85.216 32.9266 85.216 34.9004ZM82.32 35.0058C82.32 33.7439 82.04 32.7037 81.4773 31.885C80.8627 31.0312 80.0373 30.6043 79.0027 30.6043C78.3013 30.6043 77.664 30.842 77.0947 31.3108C76.524 31.7837 76.1506 32.4011 75.976 33.1657C75.888 33.5224 75.844 33.8142 75.844 34.0439V36.2054C75.844 37.1484 76.1293 37.9441 76.7 38.594C77.2707 39.2438 78.012 39.568 78.924 39.568C79.9947 39.568 80.828 39.1492 81.424 38.3143C82.0213 37.478 82.32 36.3756 82.32 35.0058Z" fill="white"/>
	<path d="M99.9319 34.9004C99.9319 37.1052 99.3439 38.8479 98.1666 40.1273C97.1146 41.2662 95.8066 41.835 94.2453 41.835C92.5599 41.835 91.3493 41.2216 90.6133 39.9949H90.5599V46.8241H87.7173V32.8455C87.7173 31.4594 87.6813 30.0368 87.6119 28.5778H90.1119L90.2706 30.6326H90.3239C91.2706 29.0844 92.7093 28.3116 94.6413 28.3116C96.1493 28.3116 97.4093 28.9155 98.4199 30.1247C99.4266 31.3351 99.9319 32.9266 99.9319 34.9004ZM97.0359 35.0058C97.0359 33.7439 96.7546 32.7037 96.1919 31.885C95.5773 31.0312 94.7546 30.6043 93.7186 30.6043C93.0159 30.6043 92.3799 30.842 91.8093 31.3108C91.2386 31.7837 90.8666 32.4011 90.6919 33.1657C90.6053 33.5224 90.5599 33.8142 90.5599 34.0439V36.2054C90.5599 37.1484 90.8453 37.9441 91.4133 38.594C91.9839 39.2424 92.7253 39.568 93.6399 39.568C94.7106 39.568 95.5439 39.1492 96.1399 38.3143C96.7373 37.478 97.0359 36.3756 97.0359 35.0058Z" fill="white"/>
	<path d="M116.385 36.4999C116.385 38.0292 115.861 39.2734 114.809 40.234C113.653 41.2837 112.044 41.8079 109.976 41.8079C108.067 41.8079 106.536 41.435 105.377 40.6879L106.036 38.2872C107.284 39.0519 108.653 39.4356 110.145 39.4356C111.216 39.4356 112.049 39.1897 112.648 38.7006C113.244 38.2116 113.541 37.555 113.541 36.7363C113.541 36.0068 113.296 35.3921 112.804 34.8936C112.315 34.395 111.497 33.9317 110.356 33.5034C107.249 32.3294 105.697 30.6096 105.697 28.3481C105.697 26.8701 106.241 25.6583 107.331 24.7153C108.416 23.7709 109.864 23.2994 111.675 23.2994C113.289 23.2994 114.631 23.5845 115.701 24.1533L114.991 26.5013C113.991 25.9501 112.86 25.6745 111.595 25.6745C110.595 25.6745 109.813 25.9244 109.253 26.4216C108.78 26.866 108.543 27.4078 108.543 28.0495C108.543 28.7601 108.813 29.3478 109.357 29.8098C109.831 30.2367 110.691 30.6988 111.939 31.1973C113.465 31.8201 114.587 32.5483 115.308 33.3832C116.027 34.2154 116.385 35.257 116.385 36.4999Z" fill="white"/>
	<path d="M125.784 30.7393H122.651V37.0335C122.651 38.6344 123.203 39.4342 124.309 39.4342C124.817 39.4342 125.239 39.3896 125.572 39.3005L125.651 41.4877C125.091 41.6998 124.353 41.8065 123.44 41.8065C122.317 41.8065 121.44 41.4593 120.807 40.7663C120.176 40.0719 119.859 38.9073 119.859 37.2713V30.7366H117.992V28.575H119.859V26.2014L122.651 25.3475V28.575H125.784V30.7393Z" fill="white"/>
	<path d="M139.921 34.9529C139.921 36.9456 139.359 38.5817 138.236 39.861C137.059 41.1783 135.496 41.8348 133.548 41.8348C131.671 41.8348 130.176 41.2039 129.061 39.9421C127.947 38.6803 127.389 37.0875 127.389 35.1677C127.389 33.1588 127.963 31.5133 129.113 30.234C130.261 28.9532 131.811 28.3129 133.759 28.3129C135.636 28.3129 137.147 28.9438 138.287 30.2069C139.377 31.4323 139.921 33.0143 139.921 34.9529ZM136.972 35.0462C136.972 33.8505 136.72 32.8251 136.209 31.97C135.613 30.9351 134.761 30.419 133.657 30.419C132.515 30.419 131.647 30.9365 131.051 31.97C130.54 32.8265 130.288 33.8681 130.288 35.1002C130.288 36.2958 130.54 37.3212 131.051 38.175C131.665 39.2099 132.524 39.7259 133.632 39.7259C134.717 39.7259 135.569 39.1991 136.184 38.148C136.708 37.2766 136.972 36.2404 136.972 35.0462Z" fill="white"/>
	<path d="M149.161 31.1109C148.88 31.0582 148.58 31.0312 148.265 31.0312C147.265 31.0312 146.492 31.4135 145.948 32.1795C145.475 32.855 145.237 33.7088 145.237 34.7396V41.5418H142.396L142.423 32.6605C142.423 31.1663 142.387 29.8058 142.316 28.5791H144.792L144.896 31.0595H144.975C145.275 30.2071 145.748 29.5208 146.396 29.006C147.029 28.5427 147.713 28.3116 148.451 28.3116C148.713 28.3116 148.951 28.3306 149.161 28.3643V31.1109Z" fill="white"/>
	<path d="M161.875 34.4464C161.875 34.9624 161.841 35.3974 161.771 35.7527H153.243C153.276 37.0335 153.688 38.0129 154.48 38.6884C155.199 39.2923 156.128 39.5949 157.269 39.5949C158.532 39.5949 159.684 39.3909 160.72 38.9816L161.165 40.981C159.955 41.516 158.525 41.7822 156.876 41.7822C154.892 41.7822 153.335 41.1904 152.201 40.0083C151.071 38.8262 150.504 37.2388 150.504 35.2475C150.504 33.2926 151.031 31.6647 152.085 30.3664C153.189 28.9803 154.681 28.2872 156.559 28.2872C158.403 28.2872 159.799 28.9803 160.747 30.3664C161.497 31.4674 161.875 32.8292 161.875 34.4464ZM159.164 33.6993C159.183 32.8454 158.997 32.1078 158.612 31.485C158.12 30.6839 157.364 30.284 156.347 30.284C155.417 30.284 154.661 30.6744 154.084 31.458C153.611 32.0808 153.329 32.8279 153.243 33.6979H159.164V33.6993Z" fill="white"/>
	<path d="M60.7754 9.59021C59.9707 9.59021 59.3379 9.87537 58.877 10.4457C58.416 11.016 58.1855 11.8031 58.1855 12.807C58.1855 13.8578 58.4062 14.6527 58.8477 15.1918C59.293 15.7308 59.9355 16.0004 60.7754 16.0004C61.1387 16.0004 61.4902 15.9652 61.8301 15.8949C62.1699 15.8207 62.5234 15.7269 62.8906 15.6136V16.8148C62.2188 17.0687 61.457 17.1957 60.6055 17.1957C59.3516 17.1957 58.3887 16.8168 57.7168 16.059C57.0449 15.2972 56.709 14.2094 56.709 12.7953C56.709 11.9047 56.8711 11.1254 57.1953 10.4574C57.5234 9.78943 57.9961 9.27771 58.6133 8.92224C59.2305 8.56677 59.9551 8.38904 60.7871 8.38904C61.6621 8.38904 62.4707 8.57263 63.2129 8.93982L62.709 10.1058C62.4199 9.96912 62.1133 9.84998 61.7891 9.74841C61.4688 9.64294 61.1309 9.59021 60.7754 9.59021ZM68.6094 10.598H70.1211L67.4434 13.7211L70.3496 17.0785H68.7676L65.9668 13.7914V17.0785H64.5898V10.598H65.9668V13.7445L68.6094 10.598ZM75.4766 17.0785L75.2012 16.1761H75.1543C74.8418 16.5707 74.5273 16.8402 74.2109 16.9847C73.8945 17.1254 73.4883 17.1957 72.9922 17.1957C72.3555 17.1957 71.8574 17.0238 71.498 16.6801C71.1426 16.3363 70.9648 15.85 70.9648 15.2211C70.9648 14.5531 71.2129 14.0492 71.709 13.7094C72.2051 13.3695 72.9609 13.184 73.9766 13.1527L75.0957 13.1176V12.7719C75.0957 12.3578 74.998 12.0492 74.8027 11.8461C74.6113 11.639 74.3125 11.5355 73.9062 11.5355C73.5742 11.5355 73.2559 11.5844 72.9512 11.682C72.6465 11.7797 72.3535 11.8949 72.0723 12.0277L71.627 11.0433C71.9785 10.8597 72.3633 10.7211 72.7812 10.6273C73.1992 10.5297 73.5938 10.4808 73.9648 10.4808C74.7891 10.4808 75.4102 10.6605 75.8281 11.0199C76.25 11.3793 76.4609 11.9437 76.4609 12.7133V17.0785H75.4766ZM73.4258 16.141C73.9258 16.141 74.3262 16.0023 74.627 15.725C74.9316 15.4437 75.084 15.0511 75.084 14.5472V13.9847L74.252 14.0199C73.6035 14.0433 73.1309 14.1527 72.834 14.348C72.541 14.5394 72.3945 14.8344 72.3945 15.2328C72.3945 15.5219 72.4805 15.7465 72.6523 15.9066C72.8242 16.0629 73.082 16.141 73.4258 16.141ZM79.5957 10.598V12.9652C79.5957 13.6293 79.9395 13.9613 80.627 13.9613C80.959 13.9613 81.2832 13.9164 81.5996 13.8265C81.916 13.7328 82.2559 13.5844 82.6191 13.3812V10.598H83.9961V17.0785H82.6191V14.3304C82.2402 14.5648 81.873 14.7386 81.5176 14.8519C81.166 14.9613 80.7812 15.016 80.3633 15.016C79.6875 15.016 79.1602 14.8422 78.7812 14.4945C78.4023 14.1429 78.2129 13.6527 78.2129 13.0238V10.598H79.5957ZM90.0195 17.0785L89.7441 16.1761H89.6973C89.3848 16.5707 89.0703 16.8402 88.7539 16.9847C88.4375 17.1254 88.0312 17.1957 87.5352 17.1957C86.8984 17.1957 86.4004 17.0238 86.041 16.6801C85.6855 16.3363 85.5078 15.85 85.5078 15.2211C85.5078 14.5531 85.7559 14.0492 86.252 13.7094C86.748 13.3695 87.5039 13.184 88.5195 13.1527L89.6387 13.1176V12.7719C89.6387 12.3578 89.541 12.0492 89.3457 11.8461C89.1543 11.639 88.8555 11.5355 88.4492 11.5355C88.1172 11.5355 87.7988 11.5844 87.4941 11.682C87.1895 11.7797 86.8965 11.8949 86.6152 12.0277L86.1699 11.0433C86.5215 10.8597 86.9062 10.7211 87.3242 10.6273C87.7422 10.5297 88.1367 10.4808 88.5078 10.4808C89.332 10.4808 89.9531 10.6605 90.3711 11.0199C90.793 11.3793 91.0039 11.9437 91.0039 12.7133V17.0785H90.0195ZM87.9688 16.141C88.4688 16.141 88.8691 16.0023 89.1699 15.725C89.4746 15.4437 89.627 15.0511 89.627 14.5472V13.9847L88.7949 14.0199C88.1465 14.0433 87.6738 14.1527 87.377 14.348C87.084 14.5394 86.9375 14.8344 86.9375 15.2328C86.9375 15.5219 87.0234 15.7465 87.1953 15.9066C87.3672 16.0629 87.625 16.141 87.9688 16.141ZM97.7949 10.598V11.6761H95.6855V17.0785H94.3027V11.6761H92.1934V10.598H97.7949ZM100.42 13.1879H102.043C103.852 13.1879 104.756 13.8129 104.756 15.0629C104.756 15.723 104.525 16.225 104.064 16.5687C103.604 16.9086 102.93 17.0785 102.043 17.0785H99.043V10.598H100.42V13.1879ZM103.373 15.098C103.373 14.7738 103.25 14.5472 103.004 14.4183C102.758 14.2894 102.41 14.225 101.961 14.225H100.42V16.059H101.984C102.438 16.059 102.781 15.9769 103.016 15.8129C103.254 15.6488 103.373 15.4105 103.373 15.098ZM115.027 12.2562C115.027 13.0219 114.58 13.4847 113.686 13.6449V13.6918C114.186 13.7504 114.568 13.9086 114.834 14.1664C115.1 14.4242 115.232 14.7582 115.232 15.1683C115.232 15.7816 114.998 16.2543 114.529 16.5863C114.064 16.9144 113.387 17.0785 112.496 17.0785H109.402V10.598H112.484C114.18 10.598 115.027 11.1508 115.027 12.2562ZM113.82 15.0863C113.82 14.7738 113.699 14.5531 113.457 14.4242C113.215 14.2914 112.852 14.225 112.367 14.225H110.779V16.059H112.402C113.348 16.059 113.82 15.7347 113.82 15.0863ZM113.65 12.3734C113.65 12.1156 113.549 11.9301 113.346 11.8168C113.146 11.6996 112.848 11.641 112.449 11.641H110.779V13.1996H112.244C112.705 13.1996 113.055 13.141 113.293 13.0238C113.531 12.9027 113.65 12.6859 113.65 12.3734Z" fill="white"/>
</svg>
