<svg width="483" height="136" viewBox="0 0 483 136" fill="none" xmlns="http://www.w3.org/2000/svg">
	<path fill-rule="evenodd" clip-rule="evenodd" d="M8 0H4.0418C1.83266 0 0 1.79086 0 4V132C0 134.209 1.79087 136 4.00001 136H479C481.209 136 483 134.209 483 132V4C483 1.79086 481.167 0 478.958 0H218V2H218.525H219.377H220.23H221.082H221.934H222.786H223.638H224.489H225.34H226.192H227.043H227.894H228.745H229.596H230.446H231.297H232.148H232.998H233.848H234.699H235.549H236.399H237.249H238.1H238.95H239.8H240.65H241.5H242.35H243.2H244.05H244.9H245.751H246.601H247.451H248.301H249.152H250.002H250.852H251.703H252.554H253.404H254.255H255.106H255.957H256.808H257.66H258.511H259.362H260.214H261.066H261.918H262.77H263.623H264.475H265.328H266.181H267.034H267.888H268.741H269.595H270.449H271.303H272.158H273.013H273.868H274.723H275.579H276.435H277.291H278.147H279.004H279.861H280.718H281.576H282.434H283.293H284.151H285.011H285.87H286.73H287.59H288.451H289.312H290.173H291.035H291.897H292.76H293.623H294.486H295.35H296.215H297.079H297.945H298.811H299.677H300.544H301.411H302.278H303.147H304.015H304.885H305.754H306.625H307.495H308.367H309.239H310.111H310.984H311.858H312.732H313.607H314.482H315.358H316.235H317.112H317.99H318.869H319.748H320.628H321.508H322.389H323.271H324.153H325.036H325.92H326.805H327.69H328.576H329.462H330.35H331.238H332.127H333.016H333.906H334.798H335.689H336.582H337.475H338.37H339.265H340.16H341.057H341.954H342.853H343.752H344.651H345.552H346.454H347.356H348.26H349.164H350.069H350.975H351.882H352.789H353.698H354.608H355.518H356.429H357.342H358.255H359.169H360.085H361.001H361.918H362.836H363.755H364.675H365.596H366.518H367.442H368.366H369.291H370.217H371.144H372.073H373.002H373.932H374.864H375.797H376.73H377.665H378.601H379.538H380.476H381.415H382.355H383.297H384.239H385.183H386.128H387.074H388.021H388.97H389.919H390.87H391.822H392.775H393.73H394.685H395.642H396.6H397.56H398.52H399.482H400.445H401.41H402.375H403.342H404.31H405.28H406.251H407.223H408.196H409.171H410.147H411.125H412.104H413.084H414.065H415.048H416.033H417.018H418.005H418.994H419.984H420.975H421.968H422.962H423.957H424.954H425.953H426.952H427.954H428.957H429.961H430.967H431.974H432.983H433.993H435.005H436.018H437.033H438.049H439.067H440.087H441.108H442.13H443.154H444.18H445.207H446.236H447.267H448.299H449.332H450.368H451.405H452.443H453.483H454.525H455.569H456.614H457.661H458.709H459.759H460.811H461.865H462.92H463.977H465.036H466.096H467.158H468.222H469.288H470.355H471.424H472.495H473.568H474.642H475.719H476.797H477.877H478.958C480.09 2 481 2.92236 481 4V132C481 133.105 480.105 134 479 134H4.00001C2.89543 134 2 133.105 2 132V4C2 2.92236 2.91011 2 4.0418 2H5.12346H6.20331H7.28136H8V0Z" fill="#111111"/>
</svg>
