<svg width="78" height="14" viewBox="0 0 78 14" fill="none" xmlns="http://www.w3.org/2000/svg">
	<path d="M55 0L57.2755 4.44594L62 5.34752L58.6818 8.99685L59.3262 14L55 11.8095L50.6738 14L51.3182 8.99685L48 5.34752L52.7245 4.44594L55 0Z" fill="#FFA800"/>
	<path d="M39 0L41.2755 4.44594L46 5.34752L42.6818 8.99685L43.3262 14L39 11.8095L34.6738 14L35.3182 8.99685L32 5.34752L36.7245 4.44594L39 0Z" fill="#FFA800"/>
	<path d="M23 0L25.2755 4.44594L30 5.34752L26.6818 8.99685L27.3262 14L23 11.8095L18.6738 14L19.3182 8.99685L16 5.34752L20.7245 4.44594L23 0Z" fill="#FFA800"/>
	<path d="M7 0L9.27546 4.44594L14 5.34752L10.6818 8.99685L11.3262 14L7 11.8095L2.67376 14L3.31824 8.99685L0 5.34752L4.72455 4.44594L7 0Z" fill="#FFA800"/>
	<path d="M71 0L73.2755 4.44594L78 5.34752L74.6818 8.99685L75.3262 14L71 11.8095L66.6738 14L67.3182 8.99685L64 5.34752L68.7245 4.44594L71 0Z" fill="#FFA800"/>
</svg>
