<svg width="516" height="448" viewBox="0 0 516 448" fill="none" xmlns="http://www.w3.org/2000/svg">
<g clip-path="url(#clip0)">
<path d="M407.138 405.78C405.816 404.047 406.125 401.574 407.834 400.219L445.362 370.471C447.051 369.131 449.499 369.373 450.895 371.016L470.188 393.732C471.669 395.476 471.388 398.104 469.572 399.496L430.333 429.569C428.577 430.915 426.062 430.58 424.72 428.821L407.138 405.78Z" fill="white"/>
<path d="M448.39 368.07C448.393 368.309 448.371 368.548 448.327 368.783L448.029 370.792L446.77 378.15L442.558 402.693L442.514 402.942L442.261 402.94L441.062 402.945L415.406 402.858C412.178 402.819 409.516 402.744 407.621 402.76L405.508 402.71C405.258 402.71 405.008 402.691 404.762 402.65C405.004 402.596 405.253 402.574 405.501 402.584L407.625 402.524C409.53 402.516 412.159 402.461 415.403 402.422C422.05 402.409 431.094 402.369 441.088 402.337L442.287 402.332L441.983 402.588L446.403 378.103L447.804 370.736L448.214 368.755C448.239 368.519 448.298 368.288 448.39 368.07V368.07Z" fill="#9782C3"/>
<path d="M427.153 432.008C426.984 431.995 427.431 425.409 428.17 417.302C428.908 409.194 429.636 402.632 429.798 402.654C429.96 402.676 429.52 409.253 428.781 417.361C428.043 425.468 427.322 432.021 427.153 432.008Z" fill="#9782C3"/>
<path d="M472.915 396.929C472.893 397.091 466.521 396.063 458.698 394.635C450.875 393.207 444.518 391.892 444.605 391.78C444.692 391.669 451.006 392.637 458.829 394.065C466.653 395.493 472.939 396.783 472.915 396.929Z" fill="#9782C3"/>
<path d="M249 246C161.348 190.71 62.5 157.833 -1 157L-9 475.5L542 521L530 424.5C498.833 414 447.645 406.708 400.5 382C330.079 345.094 316.245 288.418 249 246Z" fill="url(#paint0_linear)"/>
<path d="M-12.8809 387.354L192.226 480.87L247.897 358.768L42.7899 265.252L-12.8809 387.354Z" fill="#F5D700"/>
<path d="M114.981 378.612L42.7919 265.25L247.897 358.76L114.981 378.612Z" fill="#E4C904"/>
<path d="M159.099 247.887L42.7926 265.252L247.898 358.761L184.729 259.576C182.044 255.359 178.194 252.01 173.646 249.935C169.097 247.861 164.044 247.149 159.099 247.887V247.887Z" fill="#FEDF04"/>
<path d="M240.279 355.294L180.263 261.048C178.239 257.867 175.336 255.34 171.905 253.775C168.474 252.21 164.663 251.674 160.934 252.231L50.408 268.715L240.279 355.294Z" fill="#F5D700"/>
<path d="M205.212 333.149L227.453 355.359L224.299 362.284L114.984 378.613L55.6128 285.384L61.9223 271.533L205.212 333.149Z" fill="white"/>
<path d="M205.21 333.148L202.23 349.787L227.452 355.358" fill="#E0E0E0"/>
<path d="M205.21 333.148L201.21 345.979L227.452 355.358" fill="#F0F0F0"/>
<path d="M137.651 375.204L192.226 480.872L-12.8743 387.354L102.681 359.255C109.454 357.61 116.584 358.288 122.925 361.181C129.266 364.073 134.452 369.012 137.651 375.204V375.204Z" fill="#FEDF04"/>
<path d="M356.176 320.686L308.34 343.379L395.529 363.621L362.409 322.112C361.684 321.205 360.673 320.57 359.541 320.311C358.409 320.052 357.223 320.184 356.176 320.686V320.686Z" fill="#E5D115"/>
<path d="M308.756 343.485L395.443 363.609C395.555 363.635 395.653 363.705 395.714 363.803C395.775 363.902 395.795 364.02 395.769 364.133L384.274 413.645C384.211 413.916 384.043 414.15 383.807 414.297C383.571 414.445 383.287 414.492 383.016 414.429L297.534 394.584C297.263 394.521 297.029 394.353 296.882 394.117C296.734 393.881 296.687 393.596 296.75 393.325L308.245 343.813C308.27 343.703 308.338 343.606 308.434 343.545C308.529 343.484 308.645 343.462 308.756 343.485V343.485Z" fill="#FEDF04"/>
<path d="M389.876 363.562L348.956 377.323L312.926 347.42L319.276 323.478C319.594 322.231 320.391 321.16 321.494 320.498C322.598 319.836 323.918 319.637 325.168 319.944L391.455 335.32C392.72 335.616 393.816 336.404 394.501 337.509C395.186 338.613 395.404 339.945 395.107 341.211L389.876 363.562Z" fill="white"/>
<path d="M346.36 373.27L297.381 390.355C297.262 390.866 297.245 391.396 297.332 391.914C297.418 392.432 297.605 392.928 297.883 393.373C298.161 393.818 298.524 394.205 298.951 394.509C299.379 394.814 299.862 395.032 300.374 395.15L380.175 413.672C380.686 413.791 381.216 413.808 381.734 413.721C382.252 413.635 382.748 413.448 383.193 413.17C383.639 412.892 384.025 412.529 384.33 412.101C384.635 411.674 384.852 411.191 384.97 410.679L385.041 410.385L350.79 374.39C350.237 373.797 349.525 373.377 348.74 373.178C347.954 372.98 347.128 373.012 346.36 373.27V373.27Z" fill="#F5D700"/>
<path d="M351.76 337.469L325.832 331.454L325.217 334.105L351.145 340.12L351.76 337.469Z" fill="#E0E0E0"/>
<path d="M381.819 351.524L324.282 338.177L323.587 341.172L381.124 354.519L381.819 351.524Z" fill="#F5F5F5"/>
<path d="M380.119 358.822L322.582 345.475L321.887 348.47L379.424 361.817L380.119 358.822Z" fill="#F5F5F5"/>
<path d="M376.798 367.98L374.382 368.769L325.804 358.106L320.879 353.935L320.973 353.229L378.318 366.531L378.094 367.52L376.798 367.98Z" fill="#F5F5F5"/>
<path d="M360.134 373.553L338.372 368.51L333.164 364.15L365.683 371.691L360.134 373.553Z" fill="#F5F5F5"/>
<path d="M389.876 363.562C389.865 363.448 389.865 363.334 389.876 363.22C389.876 362.973 389.994 362.643 390.076 362.242C390.265 361.347 390.536 360.098 390.877 358.519L393.964 344.816C394.129 344.086 394.294 343.343 394.459 342.589C394.665 341.84 394.814 341.076 394.907 340.304C394.952 339.502 394.786 338.703 394.427 337.986C394.067 337.269 393.526 336.658 392.857 336.215C392.141 335.763 391.338 335.466 390.5 335.343L387.826 334.731L382.241 333.446L357.392 327.708L332.543 321.911L326.958 320.604C326.09 320.369 325.209 320.184 324.319 320.05C323.491 319.996 322.664 320.165 321.924 320.541C321.184 320.916 320.559 321.483 320.113 322.182C319.715 322.882 319.436 323.642 319.288 324.433C318.864 325.988 318.463 327.484 318.11 328.922L314.41 342.472C313.974 344.039 313.632 345.264 313.373 346.148C313.263 346.54 313.169 346.858 313.09 347.102C313.069 347.214 313.03 347.321 312.973 347.42C312.973 347.42 312.973 347.302 313.032 347.078L313.255 346.112C313.479 345.229 313.786 343.991 314.186 342.413C315.023 339.161 316.213 334.518 317.721 328.816C318.098 327.378 318.487 325.87 318.899 324.315C319.058 323.487 319.352 322.691 319.771 321.959C320.25 321.191 320.926 320.565 321.727 320.144C322.555 319.705 323.489 319.505 324.425 319.567C325.345 319.697 326.258 319.878 327.159 320.109L332.743 321.393L357.592 327.143L382.441 332.904L388.014 334.212L390.689 334.837C391.598 334.974 392.469 335.299 393.245 335.791C393.981 336.287 394.574 336.967 394.967 337.762C395.359 338.558 395.538 339.442 395.484 340.327C395.387 341.123 395.229 341.911 395.013 342.684C394.836 343.438 394.659 344.18 394.483 344.899C393.116 350.637 391.997 355.291 391.219 358.554L390.3 362.266C390.194 362.655 390.111 362.973 390.041 363.22C390.003 363.342 389.947 363.457 389.876 363.562V363.562Z" fill="#E0E0E0"/>
<path d="M277.807 228.016C277.359 225.328 279.146 222.777 281.825 222.278L353.84 208.884C356.49 208.391 359.054 210.088 359.636 212.72L369.652 258.007C370.269 260.8 368.423 263.541 365.603 264.017L290.99 276.622C288.263 277.083 285.68 275.242 285.225 272.514L277.807 228.016Z" fill="white"/>
<path d="M358.592 208C358.592 208 358.592 208.082 358.451 208.236L357.992 208.872L356.177 211.299L349.449 220.183C343.558 227.688 335.57 238.021 326.686 249.497L326.533 249.698L326.297 249.58L324.718 248.743L290.915 230.775L280.7 225.273L277.943 223.741L277.236 223.329C277.15 223.289 277.071 223.238 277 223.176C277.092 223.195 277.18 223.231 277.259 223.282L278.001 223.635L280.817 225.061L291.115 230.398C299.834 234.97 311.793 241.261 325.001 248.213L326.592 249.05L326.203 249.132L349.049 219.924L355.989 211.158L357.897 208.801L358.404 208.2C358.457 208.125 358.521 208.058 358.592 208Z" fill="#9782C3"/>
<path d="M286.049 277.457C285.908 277.363 291.151 269.045 297.761 258.877C304.371 248.708 309.861 240.532 310.003 240.626C310.144 240.72 304.901 249.038 298.279 259.206C291.657 269.375 286.19 277.552 286.049 277.457Z" fill="#9782C3"/>
<path d="M370.788 263.142C370.682 263.271 363.047 257.427 353.739 250.099C344.431 242.77 336.973 236.69 337.067 236.537C337.162 236.384 344.808 242.252 354.116 249.592C363.424 256.932 370.882 263.012 370.788 263.142Z" fill="#9782C3"/>
<path d="M406.86 265.101C407.413 262.992 409.552 261.714 411.672 262.228L458.213 273.506C460.309 274.014 461.625 276.091 461.188 278.203L455.153 307.388C454.689 309.629 452.445 311.025 450.23 310.45L402.38 298.022C400.238 297.466 398.955 295.278 399.516 293.137L406.86 265.101Z" fill="white"/>
<path d="M461.972 274.416C461.785 274.566 461.583 274.696 461.371 274.805L459.603 275.807L453.029 279.341L431.09 291.124L430.866 291.242L430.713 291.041L429.971 290.099L414.253 269.821C412.297 267.253 410.719 265.108 409.54 263.624L408.28 261.927C408.125 261.731 407.987 261.522 407.867 261.303C408.059 261.46 408.23 261.643 408.374 261.845L409.729 263.482C410.907 264.979 412.568 267.017 414.595 269.55C418.695 274.782 424.292 281.886 430.466 289.745L431.208 290.688L430.819 290.605L452.84 279.023L459.509 275.595L461.324 274.699C461.524 274.574 461.743 274.478 461.972 274.416V274.416Z" fill="#9782C3"/>
<path d="M398.501 297.015C398.407 296.874 403.874 293.174 410.719 288.768C417.565 284.361 423.185 280.897 423.268 281.038C423.35 281.18 417.895 284.879 411.049 289.286C404.204 293.693 398.595 297.157 398.501 297.015Z" fill="#9782C3"/>
<path d="M454.311 311.508C454.17 311.59 451.06 305.935 447.372 298.889C443.684 291.843 440.809 286.022 440.95 286.022C441.092 286.022 444.214 291.595 447.902 298.641C451.59 305.687 454.441 311.437 454.311 311.508Z" fill="#9782C3"/>
</g>
<defs>
<linearGradient id="paint0_linear" x1="15.5" y1="-2.50002" x2="266.5" y2="521" gradientUnits="userSpaceOnUse">
<stop stop-color="#17CCE6"/>
<stop offset="1" stop-color="#178FE6"/>
</linearGradient>
<clipPath id="clip0">
<rect width="516" height="448" fill="white"/>
</clipPath>
</defs>
</svg>
