<svg width="768" height="877" fill="none" xmlns="http://www.w3.org/2000/svg"><g clip-path="url(#a)"><path fill="#fff" d="M0 0h768v892H0z"/><g filter="url(#b)"><path fill-rule="evenodd" clip-rule="evenodd" d="M-91.824 38.52c58.169-.426 122.66-40.75 170.087-7.183 47.394 33.544 32.475 106.816 49.114 162.323 16.075 53.623 67.75 105.202 46.626 157.056-21.25 52.162-91.707 59.483-143.753 81.368-39.614 16.657-79.184 27.414-122.074 30.408-46.268 3.23-98.305 15.608-135.165-12.45-36.735-27.964-29.869-83.642-47.181-126.357-19.231-47.451-62.208-86.316-59.727-137.431 2.804-57.764 24.307-122.235 73.795-152.437 49.055-29.938 110.757 5.125 168.278 4.703Z" fill="#E336DC" fill-opacity=".15"/></g><g filter="url(#c)"><path fill-rule="evenodd" clip-rule="evenodd" d="M743.118 417.684c53.278-4.452 109.325 13.182 146.579 42.517 34.818 27.417 31.848 69.521 42.933 106.71 9.854 33.06 31.47 65.895 18.156 98.244-13.372 32.491-54.201 51.616-88.736 73.25-37.052 23.211-71.746 50.209-118.932 56.842-52.962 7.446-111.405 5.002-155.789-18.222-44.854-23.469-73.494-63.826-79.694-104.99-5.666-37.621 27.904-69.994 48.126-104.591 17.699-30.281 32.405-60.555 62.43-84.556 35.695-28.531 73.48-60.905 124.927-65.204Z" fill="#E38936" fill-opacity=".15"/></g><g filter="url(#d)"><path fill-rule="evenodd" clip-rule="evenodd" d="M14.024 696.896c31.336 5.461 44.428 42.658 69.802 61.95 24.628 18.723 64.487 20.197 76.099 48.975 11.633 28.833-12.944 58.529-20.554 88.69-8.35 33.099-.28 74.311-26.147 96.415-25.985 22.204-65.113 10.224-99.2 10.694-34.677.48-72.12 11.09-101.188-7.941-29.504-19.319-38.649-57.184-49.657-90.83-11.053-33.784-25.573-69.619-13.812-103.161 11.662-33.26 45.141-51.818 74.763-70.671 27.746-17.658 57.547-39.757 89.894-34.121Z" fill="#3671E3" fill-opacity=".15"/></g></g><defs><filter id="b" x="-534" y="-182" width="913" height="850" filterUnits="userSpaceOnUse" color-interpolation-filters="sRGB"><feFlood flood-opacity="0" result="BackgroundImageFix"/><feBlend in="SourceGraphic" in2="BackgroundImageFix" result="shape"/><feGaussianBlur stdDeviation="100" result="effect1_foregroundBlur"/></filter><filter id="c" x="307" y="217" width="848" height="782" filterUnits="userSpaceOnUse" color-interpolation-filters="sRGB"><feFlood flood-opacity="0" result="BackgroundImageFix"/><feBlend in="SourceGraphic" in2="BackgroundImageFix" result="shape"/><feGaussianBlur stdDeviation="100" result="effect1_foregroundBlur"/></filter><filter id="d" x="-355" y="496" width="718" height="711" filterUnits="userSpaceOnUse" color-interpolation-filters="sRGB"><feFlood flood-opacity="0" result="BackgroundImageFix"/><feBlend in="SourceGraphic" in2="BackgroundImageFix" result="shape"/><feGaussianBlur stdDeviation="100" result="effect1_foregroundBlur"/></filter><clipPath id="a"><path fill="#fff" d="M0 0h768v1076H0z"/></clipPath></defs></svg>