<svg width="1920" height="892" fill="none" xmlns="http://www.w3.org/2000/svg"><g clip-path="url(#a)"><path fill="#fff" d="M0 0h1920v892H0z"/><g filter="url(#b)"><path fill-rule="evenodd" clip-rule="evenodd" d="M148.176 168.52c58.169-.426 122.66-40.749 170.087-7.183 47.394 33.544 32.475 106.816 49.114 162.323 16.075 53.623 67.75 105.202 46.626 157.056-21.25 52.162-91.707 59.483-143.753 81.368-39.614 16.657-79.184 27.414-122.074 30.408-46.268 3.23-98.305 15.608-135.165-12.45-36.735-27.964-29.87-83.642-47.181-126.357-19.231-47.451-62.208-86.316-59.727-137.431 2.803-57.764 24.307-122.235 73.795-152.437 49.055-29.938 110.758 5.125 168.278 4.703Z" fill="#E336DC" fill-opacity=".15"/></g><g filter="url(#c)"><path fill-rule="evenodd" clip-rule="evenodd" d="M703.118 407.684c53.278-4.452 109.325 13.182 146.579 42.517 34.818 27.417 31.848 69.521 42.933 106.71 9.854 33.06 31.47 65.895 18.156 98.244-13.372 32.491-54.201 51.616-88.736 73.25-37.052 23.211-71.746 50.209-118.932 56.842-52.962 7.446-111.405 5.002-155.789-18.222-44.854-23.469-73.494-63.826-79.694-104.99-5.666-37.621 27.904-69.994 48.126-104.591 17.699-30.281 32.405-60.555 62.43-84.556 35.695-28.531 73.48-60.905 124.927-65.204Z" fill="#E38936" fill-opacity=".15"/></g><g filter="url(#d)"><path fill-rule="evenodd" clip-rule="evenodd" d="M1595.26 95.863c67.07-5.617 137.63 16.633 184.53 53.647 43.83 34.594 40.09 87.721 54.05 134.645 12.4 41.714 39.62 83.144 22.86 123.962-16.84 40.996-68.24 65.128-111.72 92.426-46.64 29.286-90.32 63.352-149.72 71.722-66.68 9.394-140.25 6.31-196.13-22.992-56.47-29.613-92.52-80.535-100.33-132.474-7.13-47.47 35.13-88.318 60.59-131.972 22.28-38.208 40.79-76.407 78.59-106.69 44.94-36.001 92.51-76.85 157.28-82.274Z" fill="#36BAE3" fill-opacity=".15"/></g><g filter="url(#e)"><path fill-rule="evenodd" clip-rule="evenodd" d="M1662.02 510.896c31.34 5.461 44.43 42.658 69.81 61.95 24.62 18.723 64.48 20.197 76.09 48.975 11.64 28.833-12.94 58.529-20.55 88.69-8.35 33.099-.28 74.311-26.15 96.415-25.98 22.205-65.11 10.228-99.2 10.696-34.67.477-72.12 11.091-101.18-7.943-29.51-19.319-38.65-57.184-49.66-90.83-11.05-33.784-25.57-69.619-13.81-103.161 11.66-33.26 45.14-51.818 74.76-70.671 27.75-17.658 57.55-39.757 89.89-34.121Z" fill="#3671E3" fill-opacity=".15"/></g></g><defs><filter id="b" x="-294" y="-52" width="913" height="850" filterUnits="userSpaceOnUse" color-interpolation-filters="sRGB"><feFlood flood-opacity="0" result="BackgroundImageFix"/><feBlend in="SourceGraphic" in2="BackgroundImageFix" result="shape"/><feGaussianBlur stdDeviation="100" result="effect1_foregroundBlur"/></filter><filter id="c" x="267" y="207" width="848" height="782" filterUnits="userSpaceOnUse" color-interpolation-filters="sRGB"><feFlood flood-opacity="0" result="BackgroundImageFix"/><feBlend in="SourceGraphic" in2="BackgroundImageFix" result="shape"/><feGaussianBlur stdDeviation="100" result="effect1_foregroundBlur"/></filter><filter id="d" x="998" y="-205" width="1164" height="1082" filterUnits="userSpaceOnUse" color-interpolation-filters="sRGB"><feFlood flood-opacity="0" result="BackgroundImageFix"/><feBlend in="SourceGraphic" in2="BackgroundImageFix" result="shape"/><feGaussianBlur stdDeviation="150" result="effect1_foregroundBlur"/></filter><filter id="e" x="1293" y="310" width="718" height="711" filterUnits="userSpaceOnUse" color-interpolation-filters="sRGB"><feFlood flood-opacity="0" result="BackgroundImageFix"/><feBlend in="SourceGraphic" in2="BackgroundImageFix" result="shape"/><feGaussianBlur stdDeviation="100" result="effect1_foregroundBlur"/></filter><clipPath id="a"><path fill="#fff" d="M0 0h1920v892H0z"/></clipPath></defs></svg>