<svg width="244" height="12" viewBox="0 0 244 12" fill="none" xmlns="http://www.w3.org/2000/svg">
	<path fill-rule="evenodd" clip-rule="evenodd" d="M0 6C2.41411e-08 5.72386 0.223858 5.5 0.5 5.5L3.03125 5.5C3.30739 5.5 3.53125 5.72386 3.53125 6C3.53125 6.27614 3.30739 6.5 3.03125 6.5L0.5 6.5C0.223858 6.5 -2.41411e-08 6.27614 0 6ZM7.59375 6C7.59375 5.72386 7.81761 5.5 8.09375 5.5L13.1562 5.5C13.4324 5.5 13.6563 5.72386 13.6562 6C13.6562 6.27614 13.4324 6.5 13.1562 6.5L8.09375 6.5C7.81761 6.5 7.59375 6.27614 7.59375 6ZM17.7188 6C17.7188 5.72386 17.9426 5.5 18.2188 5.5L23.2812 5.5C23.5574 5.5 23.7813 5.72386 23.7812 6C23.7812 6.27614 23.5574 6.5 23.2812 6.5L18.2188 6.5C17.9426 6.5 17.7187 6.27614 17.7188 6ZM27.8438 6C27.8438 5.72386 28.0676 5.5 28.3438 5.5L33.4062 5.5C33.6824 5.5 33.9063 5.72386 33.9062 6C33.9062 6.27615 33.6824 6.5 33.4062 6.5L28.3438 6.5C28.0676 6.5 27.8437 6.27614 27.8438 6ZM37.9688 6C37.9688 5.72386 38.1926 5.5 38.4688 5.5L43.5312 5.5C43.8074 5.5 44.0313 5.72386 44.0312 6C44.0312 6.27615 43.8074 6.5 43.5312 6.5L38.4688 6.5C38.1926 6.5 37.9687 6.27615 37.9688 6ZM48.0938 6C48.0938 5.72386 48.3176 5.5 48.5938 5.5L53.6562 5.5C53.9324 5.5 54.1563 5.72386 54.1562 6C54.1562 6.27615 53.9324 6.5 53.6562 6.5L48.5938 6.5C48.3176 6.5 48.0937 6.27615 48.0938 6ZM58.2188 6.00001C58.2188 5.72386 58.4426 5.50001 58.7188 5.50001L63.7812 5.50001C64.0574 5.50001 64.2813 5.72386 64.2812 6.00001C64.2812 6.27615 64.0574 6.50001 63.7812 6.50001L58.7188 6.50001C58.4426 6.50001 58.2187 6.27615 58.2188 6.00001ZM68.3438 6.00001C68.3438 5.72386 68.5676 5.50001 68.8438 5.50001L73.9062 5.50001C74.1824 5.50001 74.4063 5.72386 74.4062 6.00001C74.4062 6.27615 74.1824 6.50001 73.9062 6.50001L68.8438 6.50001C68.5676 6.50001 68.3437 6.27615 68.3438 6.00001ZM78.4688 6.00001C78.4688 5.72386 78.6926 5.50001 78.9688 5.50001L84.0312 5.50001C84.3074 5.50001 84.5313 5.72387 84.5312 6.00001C84.5312 6.27615 84.3074 6.50001 84.0312 6.50001L78.9688 6.50001C78.6926 6.50001 78.4687 6.27615 78.4688 6.00001ZM88.5938 6.00001C88.5938 5.72387 88.8176 5.50001 89.0938 5.50001L94.1562 5.50001C94.4324 5.50001 94.6563 5.72387 94.6562 6.00001C94.6562 6.27615 94.4324 6.50001 94.1562 6.50001L89.0938 6.50001C88.8176 6.50001 88.5937 6.27615 88.5938 6.00001ZM98.7188 6.00001C98.7188 5.72387 98.9426 5.50001 99.2188 5.50001L104.281 5.50001C104.557 5.50001 104.781 5.72387 104.781 6.00001C104.781 6.27615 104.557 6.50001 104.281 6.50001L99.2188 6.50001C98.9426 6.50001 98.7187 6.27615 98.7188 6.00001ZM108.844 6.00001C108.844 5.72387 109.068 5.50001 109.344 5.50001L114.406 5.50001C114.682 5.50001 114.906 5.72387 114.906 6.00001C114.906 6.27615 114.682 6.50001 114.406 6.50001L109.344 6.50001C109.068 6.50001 108.844 6.27615 108.844 6.00001ZM118.969 6.00001C118.969 5.72387 119.193 5.50001 119.469 5.50001L124.531 5.50001C124.807 5.50001 125.031 5.72387 125.031 6.00001C125.031 6.27615 124.807 6.50001 124.531 6.50001L119.469 6.50001C119.193 6.50001 118.969 6.27615 118.969 6.00001ZM129.094 6.00001C129.094 5.72387 129.318 5.50001 129.594 5.50001L134.656 5.50001C134.932 5.50001 135.156 5.72387 135.156 6.00001C135.156 6.27615 134.932 6.50001 134.656 6.50001L129.594 6.50001C129.318 6.50001 129.094 6.27615 129.094 6.00001ZM139.219 6.00001C139.219 5.72387 139.443 5.50001 139.719 5.50001L144.781 5.50001C145.057 5.50001 145.281 5.72387 145.281 6.00001C145.281 6.27616 145.057 6.50001 144.781 6.50001L139.719 6.50001C139.443 6.50001 139.219 6.27615 139.219 6.00001ZM149.344 6.00001C149.344 5.72387 149.568 5.50001 149.844 5.50001L154.906 5.50001C155.182 5.50001 155.406 5.72387 155.406 6.00001C155.406 6.27616 155.182 6.50001 154.906 6.50001L149.844 6.50001C149.568 6.50001 149.344 6.27616 149.344 6.00001ZM159.469 6.00001C159.469 5.72387 159.693 5.50001 159.969 5.50001L165.031 5.50001C165.307 5.50001 165.531 5.72387 165.531 6.00001C165.531 6.27616 165.307 6.50001 165.031 6.50001L159.969 6.50001C159.693 6.50001 159.469 6.27616 159.469 6.00001ZM169.594 6.00001C169.594 5.72387 169.818 5.50001 170.094 5.50001L175.156 5.50002C175.432 5.50002 175.656 5.72387 175.656 6.00002C175.656 6.27616 175.432 6.50002 175.156 6.50002L170.094 6.50001C169.818 6.50001 169.594 6.27616 169.594 6.00001ZM179.719 6.00002C179.719 5.72387 179.943 5.50002 180.219 5.50002L185.281 5.50002C185.557 5.50002 185.781 5.72387 185.781 6.00002C185.781 6.27616 185.557 6.50002 185.281 6.50002L180.219 6.50002C179.943 6.50002 179.719 6.27616 179.719 6.00002ZM189.844 6.00002C189.844 5.72387 190.068 5.50002 190.344 5.50002L195.406 5.50002C195.682 5.50002 195.906 5.72387 195.906 6.00002C195.906 6.27616 195.682 6.50002 195.406 6.50002L190.344 6.50002C190.068 6.50002 189.844 6.27616 189.844 6.00002ZM199.969 6.00002C199.969 5.72388 200.193 5.50002 200.469 5.50002L205.531 5.50002C205.807 5.50002 206.031 5.72388 206.031 6.00002C206.031 6.27616 205.807 6.50002 205.531 6.50002L200.469 6.50002C200.193 6.50002 199.969 6.27616 199.969 6.00002ZM210.094 6.00002C210.094 5.72388 210.318 5.50002 210.594 5.50002L215.656 5.50002C215.932 5.50002 216.156 5.72388 216.156 6.00002C216.156 6.27616 215.932 6.50002 215.656 6.50002L210.594 6.50002C210.318 6.50002 210.094 6.27616 210.094 6.00002ZM220.219 6.00002C220.219 5.72388 220.443 5.50002 220.719 5.50002L225.781 5.50002C226.057 5.50002 226.281 5.72388 226.281 6.00002C226.281 6.27616 226.057 6.50002 225.781 6.50002L220.719 6.50002C220.443 6.50002 220.219 6.27616 220.219 6.00002ZM230.344 6.00002C230.344 5.72388 230.568 5.50002 230.844 5.50002L235.906 5.50002C236.182 5.50002 236.406 5.72388 236.406 6.00002C236.406 6.27616 236.182 6.50002 235.906 6.50002L230.844 6.50002C230.568 6.50002 230.344 6.27616 230.344 6.00002ZM240.469 6.00002C240.469 5.72388 240.693 5.50002 240.969 5.50002L243.5 5.50002C243.776 5.50002 244 5.72388 244 6.00002C244 6.27616 243.776 6.50002 243.5 6.50002L240.969 6.50002C240.693 6.50002 240.469 6.27616 240.469 6.00002Z" fill="#D8D8D8"/>
	<path fill-rule="evenodd" clip-rule="evenodd" d="M119.646 0.646447C119.842 0.451184 120.158 0.451184 120.354 0.646447L125.354 5.64645C125.549 5.84171 125.549 6.15829 125.354 6.35355L120.354 11.3536C120.158 11.5488 119.842 11.5488 119.646 11.3536C119.451 11.1583 119.451 10.8417 119.646 10.6464L124.293 6L119.646 1.35355C119.451 1.15829 119.451 0.841709 119.646 0.646447Z" fill="#D8D8D8"/>
</svg>
