<svg xmlns="http://www.w3.org/2000/svg" width="436" height="12" fill="#d8d8d8" fill-rule="evenodd"><path d="M0 6.03a.5.5 0 0 1 .5-.5h2.472a.5.5 0 1 1 0 1H.5a.5.5 0 0 1-.5-.5zm7.415 0a.5.5 0 0 1 .5-.5h4.943a.5.5 0 1 1 0 1H7.915a.5.5 0 0 1-.5-.5zm9.886 0a.5.5 0 0 1 .5-.5h4.943a.5.5 0 1 1 0 1h-4.943a.5.5 0 0 1-.5-.5zm9.886 0a.5.5 0 0 1 .5-.5h4.943a.5.5 0 1 1 0 1h-4.943a.5.5 0 0 1-.5-.5zm9.886 0a.5.5 0 0 1 .5-.5h4.943a.5.5 0 1 1 0 1h-4.943a.5.5 0 0 1-.5-.5zm9.886 0a.5.5 0 0 1 .5-.5h4.943a.5.5 0 1 1 0 1H47.46a.5.5 0 0 1-.5-.5zm9.886 0a.5.5 0 0 1 .5-.5h4.943a.5.5 0 1 1 0 1h-4.943a.5.5 0 0 1-.5-.5zm9.886 0a.5.5 0 0 1 .5-.5h4.943a.5.5 0 1 1 0 1h-4.943a.5.5 0 0 1-.5-.5zm9.886 0a.5.5 0 0 1 .5-.5h4.943a.5.5 0 1 1 0 1h-4.943a.5.5 0 0 1-.5-.5zm9.886 0a.5.5 0 0 1 .5-.5h4.943a.5.5 0 1 1 0 1h-4.943a.5.5 0 0 1-.5-.5zm9.886 0a.5.5 0 0 1 .5-.5h4.943a.5.5 0 1 1 0 1h-4.943a.5.5 0 0 1-.5-.5zm9.886 0a.5.5 0 0 1 .5-.5h4.944a.5.5 0 1 1 0 1h-4.944a.5.5 0 0 1-.5-.5zm9.887 0a.5.5 0 0 1 .5-.5h4.943a.5.5 0 1 1 0 1h-4.943a.5.5 0 0 1-.5-.5zm9.886 0a.5.5 0 0 1 .5-.5h4.943a.5.5 0 1 1 0 1h-4.943a.5.5 0 0 1-.5-.5zm9.887 0a.5.5 0 0 1 .5-.5h4.943a.5.5 0 1 1 0 1h-4.943a.5.5 0 0 1-.5-.5zm9.886 0a.5.5 0 0 1 .5-.5h4.943a.5.5 0 1 1 0 1h-4.943a.5.5 0 0 1-.5-.5zm9.886 0a.5.5 0 0 1 .5-.5h4.943a.5.5 0 1 1 0 1h-4.943a.5.5 0 0 1-.5-.5zm9.887 0a.5.5 0 0 1 .5-.5h4.943a.5.5 0 1 1 0 1h-4.943a.5.5 0 0 1-.5-.5zm9.886 0a.5.5 0 0 1 .5-.5h4.943a.5.5 0 1 1 0 1h-4.943a.5.5 0 0 1-.5-.5zm9.886 0a.5.5 0 0 1 .5-.5h4.943a.5.5 0 1 1 0 1h-4.943a.5.5 0 0 1-.5-.5zm9.887 0a.5.5 0 0 1 .5-.5h4.943a.5.5 0 1 1 0 1h-4.943a.5.5 0 0 1-.5-.5zm9.886 0a.5.5 0 0 1 .5-.5h4.943a.5.5 0 1 1 0 1h-4.943a.5.5 0 0 1-.5-.5zm9.886 0a.5.5 0 0 1 .5-.5h4.944a.5.5 0 1 1 0 1h-4.944a.5.5 0 0 1-.5-.5zm9.887 0a.5.5 0 0 1 .5-.5h4.943a.5.5 0 1 1 0 1h-4.943a.5.5 0 0 1-.5-.5zm9.886 0a.5.5 0 0 1 .5-.5h4.943a.5.5 0 1 1 0 1h-4.943a.5.5 0 0 1-.5-.5zm9.886 0a.5.5 0 0 1 .5-.5h4.944a.5.5 0 1 1 0 1h-4.944a.5.5 0 0 1-.5-.5zm9.887 0a.5.5 0 0 1 .5-.5h4.943a.5.5 0 1 1 0 1h-4.943a.5.5 0 0 1-.5-.5zm9.886 0a.5.5 0 0 1 .5-.5h4.943a.5.5 0 1 1 0 1h-4.943a.5.5 0 0 1-.5-.5zm9.886 0a.5.5 0 0 1 .5-.5h4.944a.5.5 0 1 1 0 1h-4.944a.5.5 0 0 1-.5-.5zm9.887 0a.5.5 0 0 1 .5-.5h4.943a.5.5 0 1 1 0 1h-4.943a.5.5 0 0 1-.5-.5zm9.886 0a.5.5 0 0 1 .5-.5h4.943a.5.5 0 1 1 0 1h-4.943a.5.5 0 0 1-.5-.5zm9.887 0a.5.5 0 0 1 .5-.5h4.943a.5.5 0 1 1 0 1h-4.943a.5.5 0 0 1-.5-.5zm9.886 0a.5.5 0 0 1 .5-.5h4.943a.5.5 0 1 1 0 1h-4.943a.5.5 0 0 1-.5-.5zm9.886 0a.5.5 0 0 1 .5-.5h4.943a.5.5 0 1 1 0 1h-4.943a.5.5 0 0 1-.5-.5zm9.887 0a.5.5 0 0 1 .5-.5h4.943a.5.5 0 1 1 0 1h-4.943a.5.5 0 0 1-.5-.5zm9.886 0a.5.5 0 0 1 .5-.5h4.943a.5.5 0 1 1 0 1h-4.943a.5.5 0 0 1-.5-.5zm9.886 0a.5.5 0 0 1 .5-.5h4.943a.5.5 0 1 1 0 1h-4.943a.5.5 0 0 1-.5-.5zm9.887 0a.5.5 0 0 1 .5-.5h4.943a.5.5 0 1 1 0 1h-4.943a.5.5 0 0 1-.5-.5zm9.886 0a.5.5 0 0 1 .5-.5h4.943a.5.5 0 1 1 0 1h-4.943a.5.5 0 0 1-.5-.5zm9.886 0a.5.5 0 0 1 .5-.5h4.944a.5.5 0 1 1 0 1h-4.944a.5.5 0 0 1-.5-.5zm9.887 0a.5.5 0 0 1 .5-.5h4.943a.5.5 0 1 1 0 1h-4.943a.5.5 0 0 1-.5-.5zm9.886 0a.5.5 0 0 1 .5-.5h4.943a.5.5 0 1 1 0 1h-4.943a.5.5 0 0 1-.5-.5zm9.886 0a.5.5 0 0 1 .5-.5h4.944a.5.5 0 1 1 0 1h-4.944a.5.5 0 0 1-.5-.5zm9.887 0a.5.5 0 0 1 .5-.5h4.943a.5.5 0 1 1 0 1h-4.943a.5.5 0 0 1-.5-.5zm9.886 0a.5.5 0 0 1 .5-.5h2.472a.5.5 0 1 1 0 1h-2.472a.5.5 0 0 1-.5-.5z"/><path d="M157.003.657a.5.5 0 0 1 .707 0l5 5a.5.5 0 0 1 0 .707l-5 5a.5.5 0 0 1-.707-.707l4.646-4.646-4.646-4.646a.5.5 0 0 1 0-.707zM265.779.646a.5.5 0 0 1 .707 0l5 5a.5.5 0 0 1 0 .707l-5 5a.5.5 0 0 1-.707-.707L270.426 6l-4.647-4.646a.5.5 0 0 1 0-.707z"/></svg>
