<svg xmlns="http://www.w3.org/2000/svg" width="48" height="48" fill="none"><g fill="#3bd640"><path d="M36.86 25.991c5.774 0 10.454-4.68 10.454-10.454S42.633 5.083 36.86 5.083s-10.454 4.68-10.454 10.454 4.68 10.454 10.454 10.454z" fill-opacity=".12"/><path d="M44.251 8.145C41.668 5.562 38.069 4.614 34.74 5.3c1.932.398 3.773 1.346 5.273 2.845 4.082 4.082 4.082 10.701 0 14.784-1.499 1.499-3.34 2.447-5.273 2.845 3.329.686 6.928-.262 9.511-2.845 4.082-4.082 4.082-10.701 0-14.784z" fill-opacity=".32"/></g><path d="M41.36 18.067c0 .924-.334 1.686-1.002 2.286s-1.632.969-2.893 1.109v1.439c0 .351-.282.636-.629.636s-.629-.285-.629-.636v-1.382c-1.299-.021-2.404-.192-3.316-.513-.329-.116-.532-.441-.532-.793 0-.664.697-1.114 1.325-.921l.575.161c.725.178 1.374.271 1.947.277v-3.577l-.794-.296c-1.034-.402-1.79-.88-2.269-1.434-.473-.561-.709-1.253-.709-2.075a2.71 2.71 0 0 1 1.012-2.171c.681-.567 1.601-.912 2.76-1.033v-.971c0-.351.282-.636.629-.636s.629.285.629.636v.942c.96.033 1.882.189 2.767.466.491.154.719.707.529 1.19s-.734.718-1.229.568a9.67 9.67 0 0 0-2.067-.397v3.481l.718.277c1.197.466 2.026.956 2.486 1.473s.69 1.148.69 1.894zm-2.231.143c0-.37-.129-.673-.388-.909-.252-.242-.678-.475-1.276-.698v3.051c1.109-.172 1.664-.653 1.664-1.444zm-4.472-5.882c0 .364.11.666.331.909.227.242.633.481 1.219.717V10.98c-.504.076-.889.233-1.153.469a1.13 1.13 0 0 0-.397.88z" fill="#04b70a"/><path d="M27.737 20.027l-3.136 3.136c-.348.348-.819.543-1.317.543h-.026c-.822 0-1.784-.796-1.996-1.589V14.93l2.648-2.179 3.011-.462c-1.419-.35.208-.909 3.078-4.845l-6.191-.774a3.48 3.48 0 0 0-2.631.774l-6.72 5.559a6.13 6.13 0 0 0-2.001 3.093c-.749 2.714-2.184 7.66-3.186 9.569L4.266 30.67l8.664 8.664 2.41-2.41a3.8 3.8 0 0 1 1.628-.962l5.033-1.695a8.72 8.72 0 0 0 4.009-2.839l2.547-3.222 7.446-7.446c.858-.858 1.223-1.885.365-2.743-1.352-1.68-6.29-.333-8.631 2.009z" fill="#fff2e0"/><path d="M36.369 18.018c-.231-.287-.568-.486-.979-.606-1.037-.304-2.157.02-2.918.788l-6.947 6.976-2.547 3.222c-1.037 1.311-2.429 2.297-4.01 2.839l-5.033 1.695c-.874.257-1.803.042-2.437-.592l-4.45-4.45-2.783 2.783 8.664 8.664 2.41-2.41.193-.179.207-.167a3.8 3.8 0 0 1 1.229-.616l5.033-1.695a8.72 8.72 0 0 0 4.01-2.839l2.547-3.222 7.446-7.446c.858-.858 1.223-1.885.365-2.743z" fill="#f1cda0"/><path d="M35.71 20.529a2.53 2.53 0 0 0-3.579 0l-1.124 1.124c-.509.509-.509 1.334 0 1.842l1.131 1.131 3.835-3.835-.263-.263z" fill="#f7e7d5"/><g fill="#04b70a"><path d="M10.993 42.639L.965 32.61a.95.95 0 0 1 0-1.346l2.768-2.768a.95.95 0 0 1 1.346 0l10.028 10.028a.95.95 0 0 1 0 1.346l-2.768 2.768a.95.95 0 0 1-1.346 0z"/><path d="M15.108 38.524L5.079 28.496a.95.95 0 0 0-1.346 0L1.699 30.53a.95.95 0 0 1 1.346 0l10.028 10.028a.95.95 0 0 1 0 1.346l2.034-2.034a.95.95 0 0 0 0-1.346z"/></g><path d="M11.31 40.087a1.35 1.35 0 1 0 0-2.703 1.35 1.35 0 1 0 0 2.703z" fill="#fff"/><path d="M13.349 38.736a2.04 2.04 0 0 0-2.039-2.039 2.04 2.04 0 0 0-2.039 2.039 2.04 2.04 0 0 0 2.039 2.039 2.04 2.04 0 0 0 2.039-2.039zm-2.703 0c0-.367.298-.665.665-.665s.665.298.665.665-.298.665-.665.665-.665-.298-.665-.665zM44.737 7.66c-1.961-1.961-4.565-3.115-7.333-3.25-2.65-.129-5.241.683-7.33 2.29l-6.184-.713c-1.127-.135-2.276.203-3.151.927l-6.72 5.559c-1.082.895-1.852 2.085-2.226 3.44l-3.085 9.342-2.949 2.949-.194-.194a1.63 1.63 0 0 0-1.159-.48c-.438 0-.849.17-1.159.48L.479 30.778a1.64 1.64 0 0 0 0 2.317l.734.734a.69.69 0 0 0 .972 0c.269-.268.268-.703 0-.972l-.734-.734c-.067-.067-.077-.146-.077-.187s.01-.12.077-.187l2.768-2.768c.067-.067.146-.077.187-.077s.12.01.187.077L14.622 39.01c.067.067.077.146.077.187s-.01.12-.077.187l-2.769 2.768c-.067.067-.146.077-.187.077s-.12-.01-.187-.077l-6.186-6.186a.69.69 0 0 0-.972 0c-.269.268-.268.703 0 .972l6.186 6.186c.319.319.739.479 1.159.479s.839-.16 1.159-.479l2.768-2.768a1.63 1.63 0 0 0 .48-1.159c0-.438-.17-.849-.48-1.159l-.198-.198.43-.43a3.12 3.12 0 0 1 1.334-.788l.028-.009 5.037-1.696c1.709-.586 3.205-1.645 4.325-3.063l2.523-3.19 7.418-7.418c1.248-1.248 1.395-2.658.39-3.689-.483-.579-1.277-.913-2.3-.968-2.33-.127-5.548 1.171-7.329 2.952l-3.136 3.137a1.17 1.17 0 0 1-.831.342h-.026c-.474 0-1.129-.513-1.309-1.006v-6.76l2.252-1.853 1.78-.273a11.19 11.19 0 0 0 .002 4.827c.071.321.355.539.67.539a.69.69 0 0 0 .149-.016c.37-.082.604-.449.522-.819-.377-1.702-.293-3.476.242-5.132l.008-.024a9.66 9.66 0 0 1 2.379-3.87 9.95 9.95 0 0 1 .738-.667c.006-.004.011-.009.016-.013a9.75 9.75 0 0 1 6.63-2.169c2.426.118 4.709 1.13 6.428 2.849a9.7 9.7 0 0 1 2.861 6.906 9.7 9.7 0 0 1-2.861 6.906c-2.432 2.432-6.015 3.41-9.351 2.551a.69.69 0 0 0-.837.494.69.69 0 0 0 .494.837 11.18 11.18 0 0 0 5.632-.015 11.13 11.13 0 0 0 5.033-2.896A11.07 11.07 0 0 0 48 15.537a11.07 11.07 0 0 0-3.263-7.878zM32.138 23.655l-.646-.646a.61.61 0 0 1-.18-.435.61.61 0 0 1 .18-.435l1.124-1.124a1.84 1.84 0 0 1 2.366-.204l-2.844 2.844zm-5.73-11.983l-2.601.399a.69.69 0 0 0-.332.149l-2.648 2.179c-.159.13-.25.325-.25.531v7.188c0 .06.008.119.023.177.299 1.118 1.541 2.099 2.66 2.099h.026a2.53 2.53 0 0 0 1.803-.745l3.136-3.136c1.512-1.512 4.33-2.656 6.283-2.552.446.024 1.038.128 1.328.487l.049.055c.146.146.54.541.036 1.294-1.262-1.002-3.108-.921-4.274.245l-1.124 1.124c-.376.376-.583.875-.583 1.407s.207 1.031.583 1.407l.645.645-3.094 3.095a.7.7 0 0 0-.053.06l-2.547 3.222c-.957 1.21-2.234 2.114-3.69 2.614l-5.019 1.69a4.5 4.5 0 0 0-1.908 1.132l-.43.43-7.693-7.693 3.025-3.025a.7.7 0 0 0 .123-.167c1.028-1.96 2.471-6.922 3.239-9.706a5.42 5.42 0 0 1 1.777-2.747l6.72-5.559c.586-.485 1.356-.711 2.111-.621l4.994.577a11 11 0 0 0-2.313 3.744z" fill="#333"/></svg>
