<svg width="160" height="48" viewBox="0 0 160 48" fill="none" xmlns="http://www.w3.org/2000/svg">
	<rect width="48" height="48" rx="8" fill="#333333"></rect>
	<path fill-rule="evenodd" clip-rule="evenodd"
		d="M19.9156 14.1675V17.501L15.1268 23.3644V15.6362H13V12.7046H19.9156V14.1675Z" fill="#FFA800"></path>
	<path fill-rule="evenodd" clip-rule="evenodd"
		d="M34.3894 35.3478L24.854 23.3944L33.7894 12.821H27.8809L15.1332 28.887V35.3478H19.9219V28.4275L21.6762 26.332L28.4847 35.3478H34.3894Z"
		fill="white"></path>
	<path
		d="M73.9297 27H69.2891L64.2397 18.8789L62.5127 20.1182V27H58.4258V7.72559H62.5127V16.5454L64.1211 14.2778L69.3418 7.72559H73.877L67.1533 16.2554L73.9297 27ZM95.1289 27H90.4751L87.8647 16.875C87.7681 16.5146 87.6011 15.772 87.3638 14.647C87.1353 13.5132 87.0034 12.7529 86.9683 12.3662C86.9155 12.8408 86.7837 13.6055 86.5728 14.6602C86.3618 15.7061 86.1992 16.4531 86.085 16.9014L83.4878 27H78.8472L73.9297 7.72559H77.9507L80.416 18.2461C80.8467 20.1885 81.1587 21.8716 81.3521 23.2954C81.4048 22.7944 81.5234 22.021 81.708 20.9751C81.9014 19.9204 82.0815 19.103 82.2485 18.5229L85.0566 7.72559H88.9194L91.7275 18.5229C91.8506 19.0063 92.0044 19.7446 92.189 20.7378C92.3735 21.731 92.5142 22.5835 92.6108 23.2954C92.6987 22.6099 92.8394 21.7573 93.0327 20.7378C93.2261 19.7095 93.4019 18.8789 93.5601 18.2461L96.0122 7.72559H100.033L95.1289 27ZM119.954 17.3364C119.954 20.5269 119.163 22.979 117.581 24.6929C115.999 26.4067 113.731 27.2637 110.778 27.2637C107.825 27.2637 105.557 26.4067 103.975 24.6929C102.393 22.979 101.602 20.5181 101.602 17.3101C101.602 14.1021 102.393 11.6543 103.975 9.9668C105.566 8.27051 107.842 7.42236 110.804 7.42236C113.766 7.42236 116.029 8.2749 117.594 9.97998C119.167 11.6851 119.954 14.1372 119.954 17.3364ZM105.887 17.3364C105.887 19.4897 106.295 21.1113 107.113 22.2012C107.93 23.291 109.152 23.8359 110.778 23.8359C114.039 23.8359 115.669 21.6694 115.669 17.3364C115.669 12.9946 114.047 10.8237 110.804 10.8237C109.178 10.8237 107.952 11.373 107.126 12.4717C106.3 13.5615 105.887 15.1831 105.887 17.3364ZM128.035 16.2817H129.354C130.646 16.2817 131.599 16.0664 132.214 15.6357C132.83 15.2051 133.137 14.5283 133.137 13.6055C133.137 12.6914 132.821 12.041 132.188 11.6543C131.564 11.2676 130.593 11.0742 129.274 11.0742H128.035V16.2817ZM128.035 19.604V27H123.948V7.72559H129.564C132.184 7.72559 134.122 8.20459 135.378 9.1626C136.635 10.1118 137.264 11.5576 137.264 13.5C137.264 14.6338 136.952 15.6445 136.328 16.5322C135.704 17.4111 134.82 18.1011 133.678 18.6021C136.578 22.9351 138.468 25.7344 139.347 27H134.812L130.21 19.604H128.035ZM157.276 27H152.636L147.586 18.8789L145.859 20.1182V27H141.772V7.72559H145.859V16.5454L147.468 14.2778L152.688 7.72559H157.224L150.5 16.2554L157.276 27Z"
		fill="#111111"></path>
</svg>