<?xml version="1.0" encoding="utf-8"?>
<svg xmlns="http://www.w3.org/2000/svg" xmlns:xlink="http://www.w3.org/1999/xlink" width="18" height="19" viewBox="0 0 18 19" fill="none">
<path d="M4.41421 1.58579C4.78929 1.21071 5.29799 1 5.82843 1H12.1716C12.702 1 13.2107 1.21071 13.5858 1.58579L17.4142 5.41421C17.7893 5.78929 18 6.29799 18 6.82843V13.1716C18 13.702 17.7893 14.2107 17.4142 14.5858L13.5858 18.4142C13.2107 18.7893 12.702 19 12.1716 19H5.82843C5.29799 19 4.78929 18.7893 4.41421 18.4142L0.585786 14.5858C0.210713 14.2107 0 13.702 0 13.1716V6.82843C0 6.29799 0.210714 5.78929 0.585786 5.41421L4.41421 1.58579Z" fill="#F05B5B"/>
<path d="M9.53613 11.9648H8.34668L7.99121 5.00586H9.88477L9.53613 11.9648ZM7.90918 14.1455C7.90918 13.8083 7.99805 13.5531 8.17578 13.3799C8.35352 13.2021 8.60645 13.1133 8.93457 13.1133C9.25814 13.1133 9.50651 13.2044 9.67969 13.3867C9.85286 13.569 9.93945 13.8219 9.93945 14.1455C9.93945 14.4691 9.85059 14.7266 9.67285 14.918C9.49967 15.1048 9.25358 15.1982 8.93457 15.1982C8.611 15.1982 8.35807 15.1071 8.17578 14.9248C7.99805 14.7425 7.90918 14.4827 7.90918 14.1455Z" fill="white"/>
</svg>
