<?xml version="1.0" encoding="utf-8"?>
<svg width="20" height="19" viewBox="0 0 20 19" fill="none" xmlns="http://www.w3.org/2000/svg">
<path d="M10.8619 1.46529L19.1135 15.493C19.5057 16.1596 19.025 17 18.2516 17L1.74841 17C0.974998 17 0.494343 16.1596 0.88648 15.493L9.13807 1.46529C9.52472 0.807982 10.4753 0.807983 10.8619 1.46529Z" fill="#FAA639"/>
<path d="M10.5361 11.9648H9.34668L8.99121 5.00586H10.8848L10.5361 11.9648ZM8.90918 14.1455C8.90918 13.8083 8.99805 13.5531 9.17578 13.3799C9.35352 13.2021 9.60645 13.1133 9.93457 13.1133C10.2581 13.1133 10.5065 13.2044 10.6797 13.3867C10.8529 13.569 10.9395 13.8219 10.9395 14.1455C10.9395 14.4691 10.8506 14.7266 10.6729 14.918C10.4997 15.1048 10.2536 15.1982 9.93457 15.1982C9.611 15.1982 9.35807 15.1071 9.17578 14.9248C8.99805 14.7425 8.90918 14.4827 8.90918 14.1455Z" fill="white"/>
</svg>
