<svg width="224" height="40" viewBox="0 0 224 40" fill="none" xmlns="http://www.w3.org/2000/svg">
<g clip-path="url(#clip0)">
<path opacity="0.58" d="M222.932 3.81336L218.475 5.55299C216.51 6.31336 216.51 7.40783 218.475 8.1682L221.438 9.32027C224.885 10.6567 224.885 12.5346 221.438 13.8594L218.475 15.0115C216.51 15.7719 216.51 16.8548 218.475 17.6267L221.438 18.7788C224.885 20.1152 224.885 21.9931 221.438 23.318L218.475 24.47C216.51 25.2419 216.51 26.3249 218.475 27.0968L221.438 28.2488C224.885 29.5852 224.885 31.4631 221.438 32.788L218.475 33.9401C216.51 34.712 216.51 35.7949 218.475 36.5668L222.576 38.1567C224.471 38.894 222.759 39.9885 219.692 39.9885H0V2.13133H220.267C223.104 2.13133 224.689 3.13364 222.932 3.81336Z" fill="url(#paint0_linear)"/>
<path d="M222.932 1.68203L218.475 3.45622C216.51 4.22811 216.51 5.31106 218.475 6.08295L221.438 7.23502C224.885 8.55991 224.885 10.4378 221.438 11.7742L218.475 12.9263C216.51 13.6982 216.51 14.7811 218.475 15.5415L221.438 16.6935C224.885 18.0184 224.885 19.8963 221.438 21.2327L218.475 22.3848C216.51 23.1567 216.51 24.2396 218.475 25L221.438 26.1521C224.885 27.477 224.885 29.3548 221.438 30.6797L218.475 31.8318C216.51 32.5922 216.51 33.6751 218.475 34.447L222.576 36.0484C224.471 36.7857 222.759 37.8687 219.692 37.8687H0V0H220.267C223.104 0 224.689 1.0023 222.932 1.68203Z" fill="url(#paint1_linear)"/>
<path d="M40.7565 13.8249H35.9664V11.2558H48.6597V13.8249H43.8236V28.1106H40.7565V13.8249Z" fill="black"/>
<path d="M60.1354 21.8894C60.1992 22.7379 60.0834 23.5903 59.7957 24.3908C59.5079 25.1913 59.0547 25.9217 58.4657 26.5342C57.8767 27.1466 57.1653 27.6273 56.3781 27.9446C55.5908 28.262 54.7456 28.4088 53.8978 28.3756C53.0748 28.4082 52.2542 28.2667 51.4893 27.9603C50.7244 27.654 50.0323 27.1896 49.4581 26.5974C48.8839 26.0052 48.4403 25.2984 48.1563 24.523C47.8723 23.7476 47.7542 22.921 47.8096 22.0968C47.7449 21.2452 47.8618 20.3897 48.1524 19.5869C48.4431 18.7842 48.9009 18.0528 49.4953 17.4414C50.0898 16.8299 50.8073 16.3524 51.6001 16.0408C52.3928 15.7291 53.2427 15.5903 54.0931 15.6336C54.9117 15.6025 55.7276 15.7446 56.4879 16.0507C57.2481 16.3567 57.9355 16.8199 58.5055 17.4099C59.0754 18 59.5151 18.7039 59.7959 19.4756C60.0768 20.2474 60.1924 21.0698 60.1354 21.8894V21.8894ZM50.9456 22.0161C50.9456 24.3203 52.0944 26.1406 53.9668 26.1406C55.8392 26.1406 56.9305 24.447 56.9305 21.9701C56.9305 20.0691 56.0804 17.8687 53.9897 17.8687C51.8991 17.8687 50.9801 20.0115 50.9801 22.0392L50.9456 22.0161Z" fill="black"/>
<path d="M62.6511 19.9885C62.6511 18.3871 62.6511 17.0853 62.5477 15.9332H65.2472L65.3965 17.8111C65.8458 17.1203 66.4663 16.5586 67.1974 16.1809C67.9284 15.8032 68.7447 15.6226 69.5663 15.6567C72.3577 15.6567 74.6781 18.0645 74.6781 21.8664C74.6781 26.2673 71.9097 28.3986 69.1413 28.3986C68.4779 28.4335 67.8162 28.3035 67.215 28.0201C66.6138 27.7367 66.0917 27.3087 65.6952 26.7742V26.7742V33.076H62.6511V19.9885ZM65.7181 23.0415C65.7153 23.3277 65.7422 23.6134 65.7985 23.894C65.9454 24.5043 66.2925 25.0474 66.7842 25.4361C67.2759 25.8247 67.8835 26.0363 68.5095 26.0369C70.4623 26.0369 71.6111 24.4124 71.6111 22.0161C71.6111 19.8617 70.5542 18.1106 68.5899 18.1106C67.937 18.1251 67.3081 18.3607 66.8055 18.779C66.3029 19.1973 65.9561 19.7738 65.8215 20.4147C65.7582 20.6673 65.7235 20.9263 65.7181 21.1866V23.0415Z" fill="black"/>
<path d="M77.3661 11.2558H87.0958V13.8249H80.4103V18.4332H86.6018V20.9447H80.4103V28.1221H77.3661V11.2558Z" fill="black"/>
<path d="M89.3932 19.8617C89.3932 18.2143 89.3932 17.0161 89.2899 15.9332H91.8974L92.0238 18.2373H92.1042C92.3224 17.5106 92.7622 16.8708 93.3618 16.4079C93.9615 15.945 94.6907 15.6823 95.447 15.6567C95.6866 15.6574 95.9254 15.6845 96.1592 15.7373V18.6175C95.8567 18.5569 95.5486 18.5299 95.2402 18.5369C94.5816 18.5208 93.9396 18.7458 93.4343 19.1698C92.9291 19.5939 92.5951 20.1879 92.4948 20.841C92.4472 21.1459 92.4242 21.4541 92.4258 21.7627V28.0991H89.3932V19.8617Z" fill="black"/>
<path d="M100.214 22.8917C100.295 25.0922 101.983 26.0484 103.959 26.0484C105.104 26.0607 106.243 25.8736 107.325 25.4954L107.773 27.6498C106.425 28.187 104.984 28.4494 103.534 28.4217C99.5938 28.4217 97.2734 26.0023 97.2734 22.2696C97.2734 18.894 99.3182 15.7143 103.212 15.7143C107.106 15.7143 108.45 18.9747 108.45 21.6475C108.452 22.0835 108.417 22.519 108.347 22.9493L100.214 22.8917ZM105.556 20.7373C105.604 20.3722 105.575 20.0009 105.472 19.6475C105.368 19.2942 105.191 18.9668 104.952 18.6865C104.714 18.4061 104.42 18.1793 104.088 18.0205C103.757 17.8617 103.396 17.7747 103.029 17.765C102.272 17.8116 101.56 18.1441 101.038 18.6957C100.516 19.2472 100.221 19.9768 100.214 20.7373H105.556Z" fill="black"/>
<path d="M113.08 22.8917C113.16 25.0922 114.86 26.0484 116.825 26.0484C117.97 26.0628 119.109 25.8756 120.19 25.4954L120.615 27.6498C119.268 28.187 117.827 28.4494 116.377 28.4217C112.436 28.4217 110.116 26.0023 110.116 22.2696C110.116 18.894 112.161 15.7143 116.055 15.7143C119.949 15.7143 121.293 18.9747 121.293 21.6475C121.3 22.0837 121.266 22.5197 121.19 22.9493L113.08 22.8917ZM118.421 20.7373C118.472 20.3728 118.445 20.0018 118.342 19.6484C118.239 19.2951 118.064 18.9675 117.826 18.6869C117.589 18.4064 117.295 18.1793 116.964 18.0204C116.633 17.8615 116.272 17.7745 115.906 17.765C115.148 17.8114 114.435 18.1436 113.911 18.6949C113.387 19.2461 113.09 19.9757 113.08 20.7373H118.421Z" fill="black"/>
<path d="M123.786 10.3687H126.853V28.1221H123.786V10.3687Z" fill="black"/>
<path d="M139.627 25.1958C139.605 26.1751 139.671 27.1544 139.822 28.1221H137.054L136.835 26.7742H136.755C136.319 27.3028 135.769 27.7241 135.145 28.0057C134.522 28.2873 133.843 28.4217 133.159 28.3986C132.668 28.4269 132.175 28.3539 131.713 28.1841C131.25 28.0144 130.827 27.7513 130.47 27.4113C130.113 27.0713 129.828 26.6615 129.635 26.2072C129.442 25.7528 129.343 25.2636 129.346 24.7696C129.346 21.7166 132.068 20.1613 136.56 20.1613V19.9654C136.56 19.159 136.226 17.8341 134.09 17.8341C132.937 17.8361 131.806 18.1505 130.816 18.7442L130.219 16.7396C131.561 15.9976 133.075 15.6241 134.607 15.6567C138.501 15.6567 139.627 18.1336 139.627 20.818V25.1958ZM136.628 22.1659C134.457 22.1659 132.39 22.5922 132.39 24.47C132.369 24.7053 132.399 24.9424 132.48 25.1645C132.56 25.3866 132.688 25.5883 132.854 25.7553C133.021 25.9223 133.222 26.0506 133.443 26.1311C133.665 26.2117 133.901 26.2424 134.136 26.2212C134.664 26.2304 135.183 26.073 135.617 25.7713C136.052 25.4695 136.382 25.0386 136.56 24.5392C136.616 24.3213 136.64 24.0959 136.628 23.871V22.1659Z" fill="black"/>
<path d="M142.866 19.5852C142.866 18.1912 142.866 17.0161 142.763 15.9562H145.439L145.589 17.788H145.657C146.067 17.127 146.642 16.5847 147.325 16.2149C148.008 15.8451 148.776 15.6606 149.552 15.6797C151.665 15.6797 153.871 17.0622 153.871 20.9101V28.1452H150.792V21.2327C150.792 19.4816 150.149 18.1567 148.495 18.1567C147.96 18.1697 147.442 18.3499 147.014 18.672C146.585 18.9942 146.268 19.4423 146.105 19.9539C145.998 20.2687 145.947 20.6004 145.956 20.9332V28.1106H142.889L142.866 19.5852Z" fill="black"/>
<path d="M166.059 27.7419C164.963 28.1773 163.791 28.3888 162.613 28.3641C161.78 28.425 160.944 28.3063 160.16 28.016C159.377 27.7257 158.665 27.2705 158.072 26.6811C157.479 26.0917 157.018 25.3817 156.722 24.5989C156.425 23.8161 156.299 22.9786 156.352 22.1429C156.352 18.4908 158.845 15.6567 163.107 15.6567C164.12 15.6536 165.125 15.8412 166.07 16.2097L165.53 18.5138C164.812 18.1783 164.025 18.0165 163.233 18.0415C162.721 18.0266 162.212 18.1204 161.739 18.3167C161.266 18.513 160.84 18.8074 160.489 19.1806C160.137 19.5537 159.868 19.9972 159.7 20.482C159.531 20.9667 159.467 21.4817 159.511 21.9931C159.467 22.5035 159.531 23.0175 159.7 23.5011C159.869 23.9847 160.138 24.4268 160.49 24.7982C160.841 25.1696 161.268 25.4618 161.741 25.6555C162.214 25.8492 162.722 25.9399 163.233 25.9217C164.06 25.9268 164.88 25.7663 165.645 25.4493L166.059 27.7419Z" fill="black"/>
<path d="M170.274 22.8917C170.355 25.0922 172.043 26.0484 174.019 26.0484C175.165 26.0628 176.304 25.8756 177.385 25.4954L177.833 27.5922C176.485 28.1294 175.044 28.3918 173.594 28.3641C169.654 28.3641 167.334 25.9447 167.334 22.212C167.334 18.8364 169.378 15.6567 173.273 15.6567C177.167 15.6567 178.511 18.917 178.511 21.5899C178.512 22.0259 178.477 22.4613 178.407 22.8917H170.274ZM175.616 20.7373C175.666 20.3728 175.639 20.0018 175.537 19.6484C175.434 19.2951 175.258 18.9675 175.021 18.6869C174.783 18.4064 174.49 18.1792 174.159 18.0204C173.828 17.8615 173.467 17.7745 173.1 17.765C172.342 17.8114 171.63 18.1436 171.106 18.6948C170.582 19.2461 170.285 19.9757 170.274 20.7373H175.616Z" fill="black"/>
<path d="M180.981 19.8617C180.981 18.2143 180.981 17.0161 180.877 15.9332H183.519L183.646 18.2373H183.726C183.944 17.5106 184.384 16.8708 184.984 16.4079C185.583 15.945 186.312 15.6823 187.069 15.6567C187.308 15.6574 187.547 15.6845 187.781 15.7373V18.6175C187.478 18.5569 187.17 18.5299 186.862 18.5369C186.203 18.5208 185.561 18.7458 185.056 19.1698C184.551 19.5939 184.217 20.1879 184.117 20.841C184.069 21.1459 184.046 21.4541 184.048 21.7627V28.0991H180.981V19.8617Z" fill="black"/>
</g>
<defs>
<linearGradient id="paint0_linear" x1="224" y1="21.0599" x2="0" y2="21.0599" gradientUnits="userSpaceOnUse">
<stop/>
<stop offset="0.18" stop-color="#0D0D0D"/>
<stop offset="0.35" stop-color="#111111"/>
<stop offset="0.68" stop-color="#111111"/>
<stop offset="0.87" stop-color="#111111" stop-opacity="0.65"/>
<stop offset="1" stop-color="#111111" stop-opacity="0.2"/>
</linearGradient>
<linearGradient id="paint1_linear" x1="224" y1="18.9401" x2="0" y2="18.9401" gradientUnits="userSpaceOnUse">
<stop stop-color="#FFE684"/>
<stop offset="0.02" stop-color="#FADE7A"/>
<stop offset="0.11" stop-color="#EDC85E"/>
<stop offset="0.19" stop-color="#E3B749"/>
<stop offset="0.27" stop-color="#DDAD3C"/>
<stop offset="0.35" stop-color="#DBAA38"/>
<stop offset="0.43" stop-color="#DEAF3E"/>
<stop offset="0.55" stop-color="#E6BD50"/>
<stop offset="0.68" stop-color="#F3D46D"/>
<stop offset="0.76" stop-color="#F6D973"/>
<stop offset="0.87" stop-color="#FFE684"/>
<stop offset="0.92" stop-color="#FFE684"/>
<stop offset="0.97" stop-color="#CD921A"/>
<stop offset="1" stop-color="#DDAA36"/>
</linearGradient>
<clipPath id="clip0">
<rect width="224" height="40" fill="white"/>
</clipPath>
</defs>
</svg>
