<svg width="120" height="22" viewBox="0 0 120 22" fill="none" xmlns="http://www.w3.org/2000/svg">
<g clip-path="url(#clip0)">
<path opacity="0.58" d="M119.428 2.09735L117.04 3.05415C115.988 3.47235 115.988 4.07431 117.04 4.49251L118.628 5.12615C120.474 5.86117 120.474 6.89401 118.628 7.62269L117.04 8.25633C115.988 8.67454 115.988 9.27016 117.04 9.6947L118.628 10.3283C120.474 11.0634 120.474 12.0962 118.628 12.8249L117.04 13.4585C115.988 13.8831 115.988 14.4787 117.04 14.9032L118.628 15.5369C120.474 16.2719 120.474 17.3047 118.628 18.0334L117.04 18.667C115.988 19.0916 115.988 19.6872 117.04 20.1117L119.237 20.9862C120.252 21.3917 119.335 21.9937 117.692 21.9937H0V1.17223H118C119.52 1.17223 120.369 1.7235 119.428 2.09735Z" fill="url(#paint0_linear)"/>
<path d="M119.428 0.925115L117.04 1.90092C115.988 2.32546 115.988 2.92108 117.04 3.34562L118.628 3.97926C120.474 4.70795 120.474 5.74078 118.628 6.47581L117.04 7.10945C115.988 7.53399 115.988 8.12961 117.04 8.54781L118.628 9.18145C120.474 9.91014 120.474 10.943 118.628 11.678L117.04 12.3116C115.988 12.7362 115.988 13.3318 117.04 13.75L118.628 14.3836C120.474 15.1123 120.474 16.1452 118.628 16.8738L117.04 17.5075C115.988 17.9257 115.988 18.5213 117.04 18.9459L119.237 19.8266C120.252 20.2321 119.335 20.8278 117.692 20.8278H0V0H118C119.52 0 120.369 0.551267 119.428 0.925115Z" fill="url(#paint1_linear)"/>
<path d="M21.8339 7.60369H19.2677V6.19067H26.0677V7.60369H23.4769V15.4608H21.8339V7.60369Z" fill="black"/>
<path d="M32.2154 12.0392C32.2496 12.5058 32.1876 12.9747 32.0334 13.4149C31.8792 13.8552 31.6364 14.2569 31.3209 14.5938C31.0054 14.9306 30.6243 15.195 30.2025 15.3696C29.7808 15.5441 29.328 15.6249 28.8739 15.6066C28.433 15.6245 27.9933 15.5467 27.5836 15.3782C27.1738 15.2097 26.803 14.9543 26.4954 14.6286C26.1878 14.3029 25.9502 13.9141 25.798 13.4877C25.6459 13.0612 25.5826 12.6065 25.6123 12.1532C25.5776 11.6849 25.6403 11.2143 25.796 10.7728C25.9517 10.3313 26.1969 9.92905 26.5154 9.59275C26.8338 9.25645 27.2182 8.99385 27.6429 8.82241C28.0676 8.65098 28.5229 8.57465 28.9785 8.59851C29.417 8.5814 29.8541 8.65955 30.2614 8.82787C30.6686 8.9962 31.0369 9.25092 31.3422 9.57547C31.6476 9.90002 31.8831 10.2871 32.0335 10.7116C32.184 11.1361 32.2459 11.5884 32.2154 12.0392V12.0392ZM27.2923 12.1089C27.2923 13.3762 27.9077 14.3773 28.9108 14.3773C29.9139 14.3773 30.4985 13.4459 30.4985 12.0835C30.4985 11.038 30.0431 9.82777 28.9231 9.82777C27.8031 9.82777 27.3108 11.0063 27.3108 12.1215L27.2923 12.1089Z" fill="black"/>
<path d="M33.5631 10.9937C33.5631 10.1129 33.5631 9.39689 33.5077 8.76325H34.9538L35.0338 9.79608C35.2745 9.41617 35.607 9.10721 35.9986 8.89948C36.3902 8.69175 36.8275 8.5924 37.2677 8.61117C38.7631 8.61117 40.0062 9.93548 40.0062 12.0265C40.0062 14.447 38.5231 15.6192 37.04 15.6192C36.6846 15.6384 36.3301 15.5669 36.008 15.4111C35.686 15.2552 35.4063 15.0198 35.1938 14.7258V14.7258V18.1918H33.5631V10.9937ZM35.2062 12.6728C35.2046 12.8302 35.2191 12.9874 35.2492 13.1417C35.3279 13.4774 35.5139 13.7761 35.7773 13.9898C36.0406 14.2036 36.3662 14.32 36.7015 14.3203C37.7477 14.3203 38.3631 13.4268 38.3631 12.1089C38.3631 10.924 37.7969 9.96083 36.7446 9.96083C36.3948 9.96882 36.0579 10.0984 35.7887 10.3284C35.5194 10.5585 35.3336 10.8756 35.2615 11.2281C35.2276 11.367 35.209 11.5094 35.2062 11.6526V12.6728Z" fill="black"/>
<path d="M41.4462 6.19067H46.6585V7.60369H43.0769V10.1383H46.3939V11.5196H43.0769V15.4672H41.4462V6.19067Z" fill="black"/>
<path d="M47.8892 10.924C47.8892 10.0179 47.8892 9.35887 47.8339 8.76325H49.2308L49.2985 10.0305H49.3416C49.4584 9.63085 49.6941 9.27896 50.0153 9.02436C50.3365 8.76976 50.7272 8.62525 51.1323 8.61118C51.2607 8.61159 51.3886 8.62646 51.5139 8.65553V10.2396C51.3518 10.2063 51.1867 10.1914 51.0216 10.1953C50.6687 10.1864 50.3248 10.3102 50.0541 10.5434C49.7834 10.7766 49.6045 11.1034 49.5508 11.4626C49.5253 11.6302 49.513 11.7998 49.5139 11.9695V15.4545H47.8892V10.924Z" fill="black"/>
<path d="M53.6862 12.5904C53.7292 13.8007 54.6339 14.3266 55.6923 14.3266C56.3059 14.3334 56.916 14.2305 57.4954 14.0225L57.7354 15.2074C57.0134 15.5028 56.2414 15.6472 55.4646 15.6319C53.3539 15.6319 52.1108 14.3013 52.1108 12.2483C52.1108 10.3917 53.2062 8.64285 55.2923 8.64285C57.3785 8.64285 58.0985 10.4361 58.0985 11.9061C58.0991 12.1459 58.0806 12.3854 58.0431 12.6221L53.6862 12.5904ZM56.5477 11.4055C56.5737 11.2047 56.5583 11.0005 56.5026 10.8061C56.4469 10.6118 56.3522 10.4317 56.2245 10.2775C56.0968 10.1234 55.9391 9.99858 55.7615 9.91127C55.584 9.82395 55.3906 9.77607 55.1939 9.77073C54.7883 9.79636 54.4073 9.97927 54.1276 10.2826C53.8478 10.586 53.6901 10.9872 53.6862 11.4055H56.5477Z" fill="black"/>
<path d="M60.5785 12.5904C60.6216 13.8007 61.5323 14.3266 62.5846 14.3266C63.1983 14.3345 63.8086 14.2316 64.3877 14.0225L64.6154 15.2074C63.8934 15.5028 63.1214 15.6472 62.3446 15.6319C60.2339 15.6319 58.9908 14.3013 58.9908 12.2483C58.9908 10.3917 60.0862 8.64285 62.1723 8.64285C64.2585 8.64285 64.9785 10.4361 64.9785 11.9061C64.9823 12.146 64.9637 12.3858 64.9231 12.6221L60.5785 12.5904ZM63.44 11.4055C63.4669 11.205 63.4524 11.001 63.3975 10.8066C63.3426 10.6123 63.2484 10.4321 63.1212 10.2778C62.994 10.1235 62.8366 9.99858 62.6593 9.9112C62.482 9.82383 62.2888 9.77596 62.0923 9.77073C61.6862 9.79628 61.3045 9.97897 61.0237 10.2822C60.743 10.5854 60.5839 10.9866 60.5785 11.4055H63.44Z" fill="black"/>
<path d="M66.3138 5.70277H67.9569V15.4672H66.3138V5.70277Z" fill="black"/>
<path d="M74.8 13.8577C74.7885 14.3963 74.8235 14.9349 74.9046 15.4672H73.4216L73.3046 14.7258H73.2616C73.0283 15.0165 72.7333 15.2482 72.3994 15.4031C72.0654 15.558 71.7014 15.632 71.3354 15.6192C71.072 15.6348 70.8082 15.5947 70.5604 15.5013C70.3126 15.4079 70.086 15.2632 69.8946 15.0762C69.7032 14.8892 69.551 14.6638 69.4474 14.4139C69.3438 14.1641 69.291 13.895 69.2923 13.6233C69.2923 11.9441 70.7508 11.0887 73.1569 11.0887V10.981C73.1569 10.5374 72.9785 9.80875 71.8339 9.80875C71.2161 9.80984 70.6101 9.98279 70.08 10.3093L69.76 9.2068C70.479 8.7987 71.2899 8.59324 72.1108 8.61117C74.1969 8.61117 74.8 9.9735 74.8 11.4499V13.8577ZM73.1939 12.1912C72.0308 12.1912 70.9231 12.4257 70.9231 13.4585C70.9118 13.5879 70.9282 13.7183 70.9712 13.8405C71.0142 13.9626 71.0827 14.0735 71.172 14.1654C71.2612 14.2573 71.3689 14.3279 71.4875 14.3721C71.6062 14.4164 71.7328 14.4333 71.8585 14.4217C72.1417 14.4267 72.4193 14.3402 72.6523 14.1742C72.8852 14.0082 73.0617 13.7712 73.1569 13.4965C73.1874 13.3767 73.1999 13.2528 73.1939 13.129V12.1912Z" fill="black"/>
<path d="M76.5354 10.7719C76.5354 10.0052 76.5354 9.35888 76.48 8.77593H77.9139L77.9939 9.78342H78.0308C78.2503 9.41983 78.5583 9.12159 78.9242 8.91821C79.2901 8.71483 79.7013 8.61336 80.1169 8.62385C81.2492 8.62385 82.4308 9.38422 82.4308 11.5006V15.4798H80.7816V11.678C80.7816 10.7149 80.4369 9.98618 79.5508 9.98618C79.2641 9.99337 78.9867 10.0925 78.7572 10.2696C78.5278 10.4468 78.3578 10.6933 78.2708 10.9747C78.213 11.1478 78.1859 11.3302 78.1908 11.5133V15.4608H76.5477L76.5354 10.7719Z" fill="black"/>
<path d="M88.96 15.2581C88.3729 15.4975 87.7452 15.6138 87.1138 15.6002C86.6677 15.6337 86.2198 15.5685 85.8002 15.4088C85.3806 15.2491 84.9991 14.9988 84.6813 14.6746C84.3636 14.3504 84.1169 13.9599 83.958 13.5294C83.7991 13.0988 83.7316 12.6382 83.76 12.1786C83.76 10.1699 85.0954 8.61117 87.3785 8.61117C87.9215 8.6095 88.46 8.71266 88.9662 8.91532L88.6769 10.1826C88.2921 9.99807 87.8705 9.90909 87.4462 9.92281C87.1721 9.91462 86.8994 9.9662 86.6461 10.0742C86.3927 10.1822 86.1644 10.3441 85.9761 10.5493C85.7878 10.7546 85.6438 10.9985 85.5535 11.2651C85.4633 11.5317 85.4288 11.8149 85.4523 12.0962C85.4286 12.3769 85.4631 12.6596 85.5534 12.9256C85.6438 13.1916 85.788 13.4347 85.9765 13.639C86.165 13.8433 86.3935 14.004 86.6469 14.1105C86.9002 14.217 87.1727 14.2669 87.4462 14.2569C87.8894 14.2598 88.3288 14.1714 88.7385 13.9971L88.96 15.2581Z" fill="black"/>
<path d="M91.2185 12.5904C91.2615 13.8007 92.1661 14.3266 93.2246 14.3266C93.8383 14.3345 94.4485 14.2316 95.0277 14.0225L95.2677 15.1757C94.5457 15.4712 93.7737 15.6155 92.9969 15.6002C90.8861 15.6002 89.6431 14.2696 89.6431 12.2166C89.6431 10.36 90.7385 8.61118 92.8246 8.61118C94.9108 8.61118 95.6308 10.4044 95.6308 11.8744C95.6314 12.1143 95.6129 12.3537 95.5754 12.5904H91.2185ZM94.08 11.4055C94.1069 11.205 94.0924 11.001 94.0375 10.8066C93.9825 10.6123 93.8884 10.4321 93.7612 10.2778C93.634 10.1235 93.4766 9.99859 93.2993 9.91121C93.122 9.82383 92.9288 9.77596 92.7323 9.77074C92.3262 9.79628 91.9445 9.97897 91.6637 10.2822C91.383 10.5854 91.2239 10.9866 91.2185 11.4055H94.08Z" fill="black"/>
<path d="M96.9539 10.924C96.9539 10.0179 96.9539 9.35887 96.8985 8.76325H98.3138L98.3815 10.0305H98.4246C98.5415 9.63085 98.7771 9.27896 99.0984 9.02436C99.4196 8.76976 99.8103 8.62525 100.215 8.61118C100.344 8.61159 100.472 8.62646 100.597 8.65553V10.2396C100.435 10.2063 100.27 10.1914 100.105 10.1953C99.7518 10.1864 99.4079 10.3102 99.1372 10.5434C98.8665 10.7766 98.6876 11.1034 98.6339 11.4626C98.6084 11.6302 98.596 11.7998 98.5969 11.9695V15.4545H96.9539V10.924Z" fill="black"/>
</g>
<defs>
<linearGradient id="paint0_linear" x1="120" y1="11.5829" x2="0" y2="11.5829" gradientUnits="userSpaceOnUse">
<stop/>
<stop offset="0.18" stop-color="#0D0D0D"/>
<stop offset="0.35" stop-color="#111111"/>
<stop offset="0.68" stop-color="#111111"/>
<stop offset="0.87" stop-color="#111111" stop-opacity="0.65"/>
<stop offset="1" stop-color="#111111" stop-opacity="0.2"/>
</linearGradient>
<linearGradient id="paint1_linear" x1="120" y1="10.417" x2="0" y2="10.417" gradientUnits="userSpaceOnUse">
<stop stop-color="#FFE684"/>
<stop offset="0.02" stop-color="#FADE7A"/>
<stop offset="0.11" stop-color="#EDC85E"/>
<stop offset="0.19" stop-color="#E3B749"/>
<stop offset="0.27" stop-color="#DDAD3C"/>
<stop offset="0.35" stop-color="#DBAA38"/>
<stop offset="0.43" stop-color="#DEAF3E"/>
<stop offset="0.55" stop-color="#E6BD50"/>
<stop offset="0.68" stop-color="#F3D46D"/>
<stop offset="0.76" stop-color="#F6D973"/>
<stop offset="0.87" stop-color="#FFE684"/>
<stop offset="0.92" stop-color="#FFE684"/>
<stop offset="0.97" stop-color="#CD921A"/>
<stop offset="1" stop-color="#DDAA36"/>
</linearGradient>
<clipPath id="clip0">
<rect width="120" height="22" fill="white"/>
</clipPath>
</defs>
</svg>
