<svg xmlns="http://www.w3.org/2000/svg" width="28" height="28" fill="#111"><path d="M7.175 7.875a2.45 2.45 0 0 1 2.45-2.45h5.25a2.45 2.45 0 0 1 2.45 2.45v.875h-1.4v-.875a1.05 1.05 0 0 0-1.05-1.05h-5.25a1.05 1.05 0 0 0-1.05 1.05v7.875a1.05 1.05 0 0 0 1.05 1.05v1.4a2.45 2.45 0 0 1-2.45-2.45V7.875z"/><path fill-rule="evenodd" d="M13.125 9.8a2.45 2.45 0 0 0-2.45 2.45v7.875a2.45 2.45 0 0 0 2.45 2.45h5.25a2.45 2.45 0 0 0 2.45-2.45V12.25a2.45 2.45 0 0 0-2.45-2.45h-5.25zm-1.05 2.45a1.05 1.05 0 0 1 1.05-1.05h5.25a1.05 1.05 0 0 1 1.05 1.05v7.875a1.05 1.05 0 0 1-1.05 1.05h-5.25a1.05 1.05 0 0 1-1.05-1.05V12.25z"/></svg>
