<svg xmlns="http://www.w3.org/2000/svg" width="50" height="50" fill="none"><g clip-path="url(#A)"><path d="M41.655 27.728L34.19 16.025c1.058-.556 1.781-1.665 1.781-2.941 0-1.396-.867-2.593-2.09-3.083l2.262-7.907c.098-.341.002-.708-.248-.959-1.505-1.504-3.952-1.504-5.457 0-.36.36-.838.558-1.347.558s-.987-.198-1.349-.56l-.005-.005c-1.499-1.499-3.943-1.504-5.448-.009l-.028.028a1.91 1.91 0 0 1-2.69-.005l-.007-.007c-1.504-1.504-3.952-1.504-5.457 0-.251.251-.346.618-.248.96l2.267 7.905c-1.226.489-2.095 1.687-2.095 3.085 0 1.276.723 2.385 1.781 2.941L8.345 27.728a14.29 14.29 0 0 0-.49 14.751A14.29 14.29 0 0 0 20.555 50h8.89a14.29 14.29 0 0 0 12.7-7.521 14.29 14.29 0 0 0-.489-14.751zM18.182 2.515l.007.007a3.87 3.87 0 0 0 5.448.009l.028-.028a1.91 1.91 0 0 1 2.692.007l.005.005c1.505 1.504 3.952 1.504 5.457 0a1.91 1.91 0 0 1 2.264-.323l-2.165 7.571H18.089l-2.171-7.571a1.91 1.91 0 0 1 2.264.323zm22.25 39.025c-2.234 4.074-6.341 6.506-10.987 6.506h-8.89c-4.646 0-8.753-2.432-10.987-6.506s-2.075-8.845.423-12.762l7.894-12.374h2.72c.539 0 .977-.437.977-.977s-.437-.977-.977-.977H17.35a1.37 1.37 0 0 1-1.367-1.367 1.37 1.37 0 0 1 1.367-1.367h.003H32.65a1.37 1.37 0 0 1 1.367 1.367 1.37 1.37 0 0 1-1.367 1.367h-3.255c-.539 0-.977.437-.977.977s.437.977.977.977h2.72l7.894 12.374c2.499 3.917 2.657 8.688.423 12.762z" fill="#333"/><path d="M22.857 38.405v-12c5.238 0 7.143 0 7.143 3s-2.381 3-7.143 3H20m0 3h5.714" stroke="#457edb" stroke-width="2" stroke-linecap="round" stroke-linejoin="round"/><path d="M25 16.404c.257 0 .509-.104.691-.286s.286-.434.286-.69-.105-.509-.286-.691-.434-.286-.691-.286-.509.104-.69.286-.286.434-.286.691.105.509.286.69.433.286.69.286z" fill="#333"/></g><defs><clipPath id="A"><path fill="#fff" d="M0 0h50v50H0z"/></clipPath></defs></svg>
