<svg width="32" height="42" viewBox="0 0 32 42" fill="none" xmlns="http://www.w3.org/2000/svg">
<g clip-path="url(#clip0)">
<path opacity="0.5" fill-rule="evenodd" clip-rule="evenodd" d="M0 4C0 1.79086 1.79086 0 4 0H20.6716C21.202 0 21.7107 0.210714 22.0858 0.585786L31.4142 9.91421C31.7893 10.2893 32 10.798 32 11.3284V38C32 40.2091 30.2091 42 28 42H4C1.79086 42 0 40.2091 0 38V4ZM28 41.2H4C2.23269 41.2 0.8 39.7673 0.8 38V4C0.8 2.23269 2.23269 0.8 4 0.8H20.6716C20.7893 0.8 20.9053 0.817307 21.0161 0.850512C21.0057 0.886309 21 0.924829 21 0.965682V6C21 8.76142 23.2386 11 26 11H31.0343C31.0752 11 31.1137 10.9943 31.1495 10.9839C31.1827 11.0947 31.2 11.2107 31.2 11.3284V38C31.2 39.7673 29.7673 41.2 28 41.2ZM21.8 1.33894L30.6406 10.2H26C23.6804 10.2 21.8 8.31959 21.8 6V1.33894Z" fill="#657D9F"/>
<path d="M17.1668 22.3332C17.1668 22.5237 17.1899 22.7092 17.233 22.8865L12.9559 25.3243C12.5355 24.9176 11.963 24.6668 11.3332 24.6668C10.0468 24.6668 9 25.7131 9 27C9 28.2869 10.0468 29.3332 11.3332 29.3332C11.9634 29.3332 12.5359 29.082 12.9563 28.6748L17.233 31.1131C17.1899 31.2904 17.1668 31.4758 17.1668 31.6664C17.1668 32.9532 18.2131 34 19.5 34C20.7869 34 21.8336 32.9532 21.8336 31.6664C21.8336 30.3795 20.7869 29.3332 19.5 29.3332C18.8228 29.3332 18.2119 29.6229 17.7855 30.0851L13.566 27.6793C13.6313 27.4644 13.6668 27.2363 13.6668 27C13.6668 26.7637 13.6318 26.5352 13.566 26.3198L17.7855 23.9144C18.2119 24.3767 18.8228 24.6668 19.5 24.6668C20.7869 24.6668 21.8336 23.6201 21.8336 22.3332C21.8336 21.0468 20.7869 20 19.5 20C18.2131 20 17.1668 21.0468 17.1668 22.3332Z" fill="#657D9F"/>
</g>
<defs>
<clipPath id="clip0">
<rect width="32" height="42" fill="white"/>
</clipPath>
</defs>
</svg>
