<svg width="18" height="24" viewBox="0 0 18 24" fill="none" xmlns="http://www.w3.org/2000/svg">
<g clip-path="url(#clip0)">
<path opacity="0.5" fill-rule="evenodd" clip-rule="evenodd" d="M2 22.8H16C16.4418 22.8 16.8 22.4418 16.8 22V4.82843C16.8 4.61625 16.7157 4.41277 16.5657 4.26274L13.7373 1.43431C13.5872 1.28429 13.3837 1.2 13.1716 1.2H2C1.55817 1.2 1.2 1.55817 1.2 2V22C1.2 22.4418 1.55817 22.8 2 22.8ZM2 0C0.895431 0 0 0.89543 0 2V22C0 23.1046 0.89543 24 2 24H16C17.1046 24 18 23.1046 18 22V4.82843C18 4.29799 17.7893 3.78929 17.4142 3.41421L14.5858 0.585786C14.2107 0.210714 13.702 0 13.1716 0H2Z" fill="#657D9F"/>
<path d="M9.93347 10.2665C9.93347 10.4189 9.95193 10.5672 9.98645 10.7091L6.56472 12.6594C6.22839 12.334 5.77039 12.1333 5.26658 12.1333C4.23743 12.1333 3.40002 12.9704 3.40002 13.9999C3.40002 15.0294 4.23743 15.8665 5.26658 15.8665C5.77073 15.8665 6.22874 15.6655 6.56506 15.3397L9.98645 17.2904C9.95193 17.4322 9.93347 17.5806 9.93347 17.733C9.93347 18.7625 10.7705 19.5999 11.8 19.5999C12.8295 19.5999 13.6669 18.7625 13.6669 17.733C13.6669 16.7035 12.8295 15.8665 11.8 15.8665C11.2583 15.8665 10.7695 16.0982 10.4284 16.468L7.05281 14.5434C7.1051 14.3714 7.13347 14.1889 7.13347 13.9999C7.13347 13.8109 7.10544 13.628 7.05281 13.4558L10.4284 11.5314C10.7695 11.9013 11.2583 12.1333 11.8 12.1333C12.8295 12.1333 13.6669 11.2959 13.6669 10.2665C13.6669 9.2373 12.8295 8.3999 11.8 8.3999C10.7705 8.3999 9.93347 9.2373 9.93347 10.2665Z" fill="#657D9F"/>
</g>
<defs>
<clipPath id="clip0">
<rect width="18" height="24" fill="white"/>
</clipPath>
</defs>
</svg>
