<svg width="375" height="1123" fill="none" xmlns="http://www.w3.org/2000/svg"><g clip-path="url(#a)"><path fill="#fff" d="M0 0h375v1454.7H0z"/><g filter="url(#b)"><path fill-rule="evenodd" clip-rule="evenodd" d="M-121.824 238.52c58.169-.426 122.66-40.749 170.087-7.183 47.394 33.544 32.475 106.816 49.114 162.323 16.075 53.623 67.75 105.202 46.626 157.056-21.25 52.162-91.707 59.483-143.753 81.368-39.614 16.657-79.184 27.414-122.074 30.408-46.268 3.23-98.305 15.608-135.165-12.45-36.735-27.964-29.869-83.642-47.181-126.357-19.231-47.451-62.208-86.316-59.727-137.431 2.804-57.764 24.307-122.235 73.795-152.437 49.055-29.938 110.757 5.125 168.278 4.703Z" fill="#E336DC" fill-opacity=".15"/></g><g filter="url(#c)"><path fill-rule="evenodd" clip-rule="evenodd" d="M475.118 637.684c53.278-4.452 109.325 13.182 146.579 42.517 34.818 27.417 31.848 69.521 42.933 106.71 9.854 33.06 31.47 65.895 18.156 98.244-13.372 32.491-54.201 51.616-88.736 73.25-37.052 23.211-71.746 50.205-118.932 56.845-52.962 7.44-111.405 5-155.789-18.225-44.854-23.469-73.494-63.826-79.694-104.99-5.666-37.621 27.904-69.994 48.126-104.591 17.699-30.281 32.405-60.555 62.43-84.556 35.695-28.531 73.48-60.905 124.927-65.204Z" fill="#E38936" fill-opacity=".15"/></g><g filter="url(#d)"><path fill-rule="evenodd" clip-rule="evenodd" d="M108.256 1172.86c67.073-5.61 137.632 16.64 184.532 53.65 43.833 34.59 40.095 87.72 54.05 134.64 12.405 41.72 39.618 83.15 22.857 123.97-16.834 40.99-68.235 65.12-111.713 92.42-46.645 29.29-90.323 63.36-149.726 71.73-66.675 9.39-140.25 6.31-196.128-23-56.467-29.61-92.523-80.53-100.328-132.47-7.134-47.47 35.128-88.32 60.586-131.97 22.282-38.21 40.796-76.41 78.596-106.69 44.936-36 92.505-76.85 157.274-82.28Z" fill="#36BAE3" fill-opacity=".15"/></g></g><defs><filter id="b" x="-564" y="18" width="913" height="850" filterUnits="userSpaceOnUse" color-interpolation-filters="sRGB"><feFlood flood-opacity="0" result="BackgroundImageFix"/><feBlend in="SourceGraphic" in2="BackgroundImageFix" result="shape"/><feGaussianBlur stdDeviation="100" result="effect1_foregroundBlur"/></filter><filter id="c" x="39" y="437" width="848" height="782" filterUnits="userSpaceOnUse" color-interpolation-filters="sRGB"><feFlood flood-opacity="0" result="BackgroundImageFix"/><feBlend in="SourceGraphic" in2="BackgroundImageFix" result="shape"/><feGaussianBlur stdDeviation="100" result="effect1_foregroundBlur"/></filter><filter id="d" x="-489" y="872" width="1164" height="1082" filterUnits="userSpaceOnUse" color-interpolation-filters="sRGB"><feFlood flood-opacity="0" result="BackgroundImageFix"/><feBlend in="SourceGraphic" in2="BackgroundImageFix" result="shape"/><feGaussianBlur stdDeviation="150" result="effect1_foregroundBlur"/></filter><clipPath id="a"><path fill="#fff" d="M0 0h375v1123H0z"/></clipPath></defs></svg>