<svg xmlns="http://www.w3.org/2000/svg" width="359" height="141" viewBox="0 0 359 141" clip-rule="evenodd" fill-rule="evenodd"><defs><linearGradient id="Gradient-0" x1="0" y1="125.5" x2="112" y2="125.5" gradientUnits="userSpaceOnUse"><stop offset="0" stop-color="#b3b2b2" stop-opacity="0"/><stop offset=".5" stop-color="#c7c7c7"/><stop offset="1" stop-color="#b3b2b2" stop-opacity="0"/></linearGradient><clipPath id="ClipPath-1"><path d="M502.6 116.6c0-2.2-1.8-4-4-4h-71c-2.2 0-4 1.8-4 4v8c0 2.2 1.8 4 4 4h71c2.2 0 4-1.8 4-4v-8Zm-110 2c0-2.2-1.8-4-4-4h-51c-2.2 0-4 1.8-4 4v4c0 2.2 1.8 4 4 4h51c2.2 0 4-1.8 4-4v-4Zm-68-106h-156v114h156v-114Zm117 68l2.2 4.4l4.8 .9l-3.4 3.7l.7 5l-4.3-2.2l-4.4 2.2l.7-5l-3.3-3.7l4.7-0.9l2.3-4.4Zm61 5c0-2.2-1.8-4-4-4h-40c-2.2 0-4 1.8-4 4v4c0 2.2 1.8 4 4 4h40c2.2 0 4-1.8 4-4v-4Zm-92-30c0-2.2-1.8-4-4-4h-68c-2.2 0-4 1.8-4 4v4c0 2.2 1.8 4 4 4h68c2.2 0 4-1.8 4-4v-4Zm26-19c0-2.2-1.8-4-4-4h-94c-2.2 0-4 1.8-4 4v4c0 2.2 1.8 4 4 4h94c2.2 0 4-1.8 4-4v-4Zm47.2-14.2c-2.2-2.7-1.5-6.7 2.1-8c3.6-1.3 5.8 1.3 6.5 2.7c.8-1.4 3.6-4 7.2-2.7c3.6 1.3 3.6 5.3 1.5 8c-2.2 2.6-8.7 7.9-8.7 7.9c0 0-6.5-5.3-8.6-7.9Zm-16.2-4.8c0-2.2-1.8-4-4-4h-125c-2.2 0-4 1.8-4 4v4c0 2.2 1.8 4 4 4h125c2.2 0 4-1.8 4-4v-4Z" fill="#f5f5f5"/></clipPath></defs><style>
@keyframes a0_t { 0% { transform: translate(78.4px,77.5px) scaleX(1.4) translate(-56px,-77.5px); } 80% { transform: translate(595.4px,77.5px) scaleX(1.4) translate(-56px,-77.5px); } 100% { transform: translate(595.4px,77.5px) scaleX(1.4) translate(-56px,-77.5px); } }
</style><g clip-path="url(#ClipPath-1)" transform="translate(-157,0)"><rect x="157" width="359" height="141" fill="#f5f5f5"/><rect width="112" height="141" opacity=".3" fill="url(#Gradient-0)" transform="translate(78.4,77.5) scale(1.4,1) translate(-56,-77.5)" style="animation: 1s linear infinite both a0_t;"/></g><rect x="2.1" y="2.1" width="354" height="136" fill="none" stroke="#f5f5f5" stroke-width="1px"/><rect x="177.6" y="102.6" width="168" height="1" fill="#f5f5f5"/></svg>