<svg xmlns="http://www.w3.org/2000/svg" width="354" height="31" viewBox="0 0 354 31" clip-rule="evenodd" fill-rule="evenodd" stroke-linejoin="round" stroke-miterlimit="2"><defs><linearGradient id="Gradient-0" x1="0" y1="125.5" x2="112" y2="125.5" gradientUnits="userSpaceOnUse"><stop offset="0" stop-color="#b3b2b2" stop-opacity="0"/><stop offset=".5" stop-color="#c7c7c7"/><stop offset="1" stop-color="#b3b2b2" stop-opacity="0"/></linearGradient><clipPath id="ClipPath-1"><path d="M353.5 5.5c0-3-2.5-5.5-5.5-5.5h-92c-3 0-5.5 2.5-5.5 5.5v20c0 3 2.5 5.5 5.5 5.5h92c3 0 5.5-2.5 5.5-5.5v-20Zm-228.5 9c0-2.2-1.8-4-4-4h-117c-2.2 0-4 1.8-4 4v6c0 2.2 1.8 4 4 4h117c2.2 0 4-1.8 4-4v-6Z" fill="#f5f5f5"/></clipPath></defs><style>
@keyframes a0_t { 0% { transform: translate(-51.8px,125.5px) scaleX(1.4) translate(-75px,-125.5px); } 80% { transform: translate(460px,125.5px) scaleX(1.4) translate(-75px,-125.5px); } 100% { transform: translate(460px,125.5px) scaleX(1.4) translate(-75px,-125.5px); } }
</style><g clip-path="url(#ClipPath-1)"><rect width="354" height="31" fill="#f5f5f5"/><rect width="112" height="31" opacity=".3" fill="url(#Gradient-0)" transform="translate(-51.8,125.5) scale(1.4,1) translate(-75,-125.5)" style="animation: 1s linear infinite both a0_t;"/></g></svg>