<svg xmlns="http://www.w3.org/2000/svg" width="120" height="121" fill="none"><g filter="url(#B)"><circle cx="57" cy="50" r="50" fill="#fff"/><circle cx="57" cy="50" r="49.5" stroke="#efefef"/></g><g clip-path="url(#C)"><mask id="A" mask-type="alpha" maskUnits="userSpaceOnUse" x="28" y="21" width="60" height="60"><path d="M81.635 30.732H54.942l-2.576-8.78H34.805c-1.553 0-3.041.617-4.139 1.715s-1.715 2.587-1.715 4.139v38.049c0 1.552.617 3.041 1.715 4.139s2.587 1.715 4.139 1.715h20.488l2.927 8.781h23.415c1.552 0 3.041-.617 4.139-1.715s1.715-2.587 1.715-4.139V36.586c0-1.553-.617-3.041-1.715-4.139s-2.587-1.714-4.139-1.714zM44.083 58.8A11.97 11.97 0 0 1 32.113 46.83a11.97 11.97 0 0 1 11.971-11.971c3.044 0 5.824 1.083 8.02 3.19l.263.117-3.659 3.454-.176-.146c-.849-.79-2.283-1.727-4.449-1.727-3.834 0-6.966 3.19-6.966 7.083s3.132 7.083 6.966 7.083c4.01 0 5.737-2.546 6.205-4.273H43.82v-4.537h11.561l.029.263c.117.556.146 1.112.146 1.727 0 6.878-4.654 11.707-11.473 11.707zm17.649-5.005c.966 1.815 2.166 3.454 3.483 4.976l-1.581 1.551-1.902-6.527zm2.254-2.224h-2.839l-.966-3.044h11.678s-.995 3.834-4.566 8.02c-1.522-1.815-2.605-3.6-3.307-4.976zm20.576 23.063c0 .776-.308 1.521-.857 2.07s-1.293.857-2.07.857H61.147L67 71.708 64.63 63.6l2.693-2.693 7.844 7.873 2.078-2.137-7.873-7.844c2.634-3.015 4.683-6.585 5.62-10.273h3.717v-3.044H68.054v-3.044H65.01v3.044h-5.737L55.82 33.659h25.815c.776 0 1.521.308 2.07.857s.857 1.293.857 2.07v38.049z" fill="#000"/></mask><g mask="url(#A)"><path d="M23.098 16.098h74.045l3.514 72.842H23.098V16.098z" fill="#e3e5e4"/><path d="M47.787 39.108h32.684l1.551 34.235H47.787V39.108z" fill="#52808f"/><path d="M23.098 16.098l27.765.517L67 71.651H23.098V16.098z" fill="#0088f7"/><path d="M54.947 71.731H67.43l-9.632 8.927-6.914-.081 4.063-8.846z" fill="#3651ba"/></g></g><defs><filter id="B" x="0" y="0" width="120" height="121" filterUnits="userSpaceOnUse" color-interpolation-filters="sRGB"><feFlood flood-opacity="0" result="A"/><feColorMatrix in="SourceAlpha" values="0 0 0 0 0 0 0 0 0 0 0 0 0 0 0 0 0 0 127 0"/><feOffset dx="3" dy="11"/><feGaussianBlur stdDeviation="5"/><feColorMatrix values="0 0 0 0 0.134236 0 0 0 0 0.128472 0 0 0 0 0.416667 0 0 0 0.1 0"/><feBlend in2="A"/><feBlend in="SourceGraphic"/></filter><clipPath id="C"><path fill="#fff" transform="translate(28.952 21.951)" d="M0 0h58.537v58.537H0z"/></clipPath></defs></svg>