<svg xmlns="http://www.w3.org/2000/svg" width="280" height="17" viewBox="0 0 280 17"><defs><linearGradient id="Gradient-0" x1="0" y1="125.5" x2="112" y2="125.5" gradientUnits="userSpaceOnUse"><stop offset="0" stop-color="#b3b2b2" stop-opacity="0"/><stop offset=".53" stop-color="#c7c7c7"/><stop offset="1" stop-color="#b3b2b2" stop-opacity="0"/></linearGradient><clipPath id="ClipPath-1"><path d="M317.75 0h-160.95v17h160.95v-17Zm119.05 0h-89.68v17h89.68v-17Zm-109.87 3.4l5.18 4.79c0 0-5.26 5.48-5.26 5.48c-0.67 .7-0.65 1.81 .06 2.48c.7 .67 1.82 .65 2.49-0.06l6.49-6.76c.33-0.34 .5-0.8 .49-1.27c-0.02-0.47-0.22-0.91-0.56-1.23l-6.5-6c-0.71-0.66-1.82-0.62-2.49 .09c-0.66 .71-0.62 1.83 .1 2.48Z" fill="#d9d9d9" clip-rule="evenodd" fill-rule="evenodd"/></clipPath></defs><style>
@keyframes a0_t { 0% { transform: translate(78.4px,20px) scaleX(1.4) translate(-56px,-20px); } 70% { transform: translate(852px,20px) scaleX(1.4) translate(-56px,-20px); } 100% { transform: translate(852px,20px) scaleX(1.4) translate(-56px,-20px); } }
</style><g clip-path="url(#ClipPath-1)" transform="translate(-156.8,0)"><rect x="156.8" width="280" height="17" fill="#f5f5f5"/><rect width="112" height="17" opacity=".3" fill="url(#Gradient-0)" clip-rule="evenodd" fill-rule="evenodd" transform="translate(78.4,20) scale(1.4,1) translate(-56,-20)" style="animation: 1s linear infinite both a0_t;"/></g></svg>