<svg xmlns="http://www.w3.org/2000/svg" width="320" height="19" viewBox="0 0 320 19"><defs><linearGradient id="Gradient-0" x1="0" y1="125.5" x2="112" y2="125.5" gradientUnits="userSpaceOnUse"><stop offset="0" stop-color="#b3b2b2" stop-opacity="0"/><stop offset=".53" stop-color="#c7c7c7"/><stop offset="1" stop-color="#b3b2b2" stop-opacity="0"/></linearGradient><clipPath id="ClipPath-1"><path d="M343.75 0h-186.95v19h186.95v-19Zm133.05 0h-100.22v19h100.22v-19Zm-120.8 3.8l5.79 5.35c0 0-5.87 6.13-5.87 6.13c-0.75 .78-0.72 2.02 .06 2.77c.79 .75 2.04 .72 2.79-0.06l7.25-7.56c.37-0.38 .56-0.89 .55-1.42c-0.02-0.52-0.24-1.02-0.63-1.38l-7.25-6.7c-0.8-0.74-2.05-0.69-2.79 .1c-0.74 .8-0.69 2.04 .1 2.77Z" fill="#d9d9d9" clip-rule="evenodd" fill-rule="evenodd"/></clipPath></defs><style>
@keyframes a0_t { 0% { transform: translate(78.4px,20px) scaleX(1.4) translate(-56px,-20px); } 70% { transform: translate(852px,20px) scaleX(1.4) translate(-56px,-20px); } 100% { transform: translate(852px,20px) scaleX(1.4) translate(-56px,-20px); } }
</style><g clip-path="url(#ClipPath-1)" transform="translate(-156.8,0)"><rect x="156.8" width="320" height="19" fill="#f5f5f5"/><rect width="112" height="19" opacity=".3" fill="url(#Gradient-0)" clip-rule="evenodd" fill-rule="evenodd" transform="translate(78.4,20) scale(1.4,1) translate(-56,-20)" style="animation: 1s linear infinite both a0_t;"/></g></svg>