<svg xmlns="http://www.w3.org/2000/svg" width="234" height="687" viewBox="0 0 234 687" clip-rule="evenodd" fill-rule="evenodd"><defs><linearGradient id="Gradient-0" x1="0" y1="125.5" x2="112" y2="125.5" gradientUnits="userSpaceOnUse"><stop offset="0" stop-color="#b3b2b2" stop-opacity="0"/><stop offset=".5" stop-color="#c7c7c7"/><stop offset="1" stop-color="#b3b2b2" stop-opacity="0"/></linearGradient><clipPath id="ClipPath-1"><path d="M129.6 18.6c2.2 0 4 1.8 4 4v4c0 2.2-1.8 4-4 4h-112c-2.2 0-4-1.8-4-4v-4c0-2.2 1.8-4 4-4Zm86 24c2.2 0 4 1.8 4 4v2c0 2.2-1.8 4-4 4h-198c-2.2 0-4-1.8-4-4v-2c0-2.2 1.8-4 4-4Zm-26 22c2.2 0 4 1.8 4 4v2c0 2.2-1.8 4-4 4h-172c-2.2 0-4-1.8-4-4v-2c0-2.2 1.8-4 4-4Zm-31 22c2.2 0 4 1.8 4 4v2c0 2.2-1.8 4-4 4h-141c-2.2 0-4-1.8-4-4v-2c0-2.2 1.8-4 4-4Zm61 31h-206v-1h206Zm-90 20c2.2 0 4 1.8 4 4v4c0 2.2-1.8 4-4 4h-112c-2.2 0-4-1.8-4-4v-4c0-2.2 1.8-4 4-4Zm86 24c2.2 0 4 1.8 4 4v2c0 2.2-1.8 4-4 4h-198c-2.2 0-4-1.8-4-4v-2c0-2.2 1.8-4 4-4Zm-26 22c2.2 0 4 1.8 4 4v2c0 2.2-1.8 4-4 4h-172c-2.2 0-4-1.8-4-4v-2c0-2.2 1.8-4 4-4Zm-31 22c2.2 0 4 1.8 4 4v2c0 2.2-1.8 4-4 4h-141c-2.2 0-4-1.8-4-4v-2c0-2.2 1.8-4 4-4Zm61 31h-206v-1h206Zm-90 20c2.2 0 4 1.8 4 4v4c0 2.2-1.8 4-4 4h-112c-2.2 0-4-1.8-4-4v-4c0-2.2 1.8-4 4-4Zm86 24c2.2 0 4 1.8 4 4v2c0 2.2-1.8 4-4 4h-198c-2.2 0-4-1.8-4-4v-2c0-2.2 1.8-4 4-4Zm-26 22c2.2 0 4 1.8 4 4v2c0 2.2-1.8 4-4 4h-172c-2.2 0-4-1.8-4-4v-2c0-2.2 1.8-4 4-4Zm-31 22c2.2 0 4 1.8 4 4v2c0 2.2-1.8 4-4 4h-141c-2.2 0-4-1.8-4-4v-2c0-2.2 1.8-4 4-4Zm61 31h-206v-1h206Zm-90 20c2.2 0 4 1.8 4 4v4c0 2.2-1.8 4-4 4h-112c-2.2 0-4-1.8-4-4v-4c0-2.2 1.8-4 4-4Zm86 24c2.2 0 4 1.8 4 4v2c0 2.2-1.8 4-4 4h-198c-2.2 0-4-1.8-4-4v-2c0-2.2 1.8-4 4-4Zm-26 22c2.2 0 4 1.8 4 4v2c0 2.2-1.8 4-4 4h-172c-2.2 0-4-1.8-4-4v-2c0-2.2 1.8-4 4-4Zm-31 22c2.2 0 4 1.8 4 4v2c0 2.2-1.8 4-4 4h-141c-2.2 0-4-1.8-4-4v-2c0-2.2 1.8-4 4-4Zm61 31h-206v-1h206Zm-90 20c2.2 0 4 1.8 4 4v4c0 2.2-1.8 4-4 4h-112c-2.2 0-4-1.8-4-4v-4c0-2.2 1.8-4 4-4Zm86 24c2.2 0 4 1.8 4 4v2c0 2.2-1.8 4-4 4h-198c-2.2 0-4-1.8-4-4v-2c0-2.2 1.8-4 4-4Zm-26 22c2.2 0 4 1.8 4 4v2c0 2.2-1.8 4-4 4h-172c-2.2 0-4-1.8-4-4v-2c0-2.2 1.8-4 4-4Zm-31 22c2.2 0 4 1.8 4 4v2c0 2.2-1.8 4-4 4h-141c-2.2 0-4-1.8-4-4v-2c0-2.2 1.8-4 4-4Z" fill="#f5f5f5"/></clipPath></defs><style>
@keyframes a0_t { 0% { transform: translate(-49.7px,125.5px) scaleX(1.4) translate(-75px,-125.5px); } 80% { transform: translate(340px,125.5px) scaleX(1.4) translate(-75px,-125.5px); } 100% { transform: translate(340px,125.5px) scaleX(1.4) translate(-75px,-125.5px); } }
</style><g clip-path="url(#ClipPath-1)"><rect width="234" height="687" fill="#f5f5f5"/><rect width="112" height="687" opacity=".3" fill="url(#Gradient-0)" transform="translate(-49.7,125.5) scale(1.4,1) translate(-75,-125.5)" style="animation: 1s linear infinite both a0_t;"/></g><rect x="2.1" y="2.1" width="229" height="682" fill="none" stroke="#f5f5f5" stroke-width="1px"/></svg>