<svg xmlns="http://www.w3.org/2000/svg" width="298" height="371" viewBox="0 0 298 371" clip-rule="evenodd" fill-rule="evenodd"><defs><linearGradient id="Gradient-0" x1="0" y1="125.5" x2="112" y2="125.5" gradientUnits="userSpaceOnUse"><stop offset="0" stop-color="#b3b2b2" stop-opacity="0"/><stop offset=".5" stop-color="#c7c7c7"/><stop offset="1" stop-color="#b3b2b2" stop-opacity="0"/></linearGradient><clipPath id="ClipPath-1"><path d="M285.6 345.6c0-2.2-1.8-4-4-4h-80c-2.2 0-4 1.8-4 4v8c0 2.2 1.8 4 4 4h80c2.2 0 4-1.8 4-4v-8Zm-272.8 3.8c-2.2-2.7-1.5-6.7 2.1-8c3.6-1.3 5.8 1.3 6.5 2.7c.8-1.4 3.6-4 7.2-2.7c3.6 1.3 3.6 5.3 1.5 8c-2.2 2.6-8.7 7.9-8.7 7.9c0 0-6.5-5.3-8.6-7.9Zm6.8-45.8l2.2 4.4l4.8 .9l-3.4 3.7l.7 5l-4.3-2.2l-4.4 2.2l.7-5l-3.3-3.7l4.7-0.9l2.3-4.4Zm61 5c0-2.2-1.8-4-4-4h-40c-2.2 0-4 1.8-4 4v4c0 2.2 1.8 4 4 4h40c2.2 0 4-1.8 4-4v-4Zm86-37c0-2.2-1.8-4-4-4h-146c-2.2 0-4 1.8-4 4v4c0 2.2 1.8 4 4 4h146c2.2 0 4-1.8 4-4v-4Zm119-21c0-2.2-1.8-4-4-4h-265c-2.2 0-4 1.8-4 4v4c0 2.2 1.8 4 4 4h265c2.2 0 4-1.8 4-4v-4Zm-254-34c0-5.6-4.5-10-10-10c-5.6 0-10 4.4-10 10c0 5.5 4.4 10 10 10c5.5 0 10-4.5 10-10Zm86-2c0-2.2-1.8-4-4-4h-71c-2.2 0-4 1.8-4 4v4c0 2.2 1.8 4 4 4h71c2.2 0 4-1.8 4-4v-4Zm178-213h-294v196h294v-196Z" fill="#f5f5f5" fill-rule="nonzero"/></clipPath></defs><style>
@keyframes a0_t { 0% { transform: translate(-51.8px,125.5px) scaleX(1.4) translate(-75px,-125.5px); } 80% { transform: translate(404px,125.5px) scaleX(1.4) translate(-75px,-125.5px); } 100% { transform: translate(404px,125.5px) scaleX(1.4) translate(-75px,-125.5px); } }
</style><g clip-path="url(#ClipPath-1)"><rect width="298" height="371" fill="#f5f5f5"/><rect width="112" height="371" opacity=".3" fill="url(#Gradient-0)" transform="translate(-51.8,125.5) scale(1.4,1) translate(-75,-125.5)" style="animation: 1s linear infinite both a0_t;"/></g><rect x="2.1" y="2.1" width="293" height="366" fill="none" stroke="#f5f5f5" stroke-width="1px"/></svg>