<svg xmlns="http://www.w3.org/2000/svg" width="1414" height="12" viewBox="0 0 1414 12" clip-rule="evenodd" fill-rule="evenodd" stroke-linejoin="round" stroke-miterlimit="2"><defs><linearGradient id="Gradient-0" x1="0" y1="125.5" x2="112" y2="125.5" gradientUnits="userSpaceOnUse"><stop offset="0" stop-color="#b3b2b2" stop-opacity="0"/><stop offset=".5" stop-color="#c7c7c7"/><stop offset="1" stop-color="#b3b2b2" stop-opacity="0"/></linearGradient><clipPath id="ClipPath-1"><path d="M120 4c0-2.2-1.8-4-4-4h-112c-2.2 0-4 1.8-4 4v4c0 2.2 1.8 4 4 4h112c2.2 0 4-1.8 4-4v-4Zm1033 0c0-2.2-1.8-4-4-4h-4c-2.2 0-4 1.8-4 4v4c0 2.2 1.8 4 4 4h4c2.2 0 4-1.8 4-4v-4Zm24 0c0-2.2-1.8-4-4-4h-4c-2.2 0-4 1.8-4 4v4c0 2.2 1.8 4 4 4h4c2.2 0 4-1.8 4-4v-4Zm237 0c0-2.2-1.8-4-4-4h-215c-2.2 0-4 1.8-4 4v4c0 2.2 1.8 4 4 4h215c2.2 0 4-1.8 4-4v-4Zm-791 0c0-2.2-1.8-4-4-4h-375c-2.2 0-4 1.8-4 4v4c0 2.2 1.8 4 4 4h375c2.2 0 4-1.8 4-4v-4Z" fill="#f5f5f5"/></clipPath></defs><style>
@keyframes a0_t { 0% { transform: translate(-78.4px,6px) scaleX(1.4) translate(-56px,-6px); } 80% { transform: translate(739.6px,6px) scaleX(1.4) translate(-56px,-6px); } 100% { transform: translate(739.6px,6px) scaleX(1.4) translate(-56px,-6px); } }
@keyframes a1_t { 0% { transform: translate(845.6px,6px) scaleX(1.4) translate(-56px,-6px); } 80% { transform: translate(1663.6px,6px) scaleX(1.4) translate(-56px,-6px); } 100% { transform: translate(1663.6px,6px) scaleX(1.4) translate(-56px,-6px); } }
</style><g clip-path="url(#ClipPath-1)"><rect width="1414" height="12" fill="#f5f5f5"/><rect width="112" height="12" opacity=".3" fill="url(#Gradient-0)" transform="translate(-78.4,6) scale(1.4,1) translate(-56,-6)" style="animation: 1s linear infinite both a0_t;"/><rect width="112" height="12" opacity=".3" fill="url(#Gradient-0)" transform="translate(845.6,6) scale(1.4,1) translate(-56,-6)" style="animation: 1s linear infinite both a1_t;"/></g></svg>