<svg xmlns="http://www.w3.org/2000/svg" width="446" height="36" viewBox="0 0 446 36" clip-rule="evenodd" fill-rule="evenodd"><defs><linearGradient id="Gradient-0" x1="0" y1="125.5" x2="112" y2="125.5" gradientUnits="userSpaceOnUse"><stop offset="0" stop-color="#b3b2b2" stop-opacity="0"/><stop offset=".5" stop-color="#c7c7c7"/><stop offset="1" stop-color="#b3b2b2" stop-opacity="0"/></linearGradient><clipPath id="ClipPath-1"><path d="M123.6 15.6c0-2.2-1.8-4-4-4h-94c-2.2 0-4 1.8-4 4v4c0 2.2 1.8 4 4 4h94c2.2 0 4-1.8 4-4v-4Zm150 0c0-2.2-1.8-4-4-4h-94c-2.2 0-4 1.8-4 4v4c0 2.2 1.8 4 4 4h94c2.2 0 4-1.8 4-4v-4Zm150 0c0-2.2-1.8-4-4-4h-94c-2.2 0-4 1.8-4 4v4c0 2.2 1.8 4 4 4h94c2.2 0 4-1.8 4-4v-4Z" fill="#f5f5f5"/></clipPath></defs><style>
@keyframes a0_t { 0% { transform: translate(-51.8px,125.5px) scaleX(1.4) translate(-75px,-125.5px); } 70% { transform: translate(553px,125.5px) scaleX(1.4) translate(-75px,-125.5px); } 100% { transform: translate(553px,125.5px) scaleX(1.4) translate(-75px,-125.5px); } }
</style><g clip-path="url(#ClipPath-1)"><rect width="446" height="36" fill="#f5f5f5"/><rect width="112" height="36" opacity=".3" fill="url(#Gradient-0)" transform="translate(-51.8,125.5) scale(1.4,1) translate(-75,-125.5)" style="animation: 1s linear infinite both a0_t;"/></g><path d="M143.1 5.6c0-2-1.6-3.5-3.5-3.5h-134c-2 0-3.5 1.5-3.5 3.5v24c0 1.9 1.5 3.5 3.5 3.5h134c1.9 0 3.5-1.6 3.5-3.5v-24Zm150 0c0-2-1.6-3.5-3.5-3.5h-134c-2 0-3.5 1.5-3.5 3.5v24c0 1.9 1.5 3.5 3.5 3.5h134c1.9 0 3.5-1.6 3.5-3.5v-24Zm150 0c0-2-1.6-3.5-3.5-3.5h-134c-2 0-3.5 1.5-3.5 3.5v24c0 1.9 1.5 3.5 3.5 3.5h134c1.9 0 3.5-1.6 3.5-3.5v-24Z" fill="none" stroke="#f5f5f5" stroke-width="1px"/></svg>