<svg xmlns="http://www.w3.org/2000/svg" width="32" height="32" fill="#04b70a"><path d="M15.827 8.798H7.974l-.189-1.207c-.076-.593-.271-1.042-.586-1.347s-.846-.457-1.594-.457h-4.22c-.37 0-.693.14-.97.419A1.36 1.36 0 0 0 0 7.197c0 .39.139.724.416 1.004a1.32 1.32 0 0 0 .97.419h3.691l1.89 13.035c.151.999.5 1.785 1.046 2.357s1.319.858 2.318.858h14.638c.336 0 .634-.117.894-.349s.39-.544.39-.934c0-.381-.13-.688-.39-.921a1.3 1.3 0 0 0-.894-.349H10.67a.8.8 0 0 1-.611-.248c-.155-.165-.254-.387-.296-.667l-.189-1.309h15.545c1.008 0 1.785-.286 2.331-.857.5-.524.832-1.236.993-2.134a8.5 8.5 0 0 1-4.122 1.06c-4.713 0-8.534-3.821-8.534-8.534 0-.28.013-.556.04-.829zM9.385 30.231a2.28 2.28 0 0 1-.315-1.182 2.28 2.28 0 0 1 .315-1.181c.21-.356.489-.637.838-.845s.741-.311 1.178-.311c.428 0 .817.104 1.165.311s.628.489.838.845a2.28 2.28 0 0 1 .315 1.181c0 .652-.227 1.205-.68 1.658a2.23 2.23 0 0 1-1.638.68c-.437 0-.829-.104-1.178-.311s-.628-.489-.838-.845zm11.514 0a2.28 2.28 0 0 1-.315-1.182 2.28 2.28 0 0 1 .315-1.181 2.35 2.35 0 0 1 .844-.845 2.27 2.27 0 0 1 1.172-.311 2.27 2.27 0 0 1 1.171.311 2.3 2.3 0 0 1 .838.845c.206.356.309.75.309 1.181 0 .652-.225 1.205-.674 1.658s-.997.68-1.644.68c-.428 0-.819-.104-1.172-.311a2.35 2.35 0 0 1-.844-.845z"/><path fill-rule="evenodd" d="M24.321 16.667a7.04 7.04 0 1 0 0-14.08 7.04 7.04 0 1 0 0 14.08zm3.661-8.395a.64.64 0 1 0-.89-.92l-3.453 3.34-1.497-1.765a.64.64 0 1 0-.976.828l2.381 2.807 4.435-4.29z"/></svg>