<svg width="17" height="17" viewBox="0 0 17 17" fill="none" xmlns="http://www.w3.org/2000/svg">
	<path d="M16.6343 0.351472C16.1657 -0.117157 15.4059 -0.117157 14.9373 0.351472L8.49289 6.79584L2.04853 0.351472C1.5799 -0.117157 0.820102 -0.117157 0.351473 0.351472C-0.117156 0.820101 -0.117157 1.5799 0.351472 2.04853L6.79584 8.49289L0.351471 14.9373C-0.117158 15.4059 -0.117156 16.1657 0.351472 16.6343C0.820102 17.1029 1.5799 17.1029 2.04853 16.6343L8.49289 10.19L14.9373 16.6343C15.4059 17.1029 16.1657 17.1029 16.6343 16.6343C17.1029 16.1657 17.1029 15.4059 16.6343 14.9373L10.19 8.49289L16.6343 2.04853C17.1029 1.5799 17.1029 0.820101 16.6343 0.351472Z" fill="white"/>
	<path d="M16.6343 0.351472C16.1657 -0.117157 15.4059 -0.117157 14.9373 0.351472L8.49289 6.79584L2.04853 0.351472C1.5799 -0.117157 0.820102 -0.117157 0.351473 0.351472C-0.117156 0.820101 -0.117157 1.5799 0.351472 2.04853L6.79584 8.49289L0.351471 14.9373C-0.117158 15.4059 -0.117156 16.1657 0.351472 16.6343C0.820102 17.1029 1.5799 17.1029 2.04853 16.6343L8.49289 10.19L14.9373 16.6343C15.4059 17.1029 16.1657 17.1029 16.6343 16.6343C17.1029 16.1657 17.1029 15.4059 16.6343 14.9373L10.19 8.49289L16.6343 2.04853C17.1029 1.5799 17.1029 0.820101 16.6343 0.351472Z" fill="#4C4C4C" fill-opacity="0.04"/>
</svg>
