<svg width="178" height="52" viewBox="0 0 178 52" fill="none" xmlns="http://www.w3.org/2000/svg">
	<path d="M171.407 52H6.59259C2.96832 52 0 49.0734 0 45.5V6.5C0 2.92663 2.96832 2.74817e-06 6.59259 2.74817e-06H171.407C175.032 2.74817e-06 178 2.92663 178 6.5V45.5C178 49.0734 175.032 52 171.407 52Z" fill="black"/>
	<path d="M89.8372 28.2783C86.7404 28.2783 84.2105 30.602 84.2105 33.8082C84.2105 36.9883 86.7404 39.3364 89.8372 39.3364C92.9407 39.3364 95.4706 36.9883 95.4706 33.8082C95.4706 30.602 92.9407 28.2783 89.8372 28.2783ZM89.8372 37.1589C88.138 37.1589 86.6761 35.776 86.6761 33.8082C86.6761 31.8143 88.138 30.4558 89.8372 30.4558C91.5365 30.4558 93.005 31.8143 93.005 33.8082C93.005 35.776 91.5365 37.1589 89.8372 37.1589ZM77.5602 28.2783C74.4567 28.2783 71.9334 30.602 71.9334 33.8082C71.9334 36.9883 74.4567 39.3364 77.5602 39.3364C80.662 39.3364 83.187 36.9883 83.187 33.8082C83.187 30.602 80.662 28.2783 77.5602 28.2783ZM77.5602 37.1589C75.8593 37.1589 74.3924 35.776 74.3924 33.8082C74.3924 31.8143 75.8593 30.4558 77.5602 30.4558C79.2594 30.4558 80.7213 31.8143 80.7213 33.8082C80.7213 35.776 79.2594 37.1589 77.5602 37.1589ZM62.951 29.9732V32.3229H68.642C68.4756 33.6359 68.0306 34.6012 67.3483 35.2739C66.5176 36.0864 65.2238 36.9883 62.951 36.9883C59.4487 36.9883 56.7062 34.2014 56.7062 30.7483C56.7062 27.2952 59.4487 24.5083 62.951 24.5083C64.8447 24.5083 66.2226 25.2379 67.2395 26.1837L68.9189 24.5278C67.4966 23.1888 65.6045 22.1602 62.951 22.1602C58.1483 22.1602 54.112 26.013 54.112 30.7483C54.112 35.4835 58.1483 39.3364 62.951 39.3364C65.5468 39.3364 67.4966 38.4979 69.0294 36.9249C70.6001 35.3763 71.0895 33.1988 71.0895 31.4405C71.0895 30.8945 71.0434 30.3924 70.961 29.9732H62.951ZM122.69 31.7948C122.227 30.5582 120.798 28.2783 117.887 28.2783C115.003 28.2783 112.601 30.5192 112.601 33.8082C112.601 36.9054 114.978 39.3364 118.164 39.3364C120.74 39.3364 122.227 37.7878 122.838 36.8859L120.926 35.6298C120.288 36.5495 119.42 37.1589 118.164 37.1589C116.916 37.1589 116.021 36.595 115.448 35.4835L122.949 32.4237L122.69 31.7948ZM115.042 33.6359C114.978 31.5039 116.722 30.4119 117.971 30.4119C118.95 30.4119 119.781 30.8945 120.058 31.5852L115.042 33.6359ZM108.946 39H111.411V22.75H108.946V39ZM104.908 29.51H104.825C104.272 28.8633 103.215 28.2783 101.877 28.2783C99.0685 28.2783 96.5007 30.7093 96.5007 33.826C96.5007 36.9249 99.0685 39.3364 101.877 39.3364C103.215 39.3364 104.272 38.7465 104.825 38.0803H104.908V38.8733C104.908 40.9874 103.762 42.1233 101.915 42.1233C100.408 42.1233 99.474 41.0508 99.0883 40.1489L96.944 41.0313C97.5621 42.497 99.1987 44.3008 101.915 44.3008C104.806 44.3008 107.245 42.6238 107.245 38.5434V28.6147H104.908V29.51ZM102.088 37.1589C100.389 37.1589 98.9663 35.7565 98.9663 33.826C98.9663 31.8777 100.389 30.4558 102.088 30.4558C103.762 30.4558 105.083 31.8777 105.083 33.826C105.083 35.7565 103.762 37.1589 102.088 37.1589ZM134.233 22.75H128.336V39H130.795V32.8429H134.233C136.964 32.8429 139.643 30.8945 139.643 27.7957C139.643 24.6984 136.958 22.75 134.233 22.75ZM134.298 30.5825H130.795V25.0104H134.298C136.134 25.0104 137.182 26.5135 137.182 27.7957C137.182 29.0534 136.134 30.5825 134.298 30.5825ZM149.499 28.2474C147.722 28.2474 145.874 29.0209 145.114 30.7353L147.297 31.6372C147.766 30.7353 148.63 30.4428 149.543 30.4428C150.819 30.4428 152.112 31.1984 152.132 32.5325V32.7032C151.687 32.4497 150.735 32.0743 149.563 32.0743C147.213 32.0743 144.818 33.3499 144.818 35.7305C144.818 37.908 146.743 39.3104 148.907 39.3104C150.562 39.3104 151.475 38.5743 152.048 37.7179H152.132V38.974H154.507V32.7405C154.507 29.8594 152.325 28.2474 149.499 28.2474ZM149.202 37.1524C148.398 37.1524 147.277 36.7592 147.277 35.776C147.277 34.5183 148.674 34.0357 149.884 34.0357C150.967 34.0357 151.475 34.2713 152.132 34.5817C151.939 36.0864 150.626 37.1524 149.202 37.1524ZM163.16 28.6033L160.333 35.6477H160.249L157.327 28.6033H154.675L159.066 38.4475L156.561 43.9254H159.13L165.896 28.6033H163.16ZM140.994 39H143.46V22.75H140.994V39Z" fill="white"/>
	<path d="M13.7587 9.80044C13.3714 10.2002 13.1473 10.8226 13.1473 11.6286V40.3781C13.1473 41.1841 13.3714 41.8064 13.7587 42.2062L13.8543 42.2939L30.1941 26.1902V25.8099L13.8543 9.7062L13.7587 9.80044Z" fill="url(#paint0_linear)"/>
	<path d="M35.6346 31.5608L30.194 26.1902V25.8099L35.6412 20.4393L35.7631 20.5092L42.214 24.128C44.055 25.155 44.055 26.845 42.214 27.8785L35.7631 31.4909L35.6346 31.5608Z" fill="url(#paint1_linear)"/>
	<path d="M35.7632 31.491L30.1941 26.0001L13.7588 42.2062C14.3702 42.84 15.3674 42.9163 16.5013 42.2826L35.7632 31.491Z" fill="url(#paint2_linear)"/>
	<path d="M35.7632 20.5091L16.5013 9.71751C15.3674 9.09025 14.3702 9.16663 13.7588 9.80038L30.1941 26L35.7632 20.5091Z" fill="url(#paint3_linear)"/>
	<path d="M54.0586 14.999H54.6104C55.0824 14.1364 55.4779 13.168 55.7969 12.0938C56.1159 11.0195 56.321 9.94206 56.4121 8.86133H60.0986V14.999H61.0215V17.9678H59.8984V16H55.1816V17.9678H54.0586V14.999ZM57.3887 9.87207C57.3171 10.611 57.1348 11.4688 56.8418 12.4453C56.5488 13.4186 56.2152 14.2699 55.8408 14.999H58.9316V9.87207H57.3887ZM68.5166 12.4209C68.5166 13.583 68.2253 14.4863 67.6426 15.1309C67.0632 15.7754 66.2412 16.0977 65.1768 16.0977C64.0993 16.0977 63.2708 15.7786 62.6914 15.1406C62.1152 14.4993 61.8271 13.5895 61.8271 12.4111C61.8271 11.2327 62.1169 10.3278 62.6963 9.69629C63.279 9.06478 64.109 8.74902 65.1865 8.74902C66.2477 8.74902 67.068 9.06966 67.6475 9.71094C68.2269 10.3522 68.5166 11.2555 68.5166 12.4209ZM63.0674 12.4209C63.0674 13.2998 63.2448 13.9671 63.5996 14.4229C63.9544 14.8753 64.4801 15.1016 65.1768 15.1016C65.8701 15.1016 66.3926 14.877 66.7441 14.4277C67.099 13.9785 67.2764 13.3096 67.2764 12.4209C67.2764 11.5452 67.1006 10.8812 66.749 10.4287C66.4007 9.97624 65.8799 9.75 65.1865 9.75C64.4867 9.75 63.9577 9.97624 63.5996 10.4287C63.2448 10.8812 63.0674 11.5452 63.0674 12.4209ZM73.0869 9.75977C72.4163 9.75977 71.889 9.9974 71.5049 10.4727C71.1208 10.9479 70.9287 11.6038 70.9287 12.4404C70.9287 13.3161 71.1126 13.9785 71.4805 14.4277C71.8516 14.877 72.387 15.1016 73.0869 15.1016C73.3896 15.1016 73.6826 15.0723 73.9658 15.0137C74.249 14.9518 74.5436 14.8737 74.8496 14.7793V15.7803C74.2897 15.9919 73.6549 16.0977 72.9453 16.0977C71.9004 16.0977 71.098 15.7819 70.5381 15.1504C69.9782 14.5156 69.6982 13.609 69.6982 12.4307C69.6982 11.6885 69.8333 11.0391 70.1035 10.4824C70.377 9.92578 70.7708 9.49935 71.2852 9.20312C71.7995 8.9069 72.4033 8.75879 73.0967 8.75879C73.8258 8.75879 74.4997 8.91178 75.1182 9.21777L74.6982 10.1895C74.4574 10.0755 74.2018 9.97624 73.9316 9.8916C73.6647 9.80371 73.3831 9.75977 73.0869 9.75977ZM78.8535 16H77.6865V9.8623H75.5869V8.86133H80.9531V9.8623H78.8535V16ZM87.4814 8.86133L85.2305 13.9395C84.9538 14.5612 84.6999 15.012 84.4688 15.292C84.2376 15.5687 83.9691 15.7721 83.6631 15.9023C83.3604 16.0326 82.9925 16.0977 82.5596 16.0977C82.182 16.0977 81.832 16.0488 81.5098 15.9512V14.9014C81.8288 15.0283 82.1624 15.0918 82.5107 15.0918C82.807 15.0918 83.0544 15.0202 83.2529 14.877C83.4548 14.7305 83.637 14.4684 83.7998 14.0908L81.168 8.86133H82.4277L84.1709 12.4404C84.3271 12.779 84.4232 13.0052 84.459 13.1191H84.5078C84.5273 13.0345 84.5762 12.8994 84.6543 12.7139L86.2607 8.86133H87.4814ZM93.917 16H92.7451V9.8623H89.5957V16H88.4287V8.86133H93.917V16ZM101.432 16H100.26V12.7822H96.9688V16H95.8018V8.86133H96.9688V11.7812H100.26V8.86133H101.432V16ZM109.649 12.4209C109.649 13.583 109.358 14.4863 108.775 15.1309C108.196 15.7754 107.374 16.0977 106.31 16.0977C105.232 16.0977 104.404 15.7786 103.824 15.1406C103.248 14.4993 102.96 13.5895 102.96 12.4111C102.96 11.2327 103.25 10.3278 103.829 9.69629C104.412 9.06478 105.242 8.74902 106.319 8.74902C107.381 8.74902 108.201 9.06966 108.78 9.71094C109.36 10.3522 109.649 11.2555 109.649 12.4209ZM104.2 12.4209C104.2 13.2998 104.378 13.9671 104.732 14.4229C105.087 14.8753 105.613 15.1016 106.31 15.1016C107.003 15.1016 107.525 14.877 107.877 14.4277C108.232 13.9785 108.409 13.3096 108.409 12.4209C108.409 11.5452 108.233 10.8812 107.882 10.4287C107.534 9.97624 107.013 9.75 106.319 9.75C105.619 9.75 105.09 9.97624 104.732 10.4287C104.378 10.8812 104.2 11.5452 104.2 12.4209ZM113.78 8.86133H115.899C116.882 8.86133 117.592 9.00456 118.028 9.29102C118.468 9.57747 118.688 10.0299 118.688 10.6484C118.688 11.0651 118.58 11.4118 118.365 11.6885C118.15 11.9652 117.841 12.1393 117.438 12.2109V12.2598C117.939 12.3542 118.307 12.5413 118.541 12.8213C118.779 13.098 118.897 13.474 118.897 13.9492C118.897 14.5905 118.673 15.0934 118.224 15.458C117.778 15.8193 117.156 16 116.358 16H113.78V8.86133ZM114.947 11.8105H116.07C116.559 11.8105 116.915 11.734 117.14 11.5811C117.364 11.4248 117.477 11.1611 117.477 10.79C117.477 10.4548 117.354 10.2122 117.11 10.0625C116.869 9.91276 116.485 9.83789 115.958 9.83789H114.947V11.8105ZM114.947 12.7578V15.0186H116.188C116.676 15.0186 117.044 14.9258 117.291 14.7402C117.542 14.5514 117.667 14.2552 117.667 13.8516C117.667 13.4805 117.54 13.2054 117.286 13.0264C117.032 12.8473 116.646 12.7578 116.129 12.7578H114.947Z" fill="white"/>
	<defs>
		<linearGradient id="paint0_linear" x1="28.7433" y1="40.6775" x2="6.92836" y2="18.5518" gradientUnits="userSpaceOnUse">
			<stop stop-color="#00A0FF"/>
			<stop offset="0.0066" stop-color="#00A1FF"/>
			<stop offset="0.2601" stop-color="#00BEFF"/>
			<stop offset="0.5122" stop-color="#00D2FF"/>
			<stop offset="0.7604" stop-color="#00DFFF"/>
			<stop offset="1" stop-color="#00E3FF"/>
		</linearGradient>
		<linearGradient id="paint1_linear" x1="44.6112" y1="25.9982" x2="12.7072" y2="25.9982" gradientUnits="userSpaceOnUse">
			<stop stop-color="#FFE000"/>
			<stop offset="0.4087" stop-color="#FFBD00"/>
			<stop offset="0.7754" stop-color="#FFA500"/>
			<stop offset="1" stop-color="#FF9C00"/>
		</linearGradient>
		<linearGradient id="paint2_linear" x1="32.7349" y1="23.0152" x2="3.15205" y2="-6.98907" gradientUnits="userSpaceOnUse">
			<stop stop-color="#FF3A44"/>
			<stop offset="1" stop-color="#C31162"/>
		</linearGradient>
		<linearGradient id="paint3_linear" x1="9.62164" y1="51.7709" x2="22.8317" y2="38.3728" gradientUnits="userSpaceOnUse">
			<stop stop-color="#32A071"/>
			<stop offset="0.0685" stop-color="#2DA771"/>
			<stop offset="0.4762" stop-color="#15CF74"/>
			<stop offset="0.8009" stop-color="#06E775"/>
			<stop offset="1" stop-color="#00F076"/>
		</linearGradient>
	</defs>
</svg>
