<svg xmlns="http://www.w3.org/2000/svg" width="16" height="16" fill="none"><path fill-rule="evenodd" d="M7.108.084C6.427.267 5.892.716 5.566 1.38c-.191.388-.199.436-.221 1.275l-.023.872h-.436c-.324 0-.486.031-.631.119-.398.243-.369.015-.635 4.926-.272 5.016-.279 4.769.143 5.029.195.12.288.122 4.035.106l3.835-.016.209-.228c.163-.178.209-.28.209-.465v-.237l-.412-.03c-.273-.02-.515-.082-.717-.185-.356-.181-2.704-2.232-3.03-2.647-.806-1.025-.43-2.551.775-3.144a1.54 1.54 0 0 1 .867-.196c.572-.004 1.002.167 1.507.599l.325.278.186-.291.186-.291-.077-1.374c-.086-1.525-.127-1.683-.486-1.854-.132-.063-.369-.1-.638-.1h-.428l-.021-.87c-.02-.829-.03-.889-.215-1.279C9.368.312 8.234-.218 7.108.084zm1.078 1.407a1.14 1.14 0 0 1 .375.347c.149.224.164.307.184.967l.022.722H7.753 6.74v-.724c0-.651.014-.744.139-.929.308-.456.83-.609 1.307-.383zm6.398 3.376c-.215.089-.365.302-1.59 2.262l-1.281 2.007c-.065.07-.212-.034-.88-.623-.846-.746-.998-.825-1.456-.752-.157.025-.295.11-.454.28-.203.216-.229.28-.229.555 0 .171.039.386.086.477.098.19 2.385 2.243 2.68 2.406.253.14.541.135.832-.013.209-.106.423-.418 1.86-2.709l1.692-2.783c.134-.384-.032-.824-.393-1.044-.203-.124-.64-.155-.867-.061z" fill="#fff"/></svg>
