<svg width="8" height="14" fill="none" xmlns="http://www.w3.org/2000/svg"><path d="M1.333.333C.6.333 0 .933 0 1.667l.007 2.12c0 .353.14.686.386.94L2.667 7 .393 9.287a1.332 1.332 0 0 0-.386.94L0 12.333c0 .734.6 1.334 1.333 1.334h5.334c.733 0 1.333-.6 1.333-1.334v-2.106c0-.354-.14-.694-.387-.94L5.333 7l2.274-2.267C7.86 4.48 8 4.14 8 3.787v-2.12C8 .933 7.4.333 6.667.333H1.333Zm5.334 9.94v1.394c0 .366-.3.666-.667.666H2a.669.669 0 0 1-.667-.666v-1.394c0-.18.074-.346.194-.473L4 7.333l2.473 2.474c.12.12.194.293.194.466Z" fill="#8A8A8A"/></svg>