<svg width="32" height="32" viewBox="0 0 32 32" fill="none" xmlns="http://www.w3.org/2000/svg">
<path d="M16 30C23.732 30 30 23.732 30 16C30 14.0109 29.5852 12.1188 28.8374 10.4053L30.3425 8.90018C31.4035 11.0395 32 13.4501 32 16C32 24.8366 24.8366 32 16 32C7.16344 32 0 24.8366 0 16C0 7.16344 7.16344 0 16 0C20.1021 0 23.8437 1.54373 26.6754 4.08194L25.2588 5.49858C22.791 3.32115 19.5498 2 16 2C8.26801 2 2 8.26801 2 16C2 23.732 8.26801 30 16 30Z" fill="#177DE6"/>
<path d="M31.7071 4.70711L30.2929 3.29289L16 17.5858L10.7071 12.2929L9.29289 13.7071L16 20.4142L31.7071 4.70711Z" fill="#177DE6"/>
</svg>
