<svg xmlns="http://www.w3.org/2000/svg" width="15" height="15" fill="none"><path d="M11.429 5.971L8.678 8.729a3.89 3.89 0 0 0-1.101 2.206L4.276 7.625c.831-.116 1.596-.496 2.201-1.103l2.751-2.758 2.201 2.206zm2.751.552L8.678 1.007a.78.78 0 0 0-1.101 0c-.303.303-.303.8 0 1.103l.55.552-2.751 2.758a2.33 2.33 0 0 1-3.302 0L.974 6.522 4.26 9.815.408 13.676v1.103h1.101l3.852-3.861 3.318 3.326 1.101-1.103a2.34 2.34 0 0 1 0-3.309l2.751-2.758.55.552a.78.78 0 0 0 1.101 0c.303-.303.303-.8 0-1.103z" fill="#000"/></svg>