<svg viewBox="0 0 24 24" fill="none" xmlns="http://www.w3.org/2000/svg">
<path fill-rule="evenodd" clip-rule="evenodd" d="M16.2427 7.75736C18.5858 10.1005 18.5858 13.8995 16.2427 16.2426C13.8995 18.5858 10.1006 18.5858 7.75741 16.2426C5.41427 13.8995 5.41427 10.1005 7.75741 7.75736C10.1006 5.41421 13.8995 5.41421 16.2427 7.75736ZM8.67162 12C8.67162 11.7239 8.89548 11.5 9.17162 11.5H11.5001V9.17157C11.5001 8.89543 11.7239 8.67157 12.0001 8.67157C12.2762 8.67157 12.5001 8.89543 12.5001 9.17157V11.5H14.8285C15.1046 11.5 15.3285 11.7239 15.3285 12C15.3285 12.2761 15.1046 12.5 14.8285 12.5H12.5001V14.8284C12.5001 15.1046 12.2762 15.3284 12.0001 15.3284C11.7239 15.3284 11.5001 15.1046 11.5001 14.8284V12.5H9.17162C8.89548 12.5 8.67162 12.2761 8.67162 12Z" fill="white"/>
</svg>
