<svg width="5" height="8" viewBox="0 0 4 6" xmlns="http://www.w3.org/2000/svg" fill="none"><path fill="#A5A5A5" d="M1.449.705c0 .131.03.25.089.355.06.105.14.19.242.253a.639.639 0 0 0 .342.094.629.629 0 0 0 .476-.205.698.698 0 0 0 .194-.497.7.7 0 0 0-.194-.501A.631.631 0 0 0 2.122 0a.637.637 0 0 0-.478.204.697.697 0 0 0-.195.501zM.862 5.276A.5.5 0 0 0 1.309 6h1.69a.5.5 0 0 0 .5-.5v-.157A.343.343 0 0 0 3.157 5a.343.343 0 0 1-.343-.343V2.564c0-.177-.05-.316-.152-.415A.55.55 0 0 0 2.258 2H1.5a.5.5 0 0 0-.5.5v.157c0 .19.153.343.343.343.19 0 .343.154.343.343v1.233c0 .234-.19.424-.424.424-.16 0-.308.09-.38.234l-.02.042z"/></svg>