<svg width="20" height="20" viewBox="0 0 20 20" fill="none" xmlns="http://www.w3.org/2000/svg">
<path d="M2.92877 2.92927C-0.976081 6.83411 -0.97608 13.1649 2.92877 17.0698C6.83361 20.9746 13.1644 20.9746 17.0693 17.0698C20.9741 13.1649 20.9741 6.83412 17.0693 2.92927C13.1644 -0.975579 6.83361 -0.975579 2.92877 2.92927ZM13.6349 13.6354C11.6269 15.6433 8.3717 15.6433 6.36344 13.6351C4.3558 11.6274 4.35522 8.37217 6.36344 6.36394C8.37167 4.35572 11.6266 4.35599 13.6346 6.36394C15.6425 8.37189 15.6428 11.6274 13.6349 13.6354Z" fill="#F0F0F0"/>
<path d="M4.59512 4.59452C1.61059 7.57905 1.61059 12.418 4.59512 15.4025C7.57995 18.3874 12.4186 18.3871 15.4031 15.4025C18.3877 12.418 18.3879 7.57932 15.4031 4.59452C12.4186 1.61002 7.57964 1.60999 4.59512 4.59452ZM13.635 13.6344C11.6271 15.6424 8.37184 15.6424 6.36359 13.6341C4.35594 11.6265 4.35536 8.37122 6.36359 6.36299C8.37181 4.35477 11.6268 4.35504 13.6347 6.36299C15.6427 8.37094 15.643 11.6265 13.635 13.6344Z" fill="#E8E8E8"/>
<path d="M2.82659 7.37927C3.57543 7.76106 4.3243 8.14227 5.07316 8.52404C5.30913 7.73366 5.73837 6.98803 6.3626 6.36381C6.98682 5.73958 7.73215 5.31004 8.52314 5.07407C8.14134 4.32523 7.75955 3.57694 7.37836 2.8275C6.3626 3.1975 5.40811 3.7814 4.59388 4.59564C3.77964 5.40987 3.19632 6.36378 2.82659 7.37927Z" fill="#FF7058"/>
<path d="M6.29755 0.70958C6.66018 1.41395 7.0193 2.12067 7.37903 2.828C6.3621 3.19623 5.40792 3.77983 4.59484 4.59291C3.77881 5.40894 3.19551 6.36343 2.82728 7.37975C2.12291 7.01712 1.41619 6.658 0.712117 6.30153C1.19789 5.07278 1.93762 3.92121 2.93041 2.92842C3.92319 1.93563 5.07203 1.19273 6.29755 0.70958Z" fill="#FF9685"/>
<path d="M17.1712 12.6183C16.4223 12.2365 15.6731 11.8556 14.9243 11.4738C14.6883 12.2641 14.2591 13.0098 13.6349 13.634C13.0106 14.2582 12.2653 14.6878 11.4746 14.9234C11.8564 15.6723 12.2379 16.4209 12.6191 17.1703C13.6349 16.8003 14.5894 16.2164 15.4036 15.4021C16.2179 14.5879 16.8012 13.634 17.1712 12.6183Z" fill="#FF9685"/>
<path d="M19.2889 13.7011C18.8058 14.9266 18.0638 16.0758 17.071 17.0686C16.0782 18.0614 14.926 18.8006 13.6976 19.2866C13.3382 18.5796 12.9791 17.8729 12.6194 17.1715C13.6331 16.8 14.5878 16.217 15.4035 15.4013C16.2166 14.5882 16.7996 13.6334 17.1711 12.6197C17.8784 12.9794 18.5849 13.3388 19.2889 13.7011Z" fill="#FF7058"/>
<path d="M12.6187 2.82679C12.2369 3.57563 11.8557 4.32449 11.4739 5.07336C12.2643 5.30991 13.0102 5.73885 13.6345 6.3631C14.2587 6.98735 14.6879 7.73296 14.9239 8.52334C15.6727 8.14154 16.4213 7.76005 17.1705 7.37856C16.8005 6.3634 16.2166 5.40892 15.4023 4.59465C14.5883 3.78069 13.6342 3.19709 12.6187 2.82679Z" fill="#FF9685"/>
<path d="M17.071 2.92773C18.0638 3.92052 18.8064 5.06913 19.2893 6.29493C18.5852 6.65728 17.8782 7.01668 17.1711 7.3761C16.7997 6.3624 16.2167 5.40819 15.4033 4.59484C14.5873 3.77881 13.6328 3.19551 12.6197 2.82463C12.9791 2.12349 13.3385 1.41646 13.6979 0.709465C14.9266 1.19582 16.0785 1.93524 17.071 2.92773Z" fill="#FF7058"/>
<path d="M7.3791 17.1709C7.76089 16.422 8.14211 15.6732 8.52418 14.924C7.7335 14.6877 6.98789 14.2585 6.36364 13.6342C5.73969 13.0103 5.31017 12.265 5.0742 11.474C4.32506 11.8561 3.57647 12.2376 2.82733 12.6191C3.19733 13.6342 3.78123 14.5887 4.5955 15.403C5.40946 16.217 6.36364 16.8006 7.3791 17.1709Z" fill="#FF9685"/>
<path d="M4.59457 15.4043C5.40795 16.2177 6.36213 16.8007 7.37847 17.1695C7.01905 17.8765 6.65968 18.5835 6.29731 19.2876C5.0715 18.8048 3.92289 18.0621 2.9301 17.0693C1.93762 16.0768 1.1982 14.925 0.712117 13.6965C1.41914 13.3371 2.12324 12.9807 2.82728 12.6183C3.19526 13.6338 3.77856 14.5883 4.59457 15.4043Z" fill="#FF7058"/>
</svg>
