<svg xmlns="http://www.w3.org/2000/svg" width="24" height="24" fill="none"><path d="M15.272 7.703v8.655c0 1.71-1.252 3.231-2.953 3.395-1.955.188-3.591-1.342-3.591-3.256V6.386c0-1.072.769-2.045 1.832-2.152 1.227-.123 2.258.834 2.258 2.037v8.59a.82.82 0 0 1-.818.818.82.82 0 0 1-.818-.818V7.703a.62.62 0 0 0-.614-.614.62.62 0 0 0-.614.614v7.044c0 1.072.769 2.045 1.832 2.151 1.227.123 2.258-.834 2.258-2.037V6.411c0-1.71-1.252-3.231-2.953-3.395a3.27 3.27 0 0 0-3.591 3.256v10.038c0 2.348 1.718 4.45 4.058 4.671 2.692.245 4.941-1.849 4.941-4.483V7.703a.62.62 0 0 0-.614-.614.62.62 0 0 0-.614.614z" fill="#177de6"/></svg>