<svg width="48" height="48" viewBox="0 0 48 48" fill="none" xmlns="http://www.w3.org/2000/svg">
<path d="M20.841 29.159C21.2827 29.6006 21.9647 29.6554 22.466 29.3232C22.537 29.2761 22.6044 29.2213 22.6669 29.1588L22.6768 29.1488L31.6219 20.2037C32.126 19.6996 32.126 18.8822 31.6219 18.3781C31.1178 17.874 30.3004 17.874 29.7963 18.3781L21.7541 26.4203L18.2037 22.8699C17.6996 22.3658 16.8822 22.3658 16.3781 22.8699C15.874 23.374 15.874 24.1914 16.3781 24.6955L20.8192 29.1366C20.8264 29.1441 20.8336 29.1516 20.841 29.159Z" fill="#04B70A"/>
<path fill-rule="evenodd" clip-rule="evenodd" d="M24 48C37.2548 48 48 37.2548 48 24C48 10.7452 37.2548 0 24 0C10.7452 0 0 10.7452 0 24C0 37.2548 10.7452 48 24 48ZM24 46C36.1503 46 46 36.1503 46 24C46 11.8497 36.1503 2 24 2C11.8497 2 2 11.8497 2 24C2 36.1503 11.8497 46 24 46Z" fill="#04B70A"/>
</svg>
